<svg width="37" height="37" viewBox="0 0 37 37" fill="none" xmlns="http://www.w3.org/2000/svg">
<mask id="mask0_4101_36219" style="mask-type:alpha" maskUnits="userSpaceOnUse" x="0" y="0" width="37" height="37">
<rect width="36.32" height="36.32" fill="#D9D9D9"/>
</mask>
<g mask="url(#mask0_4101_36219)">
<path d="M25.7234 31.8192C25.5217 31.8192 25.3199 31.794 25.1181 31.7435C24.9163 31.6931 24.7272 31.6048 24.5506 31.4787L20.0106 28.8304C19.6575 28.6286 19.3864 28.3574 19.1972 28.0169C19.008 27.6764 18.9134 27.3044 18.9134 26.9009V21.5664C18.9134 21.1628 19.008 20.7908 19.1972 20.4503C19.3864 20.1098 19.6575 19.8386 20.0106 19.6369L24.5506 16.9885C24.7272 16.8624 24.9163 16.7741 25.1181 16.7237C25.3199 16.6732 25.5217 16.648 25.7234 16.648C25.9252 16.648 26.1207 16.6795 26.3099 16.7426C26.499 16.8057 26.6819 16.8876 26.8584 16.9885L31.3984 19.6369C31.7515 19.8386 32.029 20.1098 32.2308 20.4503C32.4326 20.7908 32.5334 21.1628 32.5334 21.5664V26.9009C32.5334 27.3044 32.4326 27.6764 32.2308 28.0169C32.029 28.3574 31.7515 28.6286 31.3984 28.8304L26.8584 31.4787C26.6819 31.5796 26.499 31.6615 26.3099 31.7246C26.1207 31.7877 25.9252 31.8192 25.7234 31.8192ZM15.1301 18.1614C13.4654 18.1614 12.0404 17.5686 10.8549 16.3832C9.66949 15.1977 9.07677 13.7727 9.07677 12.108C9.07677 10.4434 9.66949 9.0183 10.8549 7.83285C12.0404 6.64741 13.4654 6.05469 15.1301 6.05469C16.7948 6.05469 18.2198 6.64741 19.4053 7.83285C20.5907 9.0183 21.1834 10.4434 21.1834 12.108C21.1834 13.7727 20.5907 15.1977 19.4053 16.3832C18.2198 17.5686 16.7948 18.1614 15.1301 18.1614ZM3.02344 30.268V26.0307C3.02344 25.1984 3.23783 24.4165 3.6666 23.685C4.09538 22.9536 4.6881 22.3987 5.44477 22.0204C6.7311 21.3646 8.18138 20.8097 9.7956 20.3557C11.4098 19.9017 13.188 19.6747 15.1301 19.6747H15.6598C15.8111 19.6747 15.9624 19.6999 16.1138 19.7504C15.912 20.2044 15.7417 20.6773 15.603 21.1691C15.4643 21.6609 15.3571 22.1717 15.2814 22.7014H15.1301C13.3393 22.7014 11.7314 22.9284 10.3064 23.3824C8.8813 23.8364 7.71477 24.2904 6.80677 24.7444C6.57977 24.8705 6.39691 25.047 6.25819 25.274C6.11947 25.501 6.0501 25.7532 6.0501 26.0307V27.2414H15.5841C15.7354 27.771 15.9372 28.2944 16.1894 28.8114C16.4417 29.3285 16.7191 29.814 17.0218 30.268H3.02344ZM15.1301 15.1347C15.9624 15.1347 16.675 14.8383 17.2677 14.2456C17.8604 13.6529 18.1568 12.9404 18.1568 12.108C18.1568 11.2757 17.8604 10.5632 17.2677 9.97044C16.675 9.37771 15.9624 9.08135 15.1301 9.08135C14.2978 9.08135 13.5852 9.37771 12.9925 9.97044C12.3998 10.5632 12.1034 11.2757 12.1034 12.108C12.1034 12.9404 12.3998 13.6529 12.9925 14.2456C13.5852 14.8383 14.2978 15.1347 15.1301 15.1347ZM22.1671 20.961L25.7234 23.0419L29.2798 20.961L25.7234 18.918L22.1671 20.961ZM26.8584 28.8304L30.2634 26.863V22.7014L26.8584 24.7065V28.8304ZM21.1834 26.863L24.5884 28.8682V24.7444L21.1834 22.7392V26.863Z" fill="#1C1B1F"/>
</g>
</svg>
