<svg width="16" height="17" viewBox="0 0 16 17" fill="none" xmlns="http://www.w3.org/2000/svg">
<path d="M5.93229 11.5146L8.00417 10.2573L10.076 11.5146L9.52708 9.15938L11.3688 7.56563L8.94271 7.37083L8.00417 5.13958L7.06563 7.37083L4.63958 7.56563L6.48125 9.15938L5.93229 11.5146ZM8.00417 16.5083L5.63125 14.1708H2.3375V10.8771L0 8.50417L2.3375 6.13125V2.8375H5.63125L8.00417 0.5L10.3771 2.8375H13.6708V6.13125L16.0083 8.50417L13.6708 10.8771V14.1708H10.3771L8.00417 16.5083ZM8.00417 14.525L9.775 12.7542H12.2542V10.275L14.025 8.50417L12.2542 6.73333V4.25417H9.775L8.00417 2.48333L6.23333 4.25417H3.75417V6.73333L1.98333 8.50417L3.75417 10.275V12.7542H6.23333L8.00417 14.525Z" fill="#0C2340"/>
</svg>
