<svg width="24" height="24" viewBox="0 0 24 24" fill="none" xmlns="http://www.w3.org/2000/svg">
<mask id="mask0_2536_45290" style="mask-type:alpha" maskUnits="userSpaceOnUse" x="0" y="0" width="24" height="24">
<rect x="0.953125" y="0.867188" width="22.6335" height="22.6335" fill="#D9D9D9"/>
</mask>
<g mask="url(#mask0_2536_45290)">
<path d="M6.14062 19.9681V5.87665C6.14062 5.40028 6.30566 4.99705 6.63573 4.66698C6.9658 4.33691 7.36903 4.17188 7.8454 4.17188H16.6956C17.172 4.17188 17.5752 4.33691 17.9053 4.66698C18.2353 4.99705 18.4004 5.40028 18.4004 5.87665V19.9681L12.2705 17.3384L6.14062 19.9681ZM7.55519 17.7991L12.2705 15.7715L16.9858 17.7991V5.87665C16.9858 5.8041 16.9556 5.73759 16.8951 5.67712C16.8347 5.61667 16.7682 5.58644 16.6956 5.58644H7.8454C7.77284 5.58644 7.70634 5.61667 7.64587 5.67712C7.58542 5.73759 7.55519 5.8041 7.55519 5.87665V17.7991Z" fill="#737373"/>
</g>
</svg>
