<svg width="22" height="22" viewBox="0 0 22 22" fill="none" xmlns="http://www.w3.org/2000/svg">
<path d="M17.1453 21.1338L9.5836 13.5352C9.16043 13.7183 8.73025 13.8595 8.29305 13.9588C7.85586 14.058 7.39199 14.1076 6.90147 14.1076C4.98439 14.1076 3.35488 13.4366 2.01293 12.0947C0.670976 10.7527 0 9.12323 0 7.20616C0 6.58602 0.078857 5.9932 0.236571 5.4277C0.394305 4.86222 0.618584 4.32403 0.909407 3.81314L5.2211 8.10176L7.79707 5.52579L3.53156 1.23717C4.04243 0.946348 4.57712 0.718229 5.13564 0.552813C5.69419 0.387397 6.28279 0.304688 6.90147 0.304688C8.81854 0.304688 10.4481 0.975663 11.79 2.31761C13.132 3.65957 13.8029 5.28908 13.8029 7.20616C13.8029 7.71243 13.7552 8.18407 13.6598 8.62108C13.5644 9.0581 13.4213 9.4805 13.2305 9.88829L20.8291 17.45C21.0384 17.6619 21.143 17.918 21.143 18.2183C21.143 18.5185 21.0392 18.7725 20.8317 18.98L18.6523 21.1594C18.4447 21.367 18.194 21.4669 17.9 21.4592C17.6061 21.4515 17.3545 21.3431 17.1453 21.1338ZM17.9116 19.3334L19.0103 18.2347L11.017 10.2414C11.354 9.82596 11.6025 9.35317 11.7626 8.82306C11.9226 8.29294 12.0026 7.75397 12.0026 7.20616C12.0026 5.87509 11.5271 4.69713 10.5761 3.67229C9.62514 2.64745 8.42178 2.14503 6.96604 2.16503L9.5674 4.76642C9.78438 4.98338 9.89288 5.23651 9.89288 5.52579C9.89288 5.81507 9.78438 6.0682 9.5674 6.28517L5.98051 9.87208C5.76354 10.0891 5.51041 10.1975 5.2211 10.1975C4.93182 10.1975 4.6787 10.0891 4.46173 9.87208L1.86034 7.27073C1.86342 8.8111 2.38124 10.0356 3.41378 10.9443C4.4463 11.853 5.60887 12.3073 6.90147 12.3073C7.42672 12.3073 7.95197 12.2292 8.4772 12.073C9.00243 11.9168 9.4828 11.6725 9.91829 11.3402L17.9116 19.3334Z" fill="#1C1B1F"/>
</svg>
