<svg width="27" height="27" viewBox="0 0 27 27" fill="none" xmlns="http://www.w3.org/2000/svg">
<mask id="mask0_2536_45198" style="mask-type:alpha" maskUnits="userSpaceOnUse" x="0" y="0" width="27" height="27">
<rect x="0.6875" y="0.3125" width="26.1875" height="26.1875" fill="#D9D9D9"/>
</mask>
<g mask="url(#mask0_2536_45198)">
<path d="M6.48028 23.7694C5.9361 23.7694 5.47132 23.5767 5.08593 23.1913C4.70052 22.8059 4.50781 22.3411 4.50781 21.797V9.37475C4.50781 8.83058 4.70052 8.3658 5.08593 7.98041C5.47132 7.59499 5.9361 7.40229 6.48028 7.40229H8.8724C8.8724 6.03978 9.35012 4.8808 10.3056 3.92535C11.261 2.96991 12.42 2.49219 13.7825 2.49219C15.145 2.49219 16.304 2.96991 17.2595 3.92535C18.2149 4.8808 18.6927 6.03978 18.6927 7.40229H21.0848C21.6289 7.40229 22.0937 7.59499 22.4791 7.98041C22.8645 8.3658 23.0572 8.83058 23.0572 9.37475V21.797C23.0572 22.3411 22.8645 22.8059 22.4791 23.1913C22.0937 23.5767 21.6289 23.7694 21.0848 23.7694H6.48028ZM6.48028 22.1327H21.0848C21.1687 22.1327 21.2457 22.0978 21.3156 22.0278C21.3856 21.9579 21.4205 21.8809 21.4205 21.797V9.37475C21.4205 9.29081 21.3856 9.21386 21.3156 9.1439C21.2457 9.07395 21.1687 9.03898 21.0848 9.03898H6.48028C6.39633 9.03898 6.31938 9.07395 6.24942 9.1439C6.17947 9.21386 6.1445 9.29081 6.1445 9.37475V21.797C6.1445 21.8809 6.17947 21.9579 6.24942 22.0278C6.31938 22.0978 6.39633 22.1327 6.48028 22.1327ZM13.7825 15.0403C15.145 15.0403 16.304 14.5625 17.2595 13.6071C18.2149 12.6516 18.6927 11.4926 18.6927 10.1301H17.056C17.056 11.0394 16.7377 11.8123 16.1012 12.4488C15.4647 13.0853 14.6918 13.4036 13.7825 13.4036C12.8732 13.4036 12.1003 13.0853 11.4638 12.4488C10.8273 11.8123 10.5091 11.0394 10.5091 10.1301H8.8724C8.8724 11.4926 9.35012 12.6516 10.3056 13.6071C11.261 14.5625 12.42 15.0403 13.7825 15.0403ZM10.5091 7.40229H17.056C17.056 6.493 16.7377 5.72011 16.1012 5.0836C15.4647 4.4471 14.6918 4.12885 13.7825 4.12885C12.8732 4.12885 12.1003 4.4471 11.4638 5.0836C10.8273 5.72011 10.5091 6.493 10.5091 7.40229Z" fill="#1C1B1F"/>
</g>
</svg>
