<svg width="23" height="23" viewBox="0 0 23 23" fill="none" xmlns="http://www.w3.org/2000/svg">
<path d="M17.2185 6.01669L16.4632 17.3456C16.3971 18.3378 16.364 18.8339 16.1497 19.2101C15.961 19.5413 15.6764 19.8075 15.3334 19.9738C14.9438 20.1626 14.4465 20.1626 13.4521 20.1626H9.66812C8.67366 20.1626 8.17643 20.1626 7.78683 19.9738C7.44381 19.8075 7.15922 19.5413 6.97054 19.2101C6.75623 18.8339 6.72316 18.3378 6.65701 17.3456L5.90175 6.01669M4.01562 6.01669H19.1046M15.3324 6.01669L15.0772 5.25098C14.8298 4.50897 14.7061 4.13796 14.4767 3.86366C14.2742 3.62143 14.0141 3.43394 13.7202 3.31838C13.3874 3.1875 12.9964 3.1875 12.2142 3.1875H10.906C10.1238 3.1875 9.73284 3.1875 9.40005 3.31838C9.1062 3.43394 8.84606 3.62143 8.6435 3.86366C8.41411 4.13796 8.29045 4.50897 8.0431 5.25098L7.78787 6.01669M13.4462 9.78893V16.3904M9.674 9.78893V16.3904" stroke="#878787" stroke-width="1.33138" stroke-linecap="round" stroke-linejoin="round"/>
</svg>
