<svg width="27" height="27" viewBox="0 0 27 27" fill="none" xmlns="http://www.w3.org/2000/svg">
<mask id="mask0_3261_21521" style="mask-type:alpha" maskUnits="userSpaceOnUse" x="0" y="0" width="27" height="27">
<rect y="0.460938" width="26.1875" height="26.1875" fill="#D9D9D9"/>
</mask>
<g mask="url(#mask0_3261_21521)">
<path d="M5.79278 23.9179C5.2486 23.9179 4.78382 23.7252 4.39843 23.3397C4.01302 22.9544 3.82031 22.4896 3.82031 21.9454V9.52319C3.82031 8.97902 4.01302 8.51424 4.39843 8.12884C4.78382 7.74343 5.2486 7.55073 5.79278 7.55073H8.1849C8.1849 6.18821 8.66262 5.02924 9.61806 4.07379C10.5735 3.11835 11.7325 2.64062 13.095 2.64062C14.4575 2.64062 15.6165 3.11835 16.572 4.07379C17.5274 5.02924 18.0052 6.18821 18.0052 7.55073H20.3973C20.9414 7.55073 21.4062 7.74343 21.7916 8.12884C22.177 8.51424 22.3697 8.97902 22.3697 9.52319V21.9454C22.3697 22.4896 22.177 22.9544 21.7916 23.3397C21.4062 23.7252 20.9414 23.9179 20.3973 23.9179H5.79278ZM5.79278 22.2812H20.3973C20.4812 22.2812 20.5582 22.2462 20.6281 22.1763C20.6981 22.1063 20.733 22.0293 20.733 21.9454V9.52319C20.733 9.43925 20.6981 9.36229 20.6281 9.29233C20.5582 9.22239 20.4812 9.18742 20.3973 9.18742H5.79278C5.70883 9.18742 5.63188 9.22239 5.56192 9.29233C5.49197 9.36229 5.457 9.43925 5.457 9.52319V21.9454C5.457 22.0293 5.49197 22.1063 5.56192 22.1763C5.63188 22.2462 5.70883 22.2812 5.79278 22.2812ZM13.095 15.1887C14.4575 15.1887 15.6165 14.711 16.572 13.7555C17.5274 12.8001 18.0052 11.6411 18.0052 10.2786H16.3685C16.3685 11.1879 16.0502 11.9607 15.4137 12.5972C14.7772 13.2338 14.0043 13.552 13.095 13.552C12.1857 13.552 11.4128 13.2338 10.7763 12.5972C10.1398 11.9607 9.82159 11.1879 9.82159 10.2786H8.1849C8.1849 11.6411 8.66262 12.8001 9.61806 13.7555C10.5735 14.711 11.7325 15.1887 13.095 15.1887ZM9.82159 7.55073H16.3685C16.3685 6.64144 16.0502 5.86854 15.4137 5.23204C14.7772 4.59554 14.0043 4.27729 13.095 4.27729C12.1857 4.27729 11.4128 4.59554 10.7763 5.23204C10.1398 5.86854 9.82159 6.64144 9.82159 7.55073Z" fill="#1C1B1F"/>
</g>
</svg>
