<svg width="21" height="22" viewBox="0 0 21 22" fill="none" xmlns="http://www.w3.org/2000/svg">
<path d="M9.26471 21.9777C6.59297 21.2933 4.38097 19.8162 2.62871 17.5464C0.876235 15.2766 0 12.7389 0 9.93344V3.25768L9.26471 0L18.5294 3.25768V9.83076C18.2412 9.72073 17.9386 9.62144 17.6218 9.53287C17.3051 9.4445 16.99 9.37498 16.6765 9.32432V4.46927L9.26471 1.86974L1.85294 4.46927V9.93344C1.85294 10.9612 2.00735 11.9649 2.31618 12.9446C2.625 13.924 3.05066 14.8395 3.59316 15.6912C4.13546 16.5428 4.78357 17.3074 5.53751 17.985C6.29125 18.6626 7.10922 19.2036 7.99143 19.6082L8.02725 19.5968C8.19031 20.0223 8.40165 20.4299 8.66126 20.8197C8.92109 21.2094 9.21643 21.5634 9.54728 21.8817C9.49519 21.8965 9.44815 21.9126 9.40615 21.9298C9.36415 21.9468 9.317 21.9628 9.26471 21.9777ZM15.4412 22C13.8987 22 12.5866 21.492 11.5049 20.476C10.4232 19.46 9.88235 18.2277 9.88235 16.7789C9.88235 15.3301 10.4232 14.0978 11.5049 13.0818C12.5866 12.0658 13.8987 11.5578 15.4412 11.5578C16.9836 11.5578 18.2957 12.0658 19.3774 13.0818C20.4591 14.0978 21 15.3301 21 16.7789C21 18.2277 20.4591 19.46 19.3774 20.476C18.2957 21.492 16.9836 22 15.4412 22ZM14.8949 19.9696H15.9875V17.292H18.8382V16.2658H15.9875V13.5882H14.8949V16.2658H12.0441V17.292H14.8949V19.9696Z" fill="#1C1B1F"/>
</svg>
