<svg width="32" height="32" viewBox="0 0 32 32" fill="none" xmlns="http://www.w3.org/2000/svg">
<path d="M20.0281 14.0797C20.0281 13.5827 19.6251 13.1797 19.1281 13.1797H9.22812C8.73112 13.1797 8.32812 13.5827 8.32812 14.0797C8.32812 14.5767 8.73112 14.9797 9.22812 14.9797H19.1281C19.6251 14.9797 20.0281 14.5767 20.0281 14.0797Z" fill="#0B223C"/>
<path d="M9.22812 17.7266C8.73112 17.7266 8.32812 18.1296 8.32812 18.6266C8.32812 19.1236 8.73112 19.5266 9.22812 19.5266H14.4771C14.9741 19.5266 15.3771 19.1236 15.3771 18.6266C15.3771 18.1296 14.9741 17.7266 14.4771 17.7266H9.22812Z" fill="#0B223C"/>
<path d="M25.9616 14.1318C25.4646 14.1318 25.0616 14.5348 25.0616 15.0318V22.3108C25.0616 23.6728 23.9536 24.7808 22.5916 24.7808H16.5716C16.3766 24.7808 16.1866 24.8438 16.0306 24.9618L10.8326 28.8708C10.7006 28.9698 10.5766 28.9288 10.5146 28.8948C10.4516 28.8628 10.3476 28.7838 10.3516 28.6228L10.4516 25.7128C10.4596 25.4688 10.3686 25.2318 10.1996 25.0568C10.0306 24.8808 9.79656 24.7818 9.55256 24.7818H5.37156C4.00956 24.7818 2.90156 23.6748 2.90156 22.3118V10.4118C2.90156 9.04481 4.00956 7.93281 5.37156 7.93281H16.4616C16.9586 7.93281 17.3616 7.52981 17.3616 7.03281C17.3616 6.53581 16.9586 6.13281 16.4616 6.13281H5.37156C3.01756 6.13281 1.10156 8.05281 1.10156 10.4128V22.3118C1.10156 24.6658 3.01756 26.5828 5.37156 26.5828H8.62056L8.55256 28.5648C8.52856 29.3788 8.96156 30.1188 9.68456 30.4938C9.99356 30.6548 10.3266 30.7338 10.6566 30.7338C11.0996 30.7338 11.5386 30.5908 11.9126 30.3118L16.8716 26.5828H22.5906C24.9446 26.5828 26.8606 24.6668 26.8606 22.3118V15.0328C26.8616 14.5348 26.4586 14.1318 25.9616 14.1318Z" fill="#0B223C"/>
<path d="M30.8296 5.55744C30.6666 5.05744 30.2656 4.68344 29.7566 4.55744L27.4566 3.98444L26.2006 1.97444C25.6436 1.08044 24.1896 1.08244 23.6336 1.97444L22.3776 3.98444L20.0776 4.55744C19.5686 4.68344 19.1666 5.05744 19.0046 5.55744C18.8426 6.05744 18.9466 6.59644 19.2846 6.99944L20.8086 8.81344L20.6426 11.1774C20.6056 11.7014 20.8376 12.1984 21.2626 12.5074C21.5266 12.6994 21.8366 12.7984 22.1506 12.7984C22.3416 12.7984 22.5346 12.7614 22.7196 12.6864L24.9176 11.7984L27.1146 12.6864C27.6016 12.8844 28.1456 12.8164 28.5716 12.5084C28.9966 12.1994 29.2286 11.7024 29.1926 11.1774L29.0266 8.81344L30.5506 6.99844C30.8876 6.59644 30.9926 6.05744 30.8296 5.55744ZM27.4136 7.93444C27.2636 8.11344 27.1886 8.34344 27.2056 8.57744L27.3656 10.8474L25.2556 9.99444C25.1476 9.95044 25.0326 9.92844 24.9186 9.92844C24.8046 9.92844 24.6896 9.95044 24.5816 9.99444L22.4726 10.8474L22.6316 8.57744C22.6476 8.34444 22.5726 8.11344 22.4236 7.93444L20.9606 6.19244L23.1686 5.64144C23.3946 5.58444 23.5906 5.44344 23.7136 5.24544L24.9196 3.31644L26.1256 5.24544C26.2496 5.44344 26.4446 5.58544 26.6706 5.64144L28.8786 6.19244L27.4136 7.93444Z" fill="#0B223C"/>
</svg>
