<svg width="34" height="34" viewBox="0 0 34 34" fill="none" xmlns="http://www.w3.org/2000/svg">
<rect width="34" height="34" rx="17" fill="#005F93"/>
<path d="M13.836 12.6256C13.8357 13.1345 13.527 13.5925 13.0553 13.7836C12.5835 13.9746 12.0431 13.8606 11.6887 13.4953C11.3344 13.13 11.2369 12.5863 11.4422 12.1207C11.6476 11.655 12.1148 11.3603 12.6235 11.3756C13.2991 11.3958 13.8363 11.9496 13.836 12.6256ZM13.8735 14.8006H11.3735V22.6255H13.8735V14.8006ZM17.8235 14.8006H15.336V22.6255H17.7985V18.5193C17.7985 16.2318 20.7797 16.0193 20.7797 18.5193V22.6255H23.2485V17.6693C23.2485 13.8131 18.836 13.9568 17.7985 15.8505L17.8235 14.8006Z" fill="white"/>
</svg>
