<svg width="34" height="34" viewBox="0 0 34 34" fill="none" xmlns="http://www.w3.org/2000/svg">
<rect width="34" height="34" rx="17" fill="#E55D02"/>
<path d="M17 15.125C15.9641 15.125 15.125 15.9644 15.125 17C15.125 18.0358 15.9645 18.875 17 18.875C18.0358 18.875 18.875 18.0356 18.875 17C18.875 15.9642 18.0356 15.125 17 15.125ZM17 13.875C18.7253 13.875 20.125 15.2732 20.125 17C20.125 18.7253 18.7268 20.125 17 20.125C15.2747 20.125 13.875 18.7268 13.875 17C13.875 15.2747 15.2732 13.875 17 13.875ZM21.0625 13.7182C21.0625 14.1495 20.712 14.4995 20.2813 14.4995C19.8499 14.4995 19.5 14.149 19.5 13.7182C19.5 13.2874 19.8504 12.9375 20.2813 12.9375C20.7114 12.937 21.0625 13.2874 21.0625 13.7182ZM17 12C15.4535 12 15.2014 12.0041 14.4821 12.0361C13.992 12.0591 13.6635 12.125 13.3582 12.2435C13.087 12.3487 12.8913 12.4744 12.6828 12.6828C12.4736 12.8921 12.3482 13.0873 12.2434 13.3586C12.1246 13.6646 12.0587 13.9926 12.0361 14.482C12.0038 15.172 12 15.4132 12 17C12 18.5466 12.0041 18.7986 12.0361 19.5179C12.0591 20.0078 12.1251 20.3368 12.2434 20.6413C12.3488 20.9129 12.4747 21.109 12.6822 21.3165C12.8923 21.5263 13.088 21.6521 13.3568 21.7559C13.6658 21.8753 13.9941 21.9413 14.482 21.9639C15.172 21.9962 15.4132 22 17 22C18.5466 22 18.7986 21.9959 19.5179 21.9639C20.0067 21.9409 20.3359 21.8748 20.6413 21.7566C20.9121 21.6514 21.1089 21.5251 21.3165 21.3178C21.5266 21.1074 21.6522 20.9121 21.7561 20.6427C21.8752 20.3349 21.9413 20.0061 21.9639 19.5181C21.9962 18.828 22 18.5868 22 17C22 15.4535 21.9959 15.2014 21.9639 14.4821C21.9409 13.9932 21.8747 13.6634 21.7564 13.3582C21.6515 13.0877 21.5254 12.8915 21.3171 12.6828C21.1075 12.4732 20.9129 12.3481 20.6413 12.2434C20.3356 12.1247 20.0071 12.0587 19.518 12.0361C18.828 12.0038 18.5868 12 17 12ZM17 10.75C18.6979 10.75 18.9099 10.7562 19.5766 10.7875C20.2416 10.8182 20.6953 10.9234 21.0938 11.0781C21.5057 11.237 21.8536 11.4516 22.201 11.799C22.5479 12.1464 22.7625 12.4953 22.9219 12.9062C23.076 13.3042 23.1813 13.7583 23.2125 14.4234C23.2422 15.0901 23.25 15.3021 23.25 17C23.25 18.6979 23.2438 18.9099 23.2125 19.5766C23.1818 20.2417 23.076 20.6953 22.9219 21.0938C22.763 21.5057 22.5479 21.8536 22.201 22.2011C21.8536 22.5479 21.5041 22.7625 21.0938 22.9219C20.6953 23.0761 20.2416 23.1813 19.5766 23.2125C18.9099 23.2422 18.6979 23.25 17 23.25C15.3021 23.25 15.0901 23.2438 14.4234 23.2125C13.7583 23.1818 13.3052 23.0761 12.9063 22.9219C12.4948 22.763 12.1464 22.5479 11.799 22.2011C11.4516 21.8536 11.2375 21.5042 11.0781 21.0938C10.9234 20.6953 10.8188 20.2417 10.7875 19.5766C10.7578 18.9099 10.75 18.6979 10.75 17C10.75 15.3021 10.7563 15.0901 10.7875 14.4234C10.8182 13.7578 10.9234 13.3047 11.0781 12.9062C11.237 12.4948 11.4516 12.1464 11.799 11.799C12.1464 11.4516 12.4953 11.2375 12.9063 11.0781C13.3047 10.9234 13.7578 10.8187 14.4234 10.7875C15.0901 10.7578 15.3021 10.75 17 10.75Z" fill="white"/>
</svg>
