<svg width="24" height="24" viewBox="0 0 24 24" fill="none" xmlns="http://www.w3.org/2000/svg">
<mask id="mask0_1273_8049" style="mask-type:alpha" maskUnits="userSpaceOnUse" x="0" y="0" width="24" height="24">
<rect width="24" height="24" fill="#D9D9D9"/>
</mask>
<g mask="url(#mask0_1273_8049)">
<path d="M8.00781 8V5H10.0078V8H8.00781ZM8.00781 17V12H10.0078V17H8.00781ZM6.00781 22C5.45781 22 4.98698 21.8042 4.59531 21.4125C4.20365 21.0208 4.00781 20.55 4.00781 20V4C4.00781 3.45 4.20365 2.97917 4.59531 2.5875C4.98698 2.19583 5.45781 2 6.00781 2H18.0078C18.5578 2 19.0286 2.19583 19.4203 2.5875C19.812 2.97917 20.0078 3.45 20.0078 4V20C20.0078 20.55 19.812 21.0208 19.4203 21.4125C19.0286 21.8042 18.5578 22 18.0078 22H6.00781ZM6.00781 20H18.0078V11H6.00781V20ZM6.00781 9H18.0078V4H6.00781V9Z" fill="#1C1B1F"/>
</g>
</svg>
