<svg width="20" height="20" viewBox="0 0 20 20" fill="none" xmlns="http://www.w3.org/2000/svg">
<path d="M10 19.7706L4.6967 14.4674C1.76777 11.5384 1.76777 6.7897 4.6967 3.86076C7.62563 0.931829 12.3743 0.931829 15.3033 3.86076C18.2323 6.7897 18.2323 11.5384 15.3033 14.4674L10 19.7706ZM14.1248 13.2888C16.4028 11.0108 16.4028 7.31733 14.1248 5.03927C11.8468 2.76121 8.15327 2.76121 5.87521 5.03927C3.59715 7.31733 3.59715 11.0108 5.87521 13.2888L10 17.4136L14.1248 13.2888ZM10 10.8307C9.0795 10.8307 8.33333 10.0846 8.33333 9.16406C8.33333 8.24359 9.0795 7.4974 10 7.4974C10.9205 7.4974 11.6667 8.24359 11.6667 9.16406C11.6667 10.0846 10.9205 10.8307 10 10.8307Z" fill="#333E56"/>
</svg>
