<svg width="24" height="24" viewBox="0 0 24 24" fill="none" xmlns="http://www.w3.org/2000/svg">
<mask id="mask0_1273_8055" style="mask-type:alpha" maskUnits="userSpaceOnUse" x="0" y="0" width="24" height="24">
<rect width="24" height="24" fill="#D9D9D9"/>
</mask>
<g mask="url(#mask0_1273_8055)">
<path d="M5 21C4.45 21 3.97917 20.8042 3.5875 20.4125C3.19583 20.0208 3 19.55 3 19V5C3 4.45 3.19583 3.97917 3.5875 3.5875C3.97917 3.19583 4.45 3 5 3H19C19.55 3 20.0208 3.19583 20.4125 3.5875C20.8042 3.97917 21 4.45 21 5V19C21 19.55 20.8042 20.0208 20.4125 20.4125C20.0208 20.8042 19.55 21 19 21H5ZM5 12V19H19V12H17V17H7V12H5ZM9 15H15V12H9V15ZM5 10H19V5H5V10ZM8 8C7.71667 8 7.47917 7.90417 7.2875 7.7125C7.09583 7.52083 7 7.28333 7 7C7 6.71667 7.09583 6.47917 7.2875 6.2875C7.47917 6.09583 7.71667 6 8 6C8.28333 6 8.52083 6.09583 8.7125 6.2875C8.90417 6.47917 9 6.71667 9 7C9 7.28333 8.90417 7.52083 8.7125 7.7125C8.52083 7.90417 8.28333 8 8 8ZM12 8C11.7167 8 11.4792 7.90417 11.2875 7.7125C11.0958 7.52083 11 7.28333 11 7C11 6.71667 11.0958 6.47917 11.2875 6.2875C11.4792 6.09583 11.7167 6 12 6C12.2833 6 12.5208 6.09583 12.7125 6.2875C12.9042 6.47917 13 6.71667 13 7C13 7.28333 12.9042 7.52083 12.7125 7.7125C12.5208 7.90417 12.2833 8 12 8ZM16 8C15.7167 8 15.4792 7.90417 15.2875 7.7125C15.0958 7.52083 15 7.28333 15 7C15 6.71667 15.0958 6.47917 15.2875 6.2875C15.4792 6.09583 15.7167 6 16 6C16.2833 6 16.5208 6.09583 16.7125 6.2875C16.9042 6.47917 17 6.71667 17 7C17 7.28333 16.9042 7.52083 16.7125 7.7125C16.5208 7.90417 16.2833 8 16 8Z" fill="#1C1B1F"/>
</g>
</svg>
