<svg width="24" height="25" viewBox="0 0 24 25" fill="none" xmlns="http://www.w3.org/2000/svg">
<path d="M11.0078 2.55469L18.3061 4.8354C18.7235 4.96586 19.0078 5.3525 19.0078 5.78988V7.55469H21.0078C21.5601 7.55469 22.0078 8.00241 22.0078 8.55469V16.5547C22.0078 17.107 21.5601 17.5547 21.0078 17.5547L17.7877 17.5558C17.4011 18.0655 16.9305 18.5165 16.3878 18.8865L11.0078 22.5547L5.62779 18.8865C3.98856 17.7688 3.00781 15.9131 3.00781 13.9291V5.78988C3.00781 5.3525 3.29206 4.96586 3.70954 4.8354L11.0078 2.55469ZM11.0078 4.64869L5.00781 6.52469V13.9291C5.00781 15.174 5.58699 16.3431 6.56622 17.0975L6.75447 17.234L11.0078 20.1337L14.7898 17.5547H10.0078C9.45553 17.5547 9.00781 17.107 9.00781 16.5547V8.55469C9.00781 8.00241 9.45553 7.55469 10.0078 7.55469H17.0078V6.52469L11.0078 4.64869ZM11.0078 12.5547V15.5547H20.0078V12.5547H11.0078ZM11.0078 10.5547H20.0078V9.55469H11.0078V10.5547Z" fill="#1C1B1F"/>
</svg>
