<svg width="22" height="22" viewBox="0 0 22 22" fill="none" xmlns="http://www.w3.org/2000/svg">
<path d="M16 1C16.5523 1 17 1.44772 17 2V6H20C20.5523 6 21 6.44772 21 7V17C21 17.5523 20.5523 18 20 18H17V20C17 20.5523 16.5523 21 16 21H6C5.44772 21 5 20.5523 5 20V18H2C1.44772 18 1 17.5523 1 17V7C1 6.44772 1.44772 6 2 6H5V2C5 1.44772 5.44772 1 6 1H16ZM15 16H7V19H15V16ZM19 8H3V16H5V15C5 14.4477 5.44772 14 6 14H16C16.5523 14 17 14.4477 17 15V16H19V8ZM7 9V11H4V9H7ZM15 3H7V6H15V3Z" fill="black"/>
</svg>
