<svg width="22" height="25" viewBox="0 0 22 25" fill="none" xmlns="http://www.w3.org/2000/svg">
<path d="M1.79176 2.19767L11.0837 0.132812L20.3755 2.19767C20.893 2.31266 21.2611 2.77156 21.2611 3.30157V14.5948C21.2611 16.8634 20.1273 18.9818 18.2397 20.2402L11.0837 25.0109L3.92759 20.2402C2.04003 18.9818 0.90625 16.8634 0.90625 14.5948V3.30157C0.90625 2.77156 1.27437 2.31266 1.79176 2.19767ZM3.1679 4.20869V14.5948C3.1679 16.1072 3.92374 17.5195 5.18212 18.3584L11.0837 22.2928L16.9852 18.3584C18.2436 17.5195 18.9994 16.1072 18.9994 14.5948V4.20869L11.0837 2.44963L3.1679 4.20869Z" fill="black"/>
</svg>
