<svg width="19" height="19" viewBox="0 0 19 19" fill="none" xmlns="http://www.w3.org/2000/svg">
<path d="M8.47616 9.06308e-05C8.50948 6.07228e-05 8.54281 3.08144e-05 8.57715 0C10.9191 0.00332704 12.9948 0.957285 14.6691 2.57649C14.926 2.84022 15.1496 3.12869 15.3686 3.42421C15.3863 3.44816 15.404 3.47211 15.4223 3.49678C16.762 5.32588 17.2933 7.6121 16.9626 9.85066C16.7459 11.1748 16.2513 12.4432 15.4441 13.5197C15.3136 13.6839 15.3136 13.6839 15.2801 13.8849C15.3348 13.959 15.3348 13.959 15.4116 14.0315C15.4407 14.0606 15.4699 14.0898 15.4999 14.1198C15.5323 14.1515 15.5647 14.1832 15.5981 14.2159C15.6319 14.2495 15.6657 14.2831 15.7005 14.3177C15.7741 14.3908 15.8479 14.4638 15.9219 14.5367C16.0389 14.6521 16.1556 14.7679 16.2721 14.8839C16.5618 15.172 16.8521 15.4595 17.1426 15.7468C17.3877 15.9892 17.6324 16.2319 17.8766 16.4751C17.9913 16.5891 18.1066 16.7025 18.2218 16.816C18.2925 16.8863 18.3632 16.9567 18.4338 17.027C18.4658 17.0583 18.4979 17.0896 18.5309 17.1218C18.7929 17.3847 18.9739 17.6585 19 18.0385C18.9879 18.3358 18.8678 18.5609 18.677 18.7825C18.4724 18.955 18.2864 19.0007 18.0227 18.999C17.9707 18.9993 17.9187 18.9996 17.8651 19C17.2447 18.9279 16.6829 18.1332 16.2654 17.7134C16.1946 17.6424 16.1238 17.5714 16.053 17.5004C15.8681 17.3149 15.6833 17.1293 15.4985 16.9436C15.3094 16.7537 15.1201 16.5638 14.9309 16.374C14.5606 16.0025 14.1904 15.6308 13.8203 15.259C13.757 15.3011 13.6937 15.3433 13.6303 15.3855C13.5951 15.409 13.5598 15.4324 13.5235 15.4566C13.4402 15.5128 13.3584 15.5702 13.2771 15.6292C11.557 16.8466 9.30176 17.3186 7.22928 16.9877C5.56591 16.6946 4.05316 16.0179 2.81024 14.8578C2.72705 14.7805 2.64181 14.7079 2.55416 14.6357C2.38328 14.489 2.24116 14.3244 2.09799 14.1509C2.07876 14.128 2.05953 14.1051 2.03971 14.0814C1.69451 13.6688 1.39484 13.2422 1.12481 12.7768C1.10909 12.7501 1.09336 12.7234 1.07716 12.6959C-0.0197415 10.815 -0.256506 8.47242 0.26499 6.37737C0.482608 5.55991 0.802255 4.75898 1.25752 4.04476C1.27604 4.01561 1.29455 3.98647 1.31363 3.95644C2.40472 2.26137 3.96823 1.07558 5.85798 0.410098C5.93428 0.382758 5.93428 0.382758 6.01212 0.354865C6.80905 0.0890263 7.6412 0.00076468 8.47616 9.06308e-05ZM3.95587 3.77881C3.91675 3.81515 3.87763 3.85149 3.83733 3.88893C2.70423 4.97609 1.98998 6.57745 1.95198 8.1509C1.95112 8.26991 1.95082 8.38876 1.95146 8.50775C1.95154 8.53886 1.95162 8.56997 1.9517 8.60202C1.95382 9.08786 1.97911 9.556 2.09799 10.0287C2.10937 10.0752 2.10937 10.0752 2.12099 10.1227C2.37248 11.1238 2.84508 12.0374 3.51352 12.8211C3.53325 12.8444 3.55297 12.8678 3.5733 12.8918C4.63497 14.1333 6.18919 14.9492 7.81593 15.1167C9.69564 15.2618 11.401 14.7352 12.8472 13.5303C12.8823 13.5015 12.9174 13.4726 12.9536 13.4429C13.1612 13.2673 13.3384 13.0755 13.5107 12.8655C13.5471 12.8223 13.5836 12.7791 13.6211 12.7346C14.3361 11.8702 14.7916 10.8606 15.0147 9.76271C15.0246 9.71717 15.0345 9.67163 15.0447 9.62471C15.1927 8.80958 15.1641 7.908 14.9704 7.1032C14.9621 7.06733 14.9538 7.03146 14.9452 6.99451C14.6726 5.85 14.1192 4.86717 13.3337 4.00044C13.2999 3.96278 13.266 3.92513 13.2311 3.88633C12.0329 2.62259 10.3839 2.00473 8.67349 1.90884C6.90148 1.87288 5.23403 2.56631 3.95587 3.77881Z" fill="#0B223C"/>
</svg>
