<svg width="25" height="26" viewBox="0 0 25 26" fill="none" xmlns="http://www.w3.org/2000/svg">
<path d="M21.8724 13.8512V20.8906H22.9141V22.974H2.08073V20.8906H3.1224V13.8512C1.86616 13.0104 1.03906 11.5783 1.03906 9.95312C1.03906 9.09152 1.27284 8.26168 1.69867 7.55465L4.52375 2.66146C4.70982 2.33917 5.05371 2.14062 5.42585 2.14062H19.569C19.941 2.14062 20.285 2.33917 20.471 2.66146L23.2865 7.53825C23.722 8.26168 23.9557 9.09152 23.9557 9.95312C23.9557 11.5783 23.1286 13.0104 21.8724 13.8512ZM19.7891 14.612C19.618 14.6309 19.4443 14.6406 19.2682 14.6406C17.9567 14.6406 16.7463 14.0969 15.8828 13.196C15.0194 14.0969 13.809 14.6406 12.4974 14.6406C11.1858 14.6406 9.97542 14.0969 9.11198 13.196C8.24854 14.0969 7.03814 14.6406 5.72656 14.6406C5.55052 14.6406 5.37674 14.6309 5.20573 14.612V20.8906H19.7891V14.612ZM6.02724 4.22396L3.49321 8.61272C3.25166 9.01399 3.1224 9.47281 3.1224 9.95312C3.1224 11.3914 4.28832 12.5573 5.72656 12.5573C6.80048 12.5573 7.75226 11.9014 8.14509 10.9214C8.49469 10.0492 9.72927 10.0492 10.0789 10.9214C10.4717 11.9014 11.4234 12.5573 12.4974 12.5573C13.5714 12.5573 14.5231 11.9014 14.9159 10.9214C15.2655 10.0492 16.5001 10.0492 16.8497 10.9214C17.2425 11.9014 18.1943 12.5573 19.2682 12.5573C20.7065 12.5573 21.8724 11.3914 21.8724 9.95312C21.8724 9.47281 21.7431 9.01399 21.4919 8.59631L18.9675 4.22396H6.02724Z" fill="#333333"/>
</svg>
