<svg width="32" height="32" viewBox="0 0 32 32" fill="none" xmlns="http://www.w3.org/2000/svg">
<path d="M17.3307 10.6719V21.3385C17.3307 23.5477 15.5399 25.3385 13.3307 25.3385H10.4364C9.88734 26.8921 8.40569 28.0052 6.66406 28.0052C4.45493 28.0052 2.66406 26.2144 2.66406 24.0052C2.66406 21.796 4.45493 20.0052 6.66406 20.0052C8.40569 20.0052 9.88734 21.1183 10.4364 22.6719H13.3307C14.0671 22.6719 14.6641 22.0749 14.6641 21.3385V10.6719C14.6641 8.46274 16.4549 6.67188 18.6641 6.67188H22.6641V2.67188L29.3307 8.00521L22.6641 13.3385V9.33854H18.6641C17.9277 9.33854 17.3307 9.9355 17.3307 10.6719Z" fill="black"/>
</svg>
