<svg width="32" height="32" viewBox="0 0 32 32" fill="none" xmlns="http://www.w3.org/2000/svg">
<path d="M5.33594 29.3438C5.33594 23.4527 10.1116 18.6771 16.0026 18.6771C21.8937 18.6771 26.6693 23.4527 26.6693 29.3438H24.0026C24.0026 24.9255 20.4209 21.3438 16.0026 21.3438C11.5843 21.3438 8.0026 24.9255 8.0026 29.3438H5.33594ZM16.0026 17.3438C11.5826 17.3438 8.0026 13.7638 8.0026 9.34375C8.0026 4.92375 11.5826 1.34375 16.0026 1.34375C20.4226 1.34375 24.0026 4.92375 24.0026 9.34375C24.0026 13.7638 20.4226 17.3438 16.0026 17.3438ZM16.0026 14.6771C18.9493 14.6771 21.3359 12.2904 21.3359 9.34375C21.3359 6.39708 18.9493 4.01042 16.0026 4.01042C13.0559 4.01042 10.6693 6.39708 10.6693 9.34375C10.6693 12.2904 13.0559 14.6771 16.0026 14.6771Z" fill="black"/>
</svg>
