<svg width="19" height="18" viewBox="0 0 19 18" fill="none" xmlns="http://www.w3.org/2000/svg">
<path d="M5.34359 5.25V2.25C5.34359 1.83579 5.67938 1.5 6.09359 1.5H15.8436C16.2578 1.5 16.5936 1.83579 16.5936 2.25V12C16.5936 12.4142 16.2578 12.75 15.8436 12.75H12.8438V15.7444C12.8438 16.1617 12.507 16.5 12.0881 16.5H2.34921C1.9319 16.5 1.59375 16.1633 1.59375 15.7444L1.59582 6.00561C1.59591 5.5883 1.9326 5.25 2.35144 5.25H5.34359ZM6.84359 5.25H12.0883C12.5055 5.25 12.8438 5.58669 12.8438 6.00561V11.25H15.0936V3H6.84359V5.25Z" fill="black"/>
</svg>
