<svg width="32" height="32" viewBox="0 0 32 32" fill="none" xmlns="http://www.w3.org/2000/svg">
<path d="M17.3359 24.0052V26.6719H25.3359V29.3385H17.3359C15.8631 29.3385 14.6693 28.1447 14.6693 26.6719V24.0052H10.6693C7.72375 24.0052 5.33594 21.6173 5.33594 18.6719V9.33854C5.33594 8.60217 5.9329 8.00521 6.66927 8.00521H10.6693V2.67188H13.3359V8.00521H18.6693V2.67188H21.3359V8.00521H25.3359C26.0723 8.00521 26.6693 8.60217 26.6693 9.33854V18.6719C26.6693 21.6173 24.2814 24.0052 21.3359 24.0052H17.3359ZM10.6693 21.3385H21.3359C22.8087 21.3385 24.0026 20.1447 24.0026 18.6719V14.6719H8.0026V18.6719C8.0026 20.1447 9.19651 21.3385 10.6693 21.3385ZM24.0026 10.6719H8.0026V12.0052H24.0026V10.6719ZM16.0026 19.3385C15.2662 19.3385 14.6693 18.7416 14.6693 18.0052C14.6693 17.2688 15.2662 16.6719 16.0026 16.6719C16.739 16.6719 17.3359 17.2688 17.3359 18.0052C17.3359 18.7416 16.739 19.3385 16.0026 19.3385Z" fill="black"/>
</svg>
