<svg width="26" height="19" viewBox="0 0 26 19" fill="none" xmlns="http://www.w3.org/2000/svg">
<path d="M5.39841 18.3699C4.46157 18.3699 3.66616 18.0423 3.01217 17.3871C2.35819 16.7318 2.0312 15.9361 2.0312 15H0V2.46659C0 1.8603 0.210046 1.3471 0.630137 0.927012C1.05023 0.506921 1.56341 0.296875 2.16968 0.296875H18.5117V4.86711H21.6969L25.5747 10.0605V15H23.405C23.405 15.9361 23.0771 16.7318 22.4213 17.3871C21.7655 18.0423 20.9692 18.3699 20.0324 18.3699C19.0955 18.3699 18.3001 18.0423 17.6461 17.3871C16.9921 16.7318 16.6651 15.9361 16.6651 15H8.77108C8.77108 15.9387 8.44318 16.735 7.78738 17.389C7.1316 18.043 6.33527 18.3699 5.39841 18.3699ZM5.40114 16.5696C5.84124 16.5696 6.21286 16.418 6.516 16.1149C6.81915 15.8118 6.97072 15.4401 6.97072 15C6.97072 14.5599 6.81915 14.1883 6.516 13.8851C6.21286 13.582 5.84124 13.4304 5.40114 13.4304C4.96103 13.4304 4.5894 13.582 4.28625 13.8851C3.9831 14.1883 3.83153 14.5599 3.83153 15C3.83153 15.4401 3.9831 15.8118 4.28625 16.1149C4.5894 16.418 4.96103 16.5696 5.40114 16.5696ZM1.80036 13.1997H2.66824C2.92365 12.755 3.29257 12.3822 3.775 12.0813C4.25742 11.7805 4.79947 11.6301 5.40114 11.6301C5.98743 11.6301 6.52563 11.7786 7.01573 12.0756C7.50584 12.3726 7.87861 12.7473 8.13404 13.1997H16.7113V2.09724H2.16968C2.07736 2.09724 1.99272 2.1357 1.91577 2.21264C1.83883 2.2896 1.80036 2.37425 1.80036 2.46659V13.1997ZM20.0351 16.5696C20.4752 16.5696 20.8468 16.418 21.15 16.1149C21.4531 15.8118 21.6047 15.4401 21.6047 15C21.6047 14.5599 21.4531 14.1883 21.15 13.8851C20.8468 13.582 20.4752 13.4304 20.0351 13.4304C19.595 13.4304 19.2234 13.582 18.9202 13.8851C18.6171 14.1883 18.4655 14.5599 18.4655 15C18.4655 15.4401 18.6171 15.8118 18.9202 16.1149C19.2234 16.418 19.595 16.5696 20.0351 16.5696ZM18.5117 10.7992H23.8898L20.7737 6.66744H18.5117V10.7992Z" fill="#1C1B1F"/>
</svg>
