<svg width="20" height="20" viewBox="0 0 20 20" fill="none" xmlns="http://www.w3.org/2000/svg">
<path d="M9.99479 11.6693V13.3359C7.23337 13.3359 4.99479 15.5745 4.99479 18.3359H3.32812C3.32812 14.654 6.31289 11.6693 9.99479 11.6693ZM9.99479 10.8359C7.23229 10.8359 4.99479 8.59844 4.99479 5.83594C4.99479 3.07344 7.23229 0.835938 9.99479 0.835938C12.7573 0.835938 14.9948 3.07344 14.9948 5.83594C14.9948 8.59844 12.7573 10.8359 9.99479 10.8359ZM9.99479 9.16927C11.8365 9.16927 13.3281 7.6776 13.3281 5.83594C13.3281 3.99427 11.8365 2.5026 9.99479 2.5026C8.15312 2.5026 6.66146 3.99427 6.66146 5.83594C6.66146 7.6776 8.15312 9.16927 9.99479 9.16927ZM12.157 15.6789C12.1054 15.4619 12.0781 15.2354 12.0781 15.0026C12.0781 14.7699 12.1054 14.5434 12.1569 14.3264L11.3305 13.8494L12.1639 12.4059L12.9908 12.8834C13.3184 12.5735 13.7178 12.3388 14.1615 12.2067V11.2526H15.8281V12.2067C16.2718 12.3388 16.6711 12.5735 16.9987 12.8834L17.8257 12.4059L18.6591 13.8493L17.8327 14.3264C17.8842 14.5434 17.9115 14.7699 17.9115 15.0026C17.9115 15.2354 17.8842 15.4618 17.8327 15.6788L18.6591 16.1559L17.8258 17.5993L16.9988 17.1218C16.6712 17.4317 16.2719 17.6664 15.8282 17.7984V18.7526H14.1615V17.7985C13.7179 17.6665 13.3185 17.4318 12.9909 17.1219L12.164 17.5994L11.3305 16.1559L12.157 15.6789ZM14.9948 16.2526C15.6851 16.2526 16.2448 15.6929 16.2448 15.0026C16.2448 14.3123 15.6851 13.7526 14.9948 13.7526C14.3045 13.7526 13.7448 14.3123 13.7448 15.0026C13.7448 15.6929 14.3045 16.2526 14.9948 16.2526Z" fill="#343434"/>
</svg>
