<svg width="20" height="20" viewBox="0 0 20 20" fill="none" xmlns="http://www.w3.org/2000/svg">
<path d="M10.0001 14.1641C13.0521 14.1641 15.7209 15.4766 17.1727 17.4346L15.6377 18.1607C14.4562 16.7605 12.3729 15.8307 10.0001 15.8307C7.62723 15.8307 5.54393 16.7605 4.36249 18.1607L2.82812 17.4339C4.27997 15.4763 6.94847 14.1641 10.0001 14.1641ZM10.0001 1.66406C12.3012 1.66406 14.1668 3.52955 14.1668 5.83073V8.33073C14.1668 10.5714 12.3982 12.3989 10.1808 12.4936L10.0001 12.4974C7.69889 12.4974 5.83342 10.6319 5.83342 8.33073V5.83073C5.83342 3.5901 7.602 1.76255 9.81933 1.66791L10.0001 1.66406ZM10.0001 3.33073C8.66867 3.33073 7.58036 4.3715 7.50432 5.68384L7.50008 5.83073V8.33073C7.50008 9.71148 8.61933 10.8307 10.0001 10.8307C11.3315 10.8307 12.4198 9.78998 12.4958 8.47765L12.5001 8.33073V5.83073C12.5001 4.45002 11.3807 3.33073 10.0001 3.33073Z" fill="#343434"/>
</svg>
