<svg width="16" height="15" viewBox="0 0 16 15" fill="none" xmlns="http://www.w3.org/2000/svg">
<path d="M5.46873 14.4066L4.19921 12.2685L1.79379 11.7339L2.02765 9.26169L0.390625 7.39081L2.02765 5.51993L1.79379 3.04769L4.19921 2.51315L5.46873 0.375L7.74052 1.34385L10.0123 0.375L11.2818 2.51315L13.6873 3.04769L13.4534 5.51993L15.0904 7.39081L13.4534 9.26169L13.6873 11.7339L11.2818 12.2685L10.0123 14.4066L7.74052 13.4378L5.46873 14.4066ZM6.03668 12.7028L7.74052 11.9678L9.47777 12.7028L10.4132 11.0992L12.2507 10.6649L12.0836 8.79397L13.3198 7.39081L12.0836 5.95424L12.2507 4.08336L10.4132 3.68245L9.44436 2.07884L7.74052 2.81383L6.00327 2.07884L5.06783 3.68245L3.23036 4.08336L3.3974 5.95424L2.16128 7.39081L3.3974 8.79397L3.23036 10.6983L5.06783 11.0992L6.03668 12.7028ZM7.03894 9.76282L10.8141 5.98765L9.87867 5.0188L7.03894 7.85853L5.60237 6.45537L4.66693 7.39081L7.03894 9.76282Z" fill="#B12704"/>
</svg>
