<svg width="34" height="34" viewBox="0 0 34 34" fill="none" xmlns="http://www.w3.org/2000/svg">
<rect width="34" height="34" rx="17" fill="#EC402C"/>
<path d="M17.1524 12C17.4863 12.0018 18.3214 12.0099 19.2088 12.0455L19.5234 12.0592C20.4169 12.1015 21.3096 12.1737 21.7523 12.2972C22.3429 12.4631 22.8071 12.9472 22.9639 13.5608C23.2137 14.5353 23.245 16.4371 23.2489 16.8974L23.2494 16.9928V16.9994C23.2494 16.9994 23.2494 17.0017 23.2494 17.0062L23.2489 17.1016C23.245 17.5618 23.2137 19.4637 22.9639 20.4381C22.8049 21.054 22.3407 21.5381 21.7523 21.7017C21.3096 21.8252 20.4169 21.8974 19.5234 21.9398L19.2088 21.9534C18.3214 21.989 17.4863 21.9971 17.1524 21.9989L17.0059 21.9994H16.9994C16.9994 21.9994 16.9973 21.9994 16.9929 21.9994L16.8466 21.9989C16.1401 21.9951 13.1861 21.9631 12.2466 21.7017C11.656 21.5358 11.1918 21.0517 11.0349 20.4381C10.7851 19.4637 10.7539 17.5618 10.75 17.1016V16.8974C10.7539 16.4371 10.7851 14.5353 11.0349 13.5608C11.194 12.9449 11.6582 12.4608 12.2466 12.2972C13.1861 12.0358 16.1401 12.0039 16.8466 12H17.1524ZM15.7494 14.812V19.1869L19.4994 16.9994L15.7494 14.812Z" fill="white"/>
</svg>
