<svg xmlns="http://www.w3.org/2000/svg" width="797.995" height="359.999" viewBox="0 0 797.995 359.999">
  <g id="LG" transform="translate(0.999 0.999)">
    <g id="Group_1489" data-name="Group 1489">
      <path id="Path_3389" data-name="Path 3389" d="M135.04,0C60.6,2.695,2.885,61.57,0,135.34M144.28,0c62.585,2.575,115.965,45.09,131.05,106.24" fill="none" stroke="#d780a4" stroke-width="2"/>
      <path id="Path_3390" data-name="Path 3390" d="M407.415,212.48q-1.055.035-.88,1.015a1.081,1.081,0,0,1-.035.515c-.77,2.5-.125,3.6.115,5.965q.02.175.235.14a.245.245,0,0,1,.275.245,10.307,10.307,0,0,0,1.73,6.06.488.488,0,0,1,.07.355l-.86,4.47q-.05.245-.155.02l-.1-.21a.14.14,0,0,0-.265.075c.16,2.15.945,4.32,1.025,6.75.06,1.72-.465,4.44-.275,6.715a95.872,95.872,0,0,1-.11,9.955c-.035,1.62-.415,3.205-.605,4.85a26.028,26.028,0,0,1-.7,3.435c-.555,2.14-.48,4.43-.85,6.355q-.495,2.54-.93,5.09c-.455,2.64-1.575,5.465-2.05,8.31a5.261,5.261,0,0,1-.76,1.955c-1.385,2.185-1.8,4.375-2.82,6.675a31.683,31.683,0,0,0-2.055,5.635,25.426,25.426,0,0,1-4.045,8.7.984.984,0,0,0-.17.425,2.821,2.821,0,0,1-.445,1.18c-1.775,2.725-3.12,5.47-5.17,8.13a35.64,35.64,0,0,0-4.075,6.7c-.42.9-1.12,1.635-1.635,2.505a.888.888,0,0,1-.35.325,2.449,2.449,0,0,0-1.375,2.025.843.843,0,0,1-.19.44c-3.915,4.78-9.045,9.81-12.48,13.61q-4.21,4.65-8.52,9.2a.451.451,0,0,1-.365.15h-.175a.407.407,0,0,0-.25.085,37.1,37.1,0,0,0-2.95,2.45c-.68.625-1.45.78-2.11,1.55-1.92,2.23-5.115,3.09-7.45,5.03-.955.785-2.16,1.3-3.09,2.205a28.556,28.556,0,0,1-3.495,2.5q-.065.05-.085-.03a.206.206,0,0,0-.065-.12q-.045-.04-.155.005a62.607,62.607,0,0,0-8.4,4.355c-1.45.9-3.39,1.365-4.855,2.76-1.435,1.365-4.075,1.835-5.8,2.925a.885.885,0,0,1-.475.14c-1.735.025-3.235,1.025-4.36,1.39a57.834,57.834,0,0,1-7.16,2.01,16.988,16.988,0,0,0-2.75.605.065.065,0,0,0,0,.12l.26.08q.28.09-.005.17c-3.6,1.06-7.03,1.285-10.69,1.97a.936.936,0,0,1-.47-.03.936.936,0,0,0-.595-.045,14.962,14.962,0,0,1-7.11,1.105.738.738,0,0,0-.47.125,13.943,13.943,0,0,1-1.845,1.065c-1.385.67-6.745.565-8.4.32-3.965-.58-7.84.73-11.465,2.285" transform="translate(-132.085 -106.24)" fill="none" stroke="#a40244" stroke-width="2"/>
      <path id="Path_3391" data-name="Path 3391" d="M132.085,423.745c-40.56-1.68-79.6-22.95-103.86-55.125Q1.99,333.815,0,289.43" transform="translate(0 -144.715)" fill="none" stroke="#d780a4" stroke-width="2"/>
      <path id="Path_3392" data-name="Path 3392" d="M15.9,301.25q5.765,36.26,33.55,59.57a.285.285,0,0,0,.415-.38c-9.9-14.2-16.255-31.25-18.94-48.265" transform="translate(-7.95 -150.625)" fill="none" stroke="#c43b66" stroke-width="2"/>
      <path id="Path_3393" data-name="Path 3393" d="M45.95,323.1a15.9,15.9,0,0,1,1.015,3.365,106.025,106.025,0,0,0,10.6,29.615" transform="translate(-22.975 -161.55)" fill="none" stroke="#ab4e76" stroke-width="2"/>
      <path id="Path_3394" data-name="Path 3394" d="M69.18,389.06C85.375,419.7,114.705,443,148.945,450.045" transform="translate(-34.59 -194.53)" fill="none" stroke="#8a305a" stroke-width="2"/>
      <path id="Path_3395" data-name="Path 3395" d="M227.155,389.92a.834.834,0,0,0-.205.37q-.02.115.1.115h.135a.16.16,0,0,1,.12.275l-1.29,1.31a.205.205,0,0,0,0,.315l.79.9q.075.085-.035.1l-1.015.135q-.285.04-.01.13a3.217,3.217,0,0,0,1.435.04,16.4,16.4,0,0,1,5.07.23c.81.135,1.085.74,2.04.84a6.741,6.741,0,0,1,3.495,1.23,1.87,1.87,0,0,0,1.35.515.782.782,0,0,1,.41.06,7.349,7.349,0,0,0,5.7.1.6.6,0,0,1,.33-.025l2.825.6a.492.492,0,0,1,.33.25.373.373,0,0,0,.335.22,173.981,173.981,0,0,0,19.4-.575c5.265-.43,8.815-1.355,15.565-2.84a94.7,94.7,0,0,0,14.675-4.555,122.572,122.572,0,0,0,73.535-83.3c.5-1.9.685-4.125,1.27-6.23,1.3-4.635,1.435-8.95,1.865-13.685.14-1.545-.08-3.53.44-4.98a1.965,1.965,0,0,0,.12-.825,75.707,75.707,0,0,0-1.09-9.235,1.086,1.086,0,0,0-.52-.7,4.257,4.257,0,0,1-1.57-1.895" transform="translate(-112.8 -134.405)" fill="none" stroke="#a40244" stroke-width="2"/>
      <path id="Path_3396" data-name="Path 3396" d="M454.255,160.207l1.245.19a.305.305,0,0,0,.375-.23l.57-1.82a.493.493,0,0,0-.085-.465c-.875-1.08.145-2.92-.3-4.33-1.27-4.07-1.835-8.26-3.085-12.275-1.37-4.415-1.845-8.56-2.96-12.82-.725-2.78-.12-5.605-1.8-8.815a6.2,6.2,0,0,1-.65-2.045,28.179,28.179,0,0,0-2.05-6.32c-1.045-2.73-2.785-4.94-3.895-7.715A25.518,25.518,0,0,0,439.42,100q-2.66-4.49-5.475-8.94a.508.508,0,0,0-.4-.24q-.775-.045-.46-.885a.472.472,0,0,0-.1-.51q-5.68-6.365-11.34-12.75c-.93-1.045-2.28-1.92-3.25-3.125l-2.1-2.61c-2.32-2.53-4.3-5.525-6.73-7.63a58.352,58.352,0,0,0-6.8-5.06c-1.8-1.15-3.135-2.855-5.32-3.79-2.21-.945-3.255-2.465-5.92-2.54-1.01-.03-2.25-.725-2.91.04" transform="translate(-194.31 -25.802)" fill="none" stroke="#b8014a" stroke-width="2"/>
      <path id="Path_3397" data-name="Path 3397" d="M374.92,43.705a93.6,93.6,0,0,0-13.7-8.615" transform="translate(-180.61 -17.545)" fill="none" stroke="#c23462" stroke-width="2"/>
      <path id="Path_3398" data-name="Path 3398" d="M332.81,25.725A98.31,98.31,0,0,0,304.4,16.36" transform="translate(-152.2 -8.18)" fill="none" stroke="#c43b66" stroke-width="2"/>
      <path id="Path_3399" data-name="Path 3399" d="M158.932,14.841C78.752,1.571,2.882,77.436,14.682,157.286" transform="translate(-6.732 -6.661)" fill="none" stroke="#c84a72" stroke-width="2"/>
      <path id="Path_3400" data-name="Path 3400" d="M294.675,16.36a3.539,3.539,0,0,0-1.275,1.13,46.263,46.263,0,0,1-5.825,6.81.05.05,0,0,0,.015.085q.07.025.145.045.215.05.035.175l-1.79,1.3a.546.546,0,0,0-.225.385,1.863,1.863,0,0,1-.625,1.205.507.507,0,0,0-.18.4l.005.955a.172.172,0,0,0,.21.195q.465-.04.56.22" transform="translate(-142.475 -8.18)" fill="none" stroke="#dd8390" stroke-width="2"/>
      <path id="Path_3401" data-name="Path 3401" d="M164.285,42.044c-3.93-.375-8.51.135-11.66.24a81.52,81.52,0,0,0-10.24,1.025c-51.15,8.22-91.99,49.285-99.265,100.81-.62,4.4-.725,9.6-1.05,14.42" transform="translate(-21.035 -20.954)" fill="none" stroke="#cea5ae" stroke-width="2"/>
      <path id="Path_3402" data-name="Path 3402" d="M41.99,275.17l-.08,2.865" transform="translate(-20.955 -137.585)" fill="none" stroke="#c497a0" stroke-width="2"/>
      <path id="Path_3403" data-name="Path 3403" d="M28.9,280.39a1.318,1.318,0,0,0-1.03-.51.64.64,0,0,0-.42.14c-3.975,3.115-6.835,7.22-10.955,10.125q-.08-.345-.6.42" transform="translate(-7.95 -139.94)" fill="none" stroke="#dd8390" stroke-width="2"/>
      <path id="Path_3404" data-name="Path 3404" d="M294.245,35.09a13.5,13.5,0,0,1-3.12,4.095A14.706,14.706,0,0,0,289.2,41.19c-2.12,2.74-4.62,4.975-6.73,7.94a36.827,36.827,0,0,1-6.79,7.18c-1.395,1.035-2.11,2.63-3.385,3.835-1.765,1.665-3.15,3.49-5.005,5.165-2.21,1.99-3.9,3.87-7.1,6.475-2.79,2.28-4.915,5.2-7.915,7.47-1.03.785-1.9,3.11-3.065,3.285a.947.947,0,0,0-.435.18c-1.525,1.13-2.61,2.525-4.05,3.745a27.941,27.941,0,0,0-2.62,2.485q-4.2,4.705-8.78,9.045a6.033,6.033,0,0,0-1.29,1.845,16.52,16.52,0,0,1-2.58,3.96.586.586,0,0,1-.23.17l-1.96.86" transform="translate(-113.635 -17.545)" fill="none" stroke="#d76e80" stroke-width="2"/>
      <path id="Path_3405" data-name="Path 3405" d="M220.54,168.105a19.717,19.717,0,0,0-6.73-6.465" transform="translate(-106.905 -80.82)" fill="none" stroke="#c43b66" stroke-width="2"/>
      <path id="Path_3406" data-name="Path 3406" d="M183.618,157.373a28.108,28.108,0,0,0-7.43-3.695,16.437,16.437,0,0,0-11.345,1.065c-10.315,4.49-13.935,15.135-9.65,25.29" transform="translate(-76.713 -76.553)" fill="none" stroke="#ca96a2" stroke-width="2"/>
      <path id="Path_3407" data-name="Path 3407" d="M156.96,206.96a21.34,21.34,0,0,0,8.76,11.02" transform="translate(-78.48 -103.48)" fill="none" stroke="#c43b66" stroke-width="2"/>
      <path id="Path_3408" data-name="Path 3408" d="M126.7,229a48.77,48.77,0,0,1-5.795,6.57q-1.735,1.64-3.35,3.4c-.46.5-.68,1.255-1.29,1.69-2.685,1.9-5.145,5.04-7.32,7.535-.895,1.025-2.04,1.525-2.97,2.5q-2.925,3.055-5.665,6.27c-.295.345-1.255.585-1.68,1.04a76.381,76.381,0,0,1-7.815,7.765c-1.63,1.3-2.5,3.41-4.345,4.42a.753.753,0,0,0-.335.355c-.555,1.225-.825,2.6-1.795,3.515a11.663,11.663,0,0,1-2.61,1.87c-.495.26-1.24.2-1.765.83a.172.172,0,0,1-.26.03l-.235-.17a.073.073,0,0,0-.062-.011.062.062,0,0,0-.043.041l-.06.2a.035.035,0,0,1-.07-.005q-.08-.37-.31-.445" transform="translate(-39.465 -114.5)" fill="none" stroke="#d76e80" stroke-width="2"/>
      <path id="Path_3409" data-name="Path 3409" d="M77.2,183.585c-11.06-61.38,32.215-118.06,94.28-123.34,5.045-.43,10.8-.33,16.175-.295a.448.448,0,0,0,.45-.445q.02-5.385-.005-10.825c-.015-2.855-1.475-3.69-3.475-5.3" transform="translate(-37.737 -21.69)" fill="none" stroke="#d25a74" stroke-width="2"/>
      <path id="Path_3410" data-name="Path 3410" d="M292.615,43.38a2.236,2.236,0,0,0-1.165.595" transform="translate(-145.725 -21.69)" fill="none" stroke="#845461" stroke-width="2"/>
      <path id="Path_3411" data-name="Path 3411" d="M288.975,43.342q.315-.545.155-.655a3.779,3.779,0,0,0-2.63-.54" transform="translate(-143.25 -21.057)" fill="none" stroke="#ca96a2" stroke-width="2"/>
      <path id="Path_3412" data-name="Path 3412" d="M291,44.57l-.45,1.215" transform="translate(-145.275 -22.285)" fill="none" stroke="#76767f" stroke-width="2"/>
      <path id="Path_3413" data-name="Path 3413" d="M167.965,46.049a1,1,0,0,0-1.03-.875q-2.845-.155-8.025,0A117.159,117.159,0,0,0,45.38,160.549" transform="translate(-22.69 -22.549)" fill="none" stroke="#dddce0" stroke-width="2"/>
      <path id="Path_3414" data-name="Path 3414" d="M43.725,275.357a1.084,1.084,0,0,0-1.655-.415" transform="translate(-21.035 -137.357)" fill="none" stroke="#b1aab2" stroke-width="2"/>
      <path id="Path_3415" data-name="Path 3415" d="M70.13,386.15l-.2.13a.308.308,0,0,0-.14.3,1.088,1.088,0,0,1-.615,1.02" transform="translate(-34.59 -193.075)" fill="none" stroke="#867d88" stroke-width="2"/>
      <path id="Path_3416" data-name="Path 3416" d="M43.93,302q-.38-4.065-1.035-8.085a58.328,58.328,0,0,1-.735-6.48q-.16-3.38-.25-6.535" transform="translate(-20.955 -140.45)" fill="none" stroke="#c08894" stroke-width="2"/>
      <path id="Path_3417" data-name="Path 3417" d="M213.81,161.64a21.538,21.538,0,0,1,4.545,6.385" transform="translate(-106.905 -80.82)" fill="none" stroke="#b55d84" stroke-width="2"/>
      <path id="Path_3418" data-name="Path 3418" d="M218.675,169.95l-3.615-4.35a.221.221,0,0,0-.37-.02.754.754,0,0,0-.24.53" transform="translate(-107.225 -82.745)" fill="none" stroke="#76767f" stroke-width="2"/>
      <path id="Path_3419" data-name="Path 3419" d="M185.36,161.536c-14.31-13.83-36.11,2.39-26.885,20.175" transform="translate(-78.135 -78.171)" fill="none" stroke="#dddce0" stroke-width="2"/>
      <path id="Path_3420" data-name="Path 3420" d="M160.661,207.08a2.636,2.636,0,0,0,.815,2.1.735.735,0,0,1,.155.28,1.411,1.411,0,0,1-.11,1.215" transform="translate(-80.321 -103.54)" fill="none" stroke="#76767f" stroke-width="2"/>
      <path id="Path_3421" data-name="Path 3421" d="M159.68,210.61l-2.72-3.65" transform="translate(-78.48 -103.48)" fill="none" stroke="#b55d84" stroke-width="2"/>
      <path id="Path_3422" data-name="Path 3422" d="M162.4,194.335a18.161,18.161,0,0,0,16.205,5.8A17.646,17.646,0,0,0,193.86,186.5c.825-3.61.635-8.6-1.21-12.09" transform="translate(-81.2 -87.205)" fill="none" stroke="#701a43" stroke-width="2"/>
      <path id="Path_3423" data-name="Path 3423" d="M388.62,52.32l2.39,1.875" transform="translate(-194.31 -26.16)" fill="none" stroke="#cb3464" stroke-width="2"/>
      <path id="Path_3424" data-name="Path 3424" d="M343.455,56.07q-1.38,1.4-2.73,2.81-1.41,1.465-2.865,2.875c-3.83,3.705-7.265,7.765-11.145,11.44-2.6,2.46-5.11,5.34-7.815,7.875-3.215,3.015-6.22,6.52-9.66,9.475-1.29,1.105-1.665,2.61-3.87,2.55a.64.64,0,0,0-.455.17,101.585,101.585,0,0,0-8.77,9.08.185.185,0,0,0,.21.3l1.6-.64q.25-.1.07.1c-1.11,1.225-1.755,2.48-3.255,3.33a.257.257,0,0,1-.37-.075.732.732,0,0,0-.89-.295" transform="translate(-146.755 -28.035)" fill="none" stroke="#d35f75" stroke-width="2"/>
      <path id="Path_3425" data-name="Path 3425" d="M293.3,154.023a.329.329,0,0,0-.215-.015" transform="translate(-146.54 -76.998)" fill="none" stroke="#834d5c" stroke-width="2"/>
      <path id="Path_3426" data-name="Path 3426" d="M279.165,153.4a.964.964,0,0,0-.82-.51q-6.01.06-12.01-.105a1.329,1.329,0,0,0-.585.105,1.044,1.044,0,0,0-.5.35" transform="translate(-132.625 -76.394)" fill="none" stroke="#be8190" stroke-width="2"/>
      <path id="Path_3427" data-name="Path 3427" d="M265.225,153.7l-.025,30.78" transform="translate(-132.6 -76.85)" fill="none" stroke="#c8909e" stroke-width="2"/>
      <path id="Path_3428" data-name="Path 3428" d="M180.3,209.994l-.145-3.2a.676.676,0,0,0-.235-.49,2.245,2.245,0,0,1-.645-.98.87.87,0,0,0-1.665.045l-.52,1.88a.535.535,0,0,1-.3.345,5.764,5.764,0,0,0-2.1,1.635,38.842,38.842,0,0,1-6.51,5.99,3.212,3.212,0,0,0-.88,1.72c-.895,3.29-5.225,6.02-7.38,8.325-3.915,4.19-8.175,8.025-11.98,12.22-.73.8-1.745,1.54-2.53,2.475a45.619,45.619,0,0,1-5.975,6.135,14.264,14.264,0,0,0-1.69,1.575c-1.655,1.81-3.09,3.245-4.66,4.86-.21.22-.64.265-.885.53q-3.42,3.65-6.87,7.275c-1.25,1.315-3.3,2.71-4.61,4.555a.2.2,0,0,1-.135.085,1.077,1.077,0,0,0-.12.025.327.327,0,0,0-.165.1c-2.735,3.165-4.885,4.765-7.075,7.15-.91.985-2.08,1.655-2.96,2.605-3.345,3.6-7.5,6.6-10.53,10.4-.95,1.2-2.115,1.685-2.955,2.6a1.35,1.35,0,0,1-.305.245,2.292,2.292,0,0,0-1.07,1.79" transform="translate(-47.705 -102.364)" fill="none" stroke="#d35f75" stroke-width="2"/>
      <path id="Path_3429" data-name="Path 3429" d="M87.17,349.425a102.81,102.81,0,0,1-8.24-25.635" transform="translate(-39.465 -161.895)" fill="none" stroke="#d0546f" stroke-width="2"/>
      <path id="Path_3430" data-name="Path 3430" d="M174.48,201.785q9.795,4.97,18.545.56a19.418,19.418,0,0,0,7.85-27.775" transform="translate(-87.24 -87.285)" fill="none" stroke="#c23462" stroke-width="2"/>
      <path id="Path_3431" data-name="Path 3431" d="M293.185,43.38c-.945,3.21-.4,8.24-.385,11.67a.966.966,0,0,0,.075.375q.18.415-.285.935" transform="translate(-146.295 -21.69)" fill="none" stroke="#7e3a50" stroke-width="2"/>
      <path id="Path_3432" data-name="Path 3432" d="M291.565,68.03a2.061,2.061,0,0,1-1.025-1.31" transform="translate(-145.27 -33.36)" fill="none" stroke="#4a4954" stroke-width="2"/>
      <path id="Path_3433" data-name="Path 3433" d="M290.54,56.86l.005-9.86" transform="translate(-145.27 -23.5)" fill="none" stroke="#98999e" stroke-width="2"/>
      <path id="Path_3434" data-name="Path 3434" d="M95.41,375.06l3.175,6.87" transform="translate(-47.705 -187.53)" fill="none" stroke="#ce4b69" stroke-width="2"/>
      <path id="Path_3435" data-name="Path 3435" d="M85.988,263.65a31.652,31.652,0,0,1-3.235-4.93c-21.11-39.81-15.115-86.685,14.615-120.22" transform="translate(-35.108 -69.25)" fill="none" stroke="#7e3a50" stroke-width="2"/>
      <path id="Path_3436" data-name="Path 3436" d="M124.52,103.92a105.184,105.184,0,0,1,34.15-24.795c.6-.27,1.125-.1,1.6-.3a109.717,109.717,0,0,1,45.49-8.655,20.474,20.474,0,0,0,2.9-.06q.315-.035.235-.345a.76.76,0,0,0-.34-.425" transform="translate(-62.26 -34.67)" fill="none" stroke="#985067" stroke-width="2"/>
      <path id="Path_3437" data-name="Path 3437" d="M206.59,66.72q0,.49-.9.46c-31.9-1.125-61.365,11.01-83.05,34.47" transform="translate(-61.32 -33.36)" fill="none" stroke="#b2afb5" stroke-width="2"/>
      <path id="Path_3438" data-name="Path 3438" d="M95.033,136.58c-48.7,53.515-30.465,138.15,35.035,167.96" transform="translate(-33.713 -68.29)" fill="none" stroke="#98999e" stroke-width="2"/>
      <path id="Path_3439" data-name="Path 3439" d="M192.71,452.4A105.6,105.6,0,0,0,308.8,432.31" transform="translate(-96.355 -216.155)" fill="none" stroke="#d3cdd2" stroke-width="2"/>
      <path id="Path_3440" data-name="Path 3440" d="M424.9,361.9a105.824,105.824,0,0,0,32.69-69.585.366.366,0,0,0-.17-.35q-.315-.21-.24-.48" transform="translate(-212.45 -145.74)" fill="none" stroke="#dddce0" stroke-width="2"/>
      <path id="Path_3441" data-name="Path 3441" d="M489.46,291.16a.436.436,0,0,0,.15-.32" transform="translate(-244.73 -145.42)" fill="none" stroke="#b2afb5" stroke-width="2"/>
      <path id="Path_3442" data-name="Path 3442" d="M305.115,290.4q1.065-.65,1.64-.34a.445.445,0,0,1,.225.41c-1.825,29.455-14.47,56.74-36.88,75.8-38.715,32.93-93.7,33.86-134.215,3.625a.7.7,0,0,0-.5-.145,5.587,5.587,0,0,0-2.075.6.713.713,0,0,1-.47.055,19.684,19.684,0,0,0-8.23-.22.675.675,0,0,1-.5-.1,2.679,2.679,0,0,0-3.64.34" transform="translate(-60.235 -144.98)" fill="none" stroke="#dce2e5" stroke-width="2"/>
      <path id="Path_3443" data-name="Path 3443" d="M95.775,418.51A115.772,115.772,0,0,1,71.08,386.15" transform="translate(-35.54 -193.075)" fill="none" stroke="#b2afb5" stroke-width="2"/>
      <path id="Path_3444" data-name="Path 3444" d="M58.221,331.075A116.372,116.372,0,0,1,45.371,276" transform="translate(-22.681 -138)" fill="none" stroke="#d3cdd2" stroke-width="2"/>
      <path id="Path_3445" data-name="Path 3445" d="M187.565,166.73a16.4,16.4,0,0,1,4.51,9.885c1.6,17.925-21.485,25.59-31.4,10.29" transform="translate(-80.34 -83.365)" fill="none" stroke="#98999e" stroke-width="2"/>
      <path id="Path_3446" data-name="Path 3446" d="M293.335,154.87a1.085,1.085,0,0,0-.375.69q.1,55,.035,110,0,.155.15.135" transform="translate(-146.48 -77.435)" fill="none" stroke="#701a43" stroke-width="2"/>
      <path id="Path_3447" data-name="Path 3447" d="M292.535,376.52l-.795,1.08" transform="translate(-145.87 -188.26)" fill="none" stroke="#6c6771" stroke-width="2"/>
      <path id="Path_3448" data-name="Path 3448" d="M291.13,267.67a.74.74,0,0,1-.355.2q-.25.05-.25-.2l-.005-111" transform="translate(-145.26 -78.33)" fill="none" stroke="#98999e" stroke-width="2"/>
      <path id="Path_3449" data-name="Path 3449" d="M368.74,105.88a5.288,5.288,0,0,0-3.685,2.515,13.782,13.782,0,0,1-1.675,2.04c-2.14,2.07-3.445,5.22-5.865,6.785a.253.253,0,0,0-.125.225v.235a.211.211,0,0,1-.23.235.749.749,0,0,0-.65.345,9.5,9.5,0,0,1-2.48,2.435,15.946,15.946,0,0,0-5.69,5.32q-.025.035.02.045a.123.123,0,0,1,.045.01q.09.03.025.11a15.693,15.693,0,0,1-3.8,2.86,12.994,12.994,0,0,0-4.79,5.16c-.99,1.79-2.99,3.09-4.34,4.68-2.35,2.77-5.525,5.055-7.85,7.815-1.07,1.27-2.45,2.22-3.525,3.5-2.3,2.735-5.33,4.305-7.62,7.155a15.173,15.173,0,0,1-3.59,3.235c-1.18.77-1.745,1.8-2.8,2.69-1.985,1.665-3.175,3.455-5.575,4.69a.7.7,0,0,1-.435.07q-1.21-.19-1.35,1.145a.278.278,0,0,1-.129.2.267.267,0,0,1-.236.023.713.713,0,0,1-.46-.72q-.035-.91-.045-1.815,0-.03-.02-.03h-.03a.053.053,0,0,0-.055.05q.015,1.465-.04,2.925a21.652,21.652,0,0,1-.2,4.525.2.2,0,0,1-.365.035l-.14-.32" transform="translate(-150.515 -52.94)" fill="none" stroke="#ce4b69" stroke-width="2"/>
      <path id="Path_3450" data-name="Path 3450" d="M297.37,198.555q-.085-18.74-.14-37.495a6.8,6.8,0,0,0-3.52-6.19" transform="translate(-146.855 -77.435)" fill="none" stroke="#c02c5c" stroke-width="2"/>
      <path id="Path_3451" data-name="Path 3451" d="M293.61,154.46a.4.4,0,0,0-.1-.41" transform="translate(-146.755 -77.025)" fill="none" stroke="#804556" stroke-width="2"/>
      <path id="Path_3452" data-name="Path 3452" d="M517.975,267.065a4.087,4.087,0,0,0-1.915-1.745" transform="translate(-258.03 -132.66)" fill="none" stroke="#ad0146" stroke-width="2"/>
      <path id="Path_3453" data-name="Path 3453" d="M486.62,265.3l-29.44-.025" transform="translate(-228.59 -132.635)" fill="none" stroke="#b44e78" stroke-width="2"/>
      <path id="Path_3454" data-name="Path 3454" d="M446.815,185.575q1.65-9.465,2.215-13.6c3.1-22.785-.89-46.1-12.58-66.09" transform="translate(-218.225 -52.94)" fill="none" stroke="#c62058" stroke-width="2"/>
      <path id="Path_3455" data-name="Path 3455" d="M414.925,80.975A94.519,94.519,0,0,0,393.4,56.07" transform="translate(-196.7 -28.035)" fill="none" stroke="#c92b5e" stroke-width="2"/>
      <path id="Path_3456" data-name="Path 3456" d="M291.8,154.02l-1.28,1.32" transform="translate(-145.26 -77.01)" fill="none" stroke="#6c6771" stroke-width="2"/>
      <path id="Path_3457" data-name="Path 3457" d="M279.365,156.6l-11.155-.06" transform="translate(-134.105 -78.27)" fill="none" stroke="#d3cdd2" stroke-width="2"/>
      <path id="Path_3458" data-name="Path 3458" d="M266.73,155.12l-1.48-1.42" transform="translate(-132.625 -76.85)" fill="none" stroke="#b1aab2" stroke-width="2"/>
      <path id="Path_3459" data-name="Path 3459" d="M267.253,156.525a.222.222,0,0,0-.2.025.363.363,0,0,0-.2.345q.25,22.54-.265,45.08-.205,8.855.4,38.87c.165,7.97-1.22,16.16-.475,24.395a89.826,89.826,0,0,1,.19,13.61.362.362,0,0,0,.2.315" transform="translate(-133.148 -78.255)" fill="none" stroke="#dddce0" stroke-width="2"/>
      <path id="Path_3460" data-name="Path 3460" d="M266.6,401.82a3.665,3.665,0,0,0-.92,1.275" transform="translate(-132.84 -200.91)" fill="none" stroke="#908c96" stroke-width="2"/>
      <path id="Path_3461" data-name="Path 3461" d="M265.365,404.23l-.315-.14" transform="translate(-132.525 -202.045)" fill="none" stroke="#be5c86" stroke-width="2"/>
      <path id="Path_3462" data-name="Path 3462" d="M264.983,346.41q-.07-2.07.185-7.045.46-8.92-.185-28.5-.2-6.275.22-22.135" transform="translate(-132.458 -144.365)" fill="none" stroke="#c37c92" stroke-width="2"/>
      <path id="Path_3463" data-name="Path 3463" d="M265.234,251.995q-.31-9.19-.245-18.4c.005-.72.21-1.545.22-2.335q.085-8-.12-15.995" transform="translate(-132.489 -107.63)" fill="none" stroke="#c68798" stroke-width="2"/>
      <path id="Path_3464" data-name="Path 3464" d="M196.355,284.626a8.167,8.167,0,0,0-1.135-3.73.78.78,0,0,0-1.335.005,7.434,7.434,0,0,0-.865,2.215,9.717,9.717,0,0,1-1.54,3.345.347.347,0,0,1-.325.175q-.08,0-.16-.005a.483.483,0,0,0-.345.115,35.775,35.775,0,0,0-4.9,4.405c-3.455,4.545-7.85,8.005-11.175,11.945q-.915,1.085-1.41,1.575a1.529,1.529,0,0,0-.3.435,7.223,7.223,0,0,1-3.1,3.365,1.467,1.467,0,0,0-.355.285l-9.58,10.355a.459.459,0,0,1-.35.15h-.225a.112.112,0,0,0-.125.115q-.015.11-.03.205a.63.63,0,0,1-.11.275c-1.4,2-3.435,3.49-4.91,5.135-1.38,1.54-2.955,2.74-4.26,4.335a8.677,8.677,0,0,1-1.765,1.74c-1.93,1.27-2.66,3.075-4.685,4.465-1.3.9-2.52,2.55-4.025,3.77-2.475,2-4.205,4.06-7.265,6.365a50.986,50.986,0,0,0-4.67,4.63.6.6,0,0,0-.18.415l-.01.785" transform="translate(-63.61 -140.261)" fill="none" stroke="#ce4b69" stroke-width="2"/>
      <path id="Path_3465" data-name="Path 3465" d="M123.58,137.54q-.04-.415-.94-.96" transform="translate(-61.32 -68.29)" fill="none" stroke="#4a4954" stroke-width="2"/>
      <path id="Path_3466" data-name="Path 3466" d="M101.76,388.8a98.626,98.626,0,0,0,12.73,16.835" transform="translate(-50.88 -194.4)" fill="none" stroke="#804556" stroke-width="2"/>
      <path id="Path_3467" data-name="Path 3467" d="M127.22,422.47c7.255,7.72,16.41,15.43,26.01,19.725" transform="translate(-63.61 -211.235)" fill="none" stroke="#7e3a50" stroke-width="2"/>
      <path id="Path_3468" data-name="Path 3468" d="M179.24,461.92l.62.615" transform="translate(-89.62 -230.96)" fill="none" stroke="#791a45" stroke-width="2"/>
      <path id="Path_3469" data-name="Path 3469" d="M180.48,463.15a2.881,2.881,0,0,0,2.255,1.445,12.065,12.065,0,0,1,2.92,1.465,2.088,2.088,0,0,1,.94,1.765" transform="translate(-90.24 -231.575)" fill="none" stroke="#6c6771" stroke-width="2"/>
      <path id="Path_3470" data-name="Path 3470" d="M202.96,401.592c-30.915.535-59.76-10.02-82.49-31.04m184.645-80.015q0-.12-.17-.21a.485.485,0,0,0-.245-.055q-16.29-.05-32.6-.035" transform="translate(-60.235 -145.117)" fill="none" stroke="#8f929b" stroke-width="2"/>
      <path id="Path_3471" data-name="Path 3471" d="M423.74,279.155c1.635-.145,5.325.26,6.59-.48a.326.326,0,0,0,.165-.355,1.354,1.354,0,0,1,.755-1.545.3.3,0,0,0,.16-.375,2.01,2.01,0,0,1,1.36-2.7q.1-.04.1.07,0,.065-.005.14-.05.585.175-.01c.24-.64.9-1.98.435-2.58q-.095-.125.055-.165a6.952,6.952,0,0,1,1.475-.4,268.3,268.3,0,0,0,32.555-2.15.2.2,0,0,0,.185-.275.386.386,0,0,0-.25-.265" transform="translate(-211.87 -134.035)" fill="none" stroke="#dce2e5" stroke-width="2"/>
      <path id="Path_3472" data-name="Path 3472" d="M488.4,291.48a1.383,1.383,0,0,0-1.055,1.145" transform="translate(-243.675 -145.74)" fill="none" stroke="#908c96" stroke-width="2"/>
      <path id="Path_3473" data-name="Path 3473" d="M415.6,293.7a.69.69,0,0,0-.66.21.151.151,0,0,1-.225.05l-.4-.24a.62.62,0,0,0-.34-.09c-26.935.34-46.74.03-70.125.065" transform="translate(-171.925 -146.815)" fill="none" stroke="#7f3156" stroke-width="2"/>
      <path id="Path_3474" data-name="Path 3474" d="M343.69,293.415l-.16-.345" transform="translate(-171.765 -146.535)" fill="none" stroke="#93305c" stroke-width="2"/>
      <path id="Path_3475" data-name="Path 3475" d="M424.31,430.765q-.105-1.32-.59-1.545" transform="translate(-211.86 -214.61)" fill="none" stroke="#b1aab2" stroke-width="2"/>
      <path id="Path_3476" data-name="Path 3476" d="M423.72,374.02a104.736,104.736,0,0,0,30.1-55.2" transform="translate(-211.86 -159.41)" fill="none" stroke="#be5c86" stroke-width="2"/>
      <path id="Path_3477" data-name="Path 3477" d="M483.92,306.3a108.06,108.06,0,0,0,1.715-12.525" transform="translate(-241.96 -146.885)" fill="none" stroke="#aa5d80" stroke-width="2"/>
      <path id="Path_3478" data-name="Path 3478" d="M300.615,513.035c-1.325.065-2.54.41-3.87.43a18.33,18.33,0,0,0-3.785.455c-.51.115-1.065-.3-1.635-.27-1.625.085-3.29-.02-4.9.165q-.775.085-.975-.865" transform="translate(-142.725 -256.475)" fill="none" stroke="#4a4954" stroke-width="2"/>
      <path id="Path_3479" data-name="Path 3479" d="M285.45,390.29A116.967,116.967,0,0,0,399.095,278.435q.145-3.105.17-10.8" transform="translate(-142.725 -133.815)" fill="none" stroke="#757c84" stroke-width="2"/>
      <path id="Path_3480" data-name="Path 3480" d="M228.71,511.03a139.847,139.847,0,0,0,16.4,2.46q4.755.3,16.835-.015a84.222,84.222,0,0,0,10.57-1.2q.39-.06,0-.115a.714.714,0,0,1-.27-.09" transform="translate(-114.355 -255.515)" fill="none" stroke="#7f3156" stroke-width="2"/>
      <path id="Path_3481" data-name="Path 3481" d="M315.78,390.15q4.1-.875,8.21-1.8a117.9,117.9,0,0,0,22.16-7.36,120.833,120.833,0,0,0,22.535-13.375c19.57-15.22,34.43-35.285,41.6-59.14,3.31-11.01,5.365-21.575,5.08-33.19-.045-1.945.4-4.015-.325-6.005a.648.648,0,0,1,.02-.49,1.3,1.3,0,0,0-.2-1.61" transform="translate(-157.89 -133.59)" fill="none" stroke="#651b3f" stroke-width="2"/>
      <path id="Path_3482" data-name="Path 3482" d="M300.81,335.25l.18,20.515" transform="translate(-150.405 -167.625)" fill="none" stroke="#b8014a" stroke-width="2"/>
      <path id="Path_3483" data-name="Path 3483" d="M297.25,376.28l-3.92.12" transform="translate(-146.665 -188.14)" fill="none" stroke="#ab4e76" stroke-width="2"/>
      <path id="Path_3484" data-name="Path 3484" d="M347.425,376.38l-1.395,1.6" transform="translate(-173.015 -188.19)" fill="none" stroke="#6c6771" stroke-width="2"/>
      <path id="Path_3485" data-name="Path 3485" d="M291.74,378.68l.45.22a.473.473,0,0,0,.175.045l26.52.185" transform="translate(-145.87 -189.34)" fill="none" stroke="#d3cdd2" stroke-width="2"/>
      <path id="Path_3486" data-name="Path 3486" d="M346.025,379.58l-.005,10.97" transform="translate(-173.01 -189.79)" fill="none" stroke="#98999e" stroke-width="2"/>
      <path id="Path_3487" data-name="Path 3487" d="M306.77,401.52l-38.7.02a.88.88,0,0,0-.28.045l-.27.085" transform="translate(-133.76 -200.76)" fill="none" stroke="#b2afb5" stroke-width="2"/>
      <path id="Path_3488" data-name="Path 3488" d="M400.12,265.27l-56.26.02a1.292,1.292,0,0,0-.475.09l-.325.12" transform="translate(-171.53 -132.635)" fill="none" stroke="#b96e84" stroke-width="2"/>
      <path id="Path_3489" data-name="Path 3489" d="M343.06,265.73l.015,13.635" transform="translate(-171.53 -132.865)" fill="none" stroke="#c37c92" stroke-width="2"/>
      <path id="Path_3490" data-name="Path 3490" d="M321.95,293l-5.73,5.215a.318.318,0,0,0-.04.43q.67.85,0,1.37c-2.12,1.655-4.085,4.12-6.425,5.315a.605.605,0,0,0-.295.34,7.24,7.24,0,0,1-3.1,4.01c-1.26.78-1.685,2.6-3.025,2.735a.753.753,0,0,0-.71.814.851.851,0,0,0,.825.781q.04,0,.14.115a.245.245,0,0,1,.005.325l-.885,1.02q-.22.255-.395-.035l-.545-.92a.414.414,0,0,0-.265-.2q-.26-.065-.35.06-.16.225-.245-.08-.04-.14-.1-.17" transform="translate(-150.405 -146.5)" fill="none" stroke="#c62058" stroke-width="2"/>
      <path id="Path_3491" data-name="Path 3491" d="M300.81,288.745l.11-46.505" transform="translate(-150.405 -121.12)" fill="none" stroke="#bd2156" stroke-width="2"/>
      <path id="Path_3492" data-name="Path 3492" d="M514.995,265.32l-1.065.93" transform="translate(-256.965 -132.66)" fill="none" stroke="#a04f72" stroke-width="2"/>
      <path id="Path_3493" data-name="Path 3493" d="M513.505,267.18q-.24.355-.425.225" transform="translate(-256.54 -133.59)" fill="none" stroke="#6c6771" stroke-width="2"/>
      <path id="Path_3494" data-name="Path 3494" d="M512.165,267.611q-.13-.085-.915.22" transform="translate(-255.625 -133.796)" fill="none" stroke="#b0b0b7" stroke-width="2"/>
      <path id="Path_3495" data-name="Path 3495" d="M429.26,268.07c-27.335.28-54.66.215-81.99.21" transform="translate(-173.635 -134.035)" fill="none" stroke="#d3cdd2" stroke-width="2"/>
      <path id="Path_3496" data-name="Path 3496" d="M345.165,267.11q-1.335-.185-1.59-1.145a.277.277,0,0,0-.285-.225q-.095,0-.23-.01" transform="translate(-171.53 -132.865)" fill="none" stroke="#b1aab2" stroke-width="2"/>
      <path id="Path_3497" data-name="Path 3497" d="M343.85,293.76q2.215,3.92,6.075,3.98,10.39.165,35.72-.095c2.575-.025,5.665.25,8.495.2,6.52-.1,13.08-.025,19.465.085q1.315.02.965,1.29a34.992,34.992,0,0,0-1.1,6.21.4.4,0,0,0,.15.36.826.826,0,0,1,.265.495" transform="translate(-171.925 -146.88)" fill="none" stroke="#ad0146" stroke-width="2"/>
      <path id="Path_3498" data-name="Path 3498" d="M302.1,429.22c-33.505,31.47-80.62,37.895-121.62,16.965" transform="translate(-90.24 -214.61)" fill="none" stroke="#b44e78" stroke-width="2"/>
      <path id="Path_3499" data-name="Path 3499" d="M265.576,404.33q-.205-.11-.005.085" transform="translate(-132.736 -202.145)" fill="none" stroke="#93305c" stroke-width="2"/>
      <path id="Path_3500" data-name="Path 3500" d="M265.67,391.495c1.315,2.045,2.935,4.8,5.665,4.77q18.14-.21,36.28-.16a12.468,12.468,0,0,0,2.955-.1.92.92,0,0,0,.715-.83,47.013,47.013,0,0,0-.175-8.725,21.894,21.894,0,0,0-.365-3.945,7.033,7.033,0,0,0-3.275-4.05" transform="translate(-132.835 -189.225)" fill="none" stroke="#ad0146" stroke-width="2"/>
      <path id="Path_3501" data-name="Path 3501" d="M349.045,377.415q.23.015-.225-1.035" transform="translate(-174.41 -188.19)" fill="none" stroke="#791a45" stroke-width="2"/>
      <path id="Path_3502" data-name="Path 3502" d="M324.995,376.33l-23.825-.05" transform="translate(-150.585 -188.14)" fill="none" stroke="#b44e78" stroke-width="2"/>
      <path id="Path_3503" data-name="Path 3503" d="M222.145,404.09a3.187,3.187,0,0,0-2.425,1.755,27.728,27.728,0,0,1-5.8,6.12,28.4,28.4,0,0,0-4.275,5.735.878.878,0,0,1-.365.325c-3.4,1.6-5.94,4.71-8.58,7.255-1.92,1.85-6.665,4.86-6.84,7.635a.256.256,0,0,0,.14.255l.2.105q.415.22-.05.26c-4.855.425-9.945-.095-14.9-.53" transform="translate(-89.62 -202.045)" fill="none" stroke="#c62058" stroke-width="2"/>
      <path id="Path_3504" data-name="Path 3504" d="M384.73,290.24l-39.01.005" transform="translate(-172.86 -145.12)" fill="none" stroke="#b2afb5" stroke-width="2"/>
      <path id="Path_3505" data-name="Path 3505" d="M346.354,268.441q-.945-.23-.915.63.17,5.125.14,10.25" transform="translate(-172.719 -134.196)" fill="none" stroke="#dddce0" stroke-width="2"/>
      <path id="Path_3506" data-name="Path 3506" d="M344.625,290.25l-1.1,1.41" transform="translate(-171.765 -145.125)" fill="none" stroke="#908c96" stroke-width="2"/>
      <path id="Path_3507" data-name="Path 3507" d="M343.31,293.035q-.11-.015-.22-.035" transform="translate(-171.545 -146.5)" fill="none" stroke="#be5c86" stroke-width="2"/>
      <path id="Path_3508" data-name="Path 3508" d="M349.23,378.45l-.04,13.2" transform="translate(-174.595 -189.225)" fill="none" stroke="#651b3f" stroke-width="2"/>
      <path id="Path_3509" data-name="Path 3509" d="M347.6,403.185a4.757,4.757,0,0,1-1.585-1.665" transform="translate(-173.01 -200.76)" fill="none" stroke="#4a4954" stroke-width="2"/>
      <path id="Path_3510" data-name="Path 3510" d="M265.67,404.54c1.14.065,2.3.245,3.385.245q19.055-.02,38.375-.09" transform="translate(-132.835 -202.27)" fill="none" stroke="#7f3156" stroke-width="2"/>
      <path id="Path_3511" data-name="Path 3511" d="M1546.335,582.669a4.793,4.793,0,0,0-9.5,1.095q0,12.92,0,25.765a.115.115,0,0,1-.21.065,17.438,17.438,0,0,0-13.93-7.84c-27.62-1.785-30.02,42.675-2.9,45.635" transform="translate(-750.335 -289.389)" fill="none" stroke="#b9bcc0" stroke-width="2"/>
      <path id="Path_3512" data-name="Path 3512" d="M1423.8,670.2q12.42-1.355,17.875-11.235c5.87-10.63,2.805-25.4-7.91-31.475a25.469,25.469,0,0,0-22.515-.895c-10.275,4.77-14.885,17.615-11.42,28.115q4.585,13.89,19.74,15.49" transform="translate(-699.345 -312.197)" fill="none" stroke="#b9bcc0" stroke-width="2"/>
      <path id="Path_3513" data-name="Path 3513" d="M1124.147,646.979c29.635-2.705,27.425-45.995-2.04-45.815-12.055.075-20.835,8.06-22.47,19.875a20.482,20.482,0,0,0,.005,6.445q3.16,17.315,20.625,19.495m-53,0c8.995-.62,17.415-3.545,23.82-10.055a4.674,4.674,0,0,0,1.59-3.57q.015-7.335,0-14.675c-.01-3.825-.59-7.035-5-7.055q-9.215-.045-18.425-.01a12.2,12.2,0,0,0-3.53.36c-4.72,1.65-3.27,8.445,1.96,8.47q7.61.035,15.13.04a.37.37,0,0,1,.37.37v11.49a.465.465,0,0,1-.17.37c-5.6,4.75-13.77,6.4-20.8,5.745-9.835-.92-17.23-6.74-20.195-16.34a29.547,29.547,0,0,1,.95-21.23,23.711,23.711,0,0,1,29.375-12.685,35.206,35.206,0,0,1,9.08,5.045c3.505,2.5,8.51-.58,6.99-4.795-1.52-4.2-9.13-7.86-13.11-8.985-16.56-4.69-34.13,1.625-41.36,17.74-4.48,9.98-4.24,22.86.93,32.545q8.34,15.63,27.425,17.225m-77.035,0a21.89,21.89,0,0,0,10.76-3.015c5.755-3.535,7.3-12,2.785-17.245-3.82-4.44-11.87-6.12-18.48-8.17-2.665-.825-5.995-2.465-5.51-5.495,1-6.24,12.57-4.26,16.22-2.68,2.3,1,5.54,3.145,7.925,1.465,2.565-1.81,1.37-5.3-.995-6.685-7.375-4.315-18.83-5.815-26.63-1.14q-6.325,3.785-5.495,11.29c1.11,10.08,13.51,11.94,21.185,14.505a11.544,11.544,0,0,1,3.355,1.59,4.383,4.383,0,0,1-1.445,7.745,16.85,16.85,0,0,1-14.515-2.055c-2.2-1.375-5.38-3.85-8.02-1.525-2.3,2.025-.595,5.42,1.575,6.875a27.056,27.056,0,0,0,13.185,4.54m-54.78,0a25.21,25.21,0,0,0,14.77-5.765c5.61-4.605.29-11.19-4.32-6.765a16.214,16.214,0,0,1-12.925,4.93c-6.76-.545-11.425-4.63-12.165-11.65q-.03-.24.215-.24,14.74-.015,29.47-.055,3.78-.01,3.74-3.7c-.145-11.87-7.56-21.8-19.785-22.5a21.824,21.824,0,0,0-20.56,11.06c-4.43,8.035-3.91,19.255,1.735,26.56q5.73,7.415,16.23,8.125" transform="translate(-450.932 -288.979)" fill="none" stroke="#b9bcc0" stroke-width="2"/>
      <path id="Path_3514" data-name="Path 3514" d="M264.17,385.27c70.94,4.18,134.635-47.245,145.53-117.32a141.692,141.692,0,0,0-2.285-55.47" transform="translate(-132.085 -106.24)" fill="none" stroke="#cc81a0" stroke-width="2"/>
      <path id="Path_3515" data-name="Path 3515" d="M948.373,260.113v15.6a.221.221,0,0,0,.25.25h41.625a.25.25,0,0,0,.25-.25V179.088a.25.25,0,0,0-.25-.25H913.623a.25.25,0,0,0-.25.25v34.625a.221.221,0,0,0,.25.25h31a.305.305,0,0,1,.3.355c-2.145,12.71-8.215,24.96-22.265,27.59q-15.9,2.97-26.28-7.4c-14.41-14.415-14.375-43.805-10.515-62.17,3.36-15.975,14.525-30.265,32.63-28.01,11.225,1.4,18.8,9.13,20.26,20.575a.322.322,0,0,0,.355.315h51.02q.275,0,.25-.275c-1.22-14.315-4.635-27.74-15.145-38.21-21.095-21.015-53.61-25.215-81.445-19.44-30.27,6.285-52.25,27.92-58.925,58.295-9.78,44.52,4.01,107.075,58.81,113.915,19.665,2.455,42.345-1.955,54.405-19.475a.16.16,0,0,1,.295.09m-200.335-25.9a.165.165,0,0,1-.165-.165V109.253a.165.165,0,0,0-.165-.165H698.663a.165.165,0,0,0-.165.165V275.8a.165.165,0,0,0,.165.165h122.17A.165.165,0,0,0,821,275.8v-41.42a.165.165,0,0,0-.165-.165H748.038m101.555,135.03c9.415,5.265,10.39-16.73,10.415-20.955a11.683,11.683,0,0,0-.48-4.07c-1.75-4.36-8.14-2.54-7.955,2.12.285,7.13-.315,11.84-2.855,18.23-.69,1.73-.85,3.71.875,4.675m-141.33,30.69q-.04-26.485-.01-52.965c.01-6.915-9.755-6.73-9.755.12q0,27.54.005,55.085c.005,4.135.68,7.11,5.37,7.125q17.645.045,35.3.035c1.87-.005,3.135-.3,4.31-1.625a4.429,4.429,0,0,0-1.35-6.95,10.649,10.649,0,0,0-4.1-.55q-14.745.035-29.505-.01a.232.232,0,0,1-.26-.265m67.47-25.945q.04,15.55.01,31.1c-.015,6.58,9.515,6.83,9.51,0q-.015-15.545,0-31.115a.233.233,0,0,1,.26-.26q4.735,0,9.495-.005c4.28-.005,5.665-5.725,1.91-7.39-2.49-1.11-8.48-.47-11.36-.485a.227.227,0,0,1-.255-.245,64.851,64.851,0,0,1,.075-8.01c.295-4.2,1.72-6.89,6.09-7.3,1.715-.16,4.66.26,6.265-.505a3.952,3.952,0,0,0,.6-6.76,6.027,6.027,0,0,0-3.075-.785c-7.165-.325-14.7,1.15-17.84,8.265-2.085,4.72-1.55,10.05-1.69,15.105a.225.225,0,0,1-.26.25c-2.28-.025-5.87-.375-7.645.535-2.435,1.245-2.42,5.615.095,6.865,1.72.855,5.4.455,7.55.47a.239.239,0,0,1,.265.27M760.3,352.8a5.55,5.55,0,1,0-5.55,5.55,5.55,5.55,0,0,0,5.55-5.55m-.805,16.9a4.615,4.615,0,0,0-4.615-4.615h-.27A4.615,4.615,0,0,0,750,369.7v35.77a4.615,4.615,0,0,0,4.615,4.615h.27a4.615,4.615,0,0,0,4.615-4.615V369.7m385.75,36.28c-.505,5.345-7.665,5.65-8.99.4a27.216,27.216,0,0,1-.165-3.685q-.03-.4-.265-.075a18.46,18.46,0,0,1-13.88,7.84m.286-7.77c7.437.039,13.5-6.695,13.544-15.04s-5.949-15.141-13.385-15.18-13.5,6.695-13.544,15.04,5.949,15.14,13.385,15.179m-287.7-19.685c-2.115-14.575-22.52-13.785-24.265-.055q-.03.26.23.26h23.86q.2,0,.175-.2m173.085,7.82c1.905,14.18,21.535,15.8,25.64,2.385,2.41-7.885-.37-18.385-9.51-20.105-11.835-2.23-17.52,7.32-16.13,17.72m55.475,8.54a13.552,13.552,0,0,0,16.965.1c6.265-5.2,6.415-16.35,1.405-22.3-3.745-4.445-10.43-5.57-15.725-3.17-9.2,4.17-9.98,19.47-2.645,25.38" transform="translate(-349.248 -52.463)" fill="none" stroke="#b9bcc0" stroke-width="2"/>
    </g>
    <path id="Path_3516" data-name="Path 3516" d="M0,0H135.04C60.6,2.695,2.885,61.57,0,135.34Z" fill="#fff"/>
    <path id="Path_3517" data-name="Path 3517" d="M135.04,0h9.24c62.585,2.575,115.965,45.09,131.05,106.24q-1.055.035-.88,1.015a1.081,1.081,0,0,1-.035.515c-.77,2.5-.125,3.6.115,5.965q.02.175.235.14a.245.245,0,0,1,.275.245,10.307,10.307,0,0,0,1.73,6.06.488.488,0,0,1,.07.355l-.86,4.47q-.05.245-.155.02l-.1-.21a.14.14,0,0,0-.265.075c.16,2.15.945,4.32,1.025,6.75.06,1.72-.465,4.44-.275,6.715a95.872,95.872,0,0,1-.11,9.955c-.035,1.62-.415,3.205-.605,4.85a26.027,26.027,0,0,1-.7,3.435c-.555,2.14-.48,4.43-.85,6.355q-.495,2.54-.93,5.09c-.455,2.64-1.575,5.465-2.05,8.31a5.261,5.261,0,0,1-.76,1.955c-1.385,2.185-1.8,4.375-2.82,6.675a31.683,31.683,0,0,0-2.055,5.635,25.425,25.425,0,0,1-4.045,8.7.983.983,0,0,0-.17.425,2.821,2.821,0,0,1-.445,1.18c-1.775,2.725-3.12,5.47-5.17,8.13a35.639,35.639,0,0,0-4.075,6.7c-.42.9-1.12,1.635-1.635,2.505a.888.888,0,0,1-.35.325,2.449,2.449,0,0,0-1.375,2.025.843.843,0,0,1-.19.44c-3.915,4.78-9.045,9.81-12.48,13.61q-4.21,4.65-8.52,9.2a.451.451,0,0,1-.365.15h-.175a.407.407,0,0,0-.25.085,37.072,37.072,0,0,0-2.95,2.45c-.68.625-1.45.78-2.11,1.55-1.92,2.23-5.115,3.09-7.45,5.03-.955.785-2.16,1.3-3.09,2.205a28.559,28.559,0,0,1-3.495,2.5q-.065.05-.085-.03a.206.206,0,0,0-.065-.12q-.045-.04-.155.005a62.609,62.609,0,0,0-8.4,4.355c-1.45.9-3.39,1.365-4.855,2.76-1.435,1.365-4.075,1.835-5.8,2.925a.886.886,0,0,1-.475.14c-1.735.025-3.235,1.025-4.36,1.39a57.839,57.839,0,0,1-7.16,2.01,16.985,16.985,0,0,0-2.75.605.065.065,0,0,0,0,.12l.26.08q.28.09-.005.17c-3.6,1.06-7.03,1.285-10.69,1.97a.936.936,0,0,1-.47-.03.936.936,0,0,0-.6-.045,14.962,14.962,0,0,1-7.11,1.105.738.738,0,0,0-.47.125,13.939,13.939,0,0,1-1.845,1.065c-1.385.67-6.745.565-8.4.32-3.965-.58-7.84.73-11.465,2.285-40.56-1.68-79.6-22.95-103.86-55.125Q1.99,189.1,0,144.715V135.34C2.885,61.57,60.6,2.695,135.04,0ZM7.95,150.625q5.765,36.26,33.55,59.57a.285.285,0,0,0,.415-.38c-9.9-14.2-16.255-31.25-18.94-48.265a15.9,15.9,0,0,1,1.015,3.365,106.025,106.025,0,0,0,10.6,29.615c16.195,30.635,45.525,53.94,79.765,60.985a.834.834,0,0,0-.205.37q-.02.115.1.115h.135a.16.16,0,0,1,.12.275l-1.29,1.31a.205.205,0,0,0,0,.315l.79.9q.075.085-.035.1l-1.015.135q-.285.04-.01.13a3.217,3.217,0,0,0,1.435.04,16.4,16.4,0,0,1,5.07.23c.81.135,1.085.74,2.04.84a6.741,6.741,0,0,1,3.5,1.23,1.87,1.87,0,0,0,1.35.515.782.782,0,0,1,.41.06,7.349,7.349,0,0,0,5.7.1.6.6,0,0,1,.33-.025l2.825.6a.493.493,0,0,1,.33.25.373.373,0,0,0,.335.22,173.982,173.982,0,0,0,19.4-.575c5.265-.43,8.815-1.355,15.565-2.84a94.7,94.7,0,0,0,14.675-4.555,122.572,122.572,0,0,0,73.535-83.3c.5-1.9.685-4.125,1.27-6.23,1.3-4.635,1.435-8.95,1.865-13.685.14-1.545-.08-3.53.44-4.98a1.965,1.965,0,0,0,.12-.825,75.707,75.707,0,0,0-1.09-9.235,1.086,1.086,0,0,0-.52-.7,4.257,4.257,0,0,1-1.57-1.9l1.245.19a.305.305,0,0,0,.375-.23l.57-1.82a.492.492,0,0,0-.085-.465c-.875-1.08.145-2.92-.295-4.33-1.27-4.07-1.835-8.26-3.085-12.275-1.37-4.415-1.845-8.56-2.96-12.82-.725-2.78-.12-5.605-1.8-8.815a6.2,6.2,0,0,1-.65-2.045,28.178,28.178,0,0,0-2.05-6.32c-1.045-2.73-2.785-4.94-3.9-7.715a25.517,25.517,0,0,0-2.205-3.56q-2.66-4.49-5.475-8.94a.508.508,0,0,0-.4-.24q-.775-.045-.46-.885a.472.472,0,0,0-.1-.51q-5.68-6.365-11.34-12.75c-.93-1.045-2.28-1.92-3.25-3.125l-2.1-2.61c-2.32-2.53-4.295-5.525-6.73-7.63a58.355,58.355,0,0,0-6.8-5.06c-1.8-1.15-3.135-2.855-5.32-3.79-2.21-.945-3.255-2.465-5.92-2.54-1.01-.03-2.25-.725-2.91.04a93.6,93.6,0,0,0-13.7-8.615A98.31,98.31,0,0,0,152.2,8.18C72.02-5.09-3.85,70.775,7.95,150.625Z" fill="#af0148"/>
    <path id="Path_3518" data-name="Path 3518" d="M144.28,0H796V293.28a4.793,4.793,0,0,0-9.495,1.1q-.005,12.92-.005,25.765a.115.115,0,0,1-.21.065,17.438,17.438,0,0,0-13.93-7.84c-27.62-1.785-30.02,42.675-2.9,45.635h-45.01q12.42-1.355,17.875-11.235c5.87-10.63,2.8-25.4-7.91-31.475A25.469,25.469,0,0,0,711.9,314.4c-10.275,4.77-14.885,17.615-11.42,28.115q4.585,13.89,19.74,15.49h-47.01c29.635-2.7,27.425-45.995-2.04-45.815-12.055.075-20.835,8.06-22.47,19.875a20.484,20.484,0,0,0,.005,6.445Q651.87,355.82,669.335,358h-53c8.995-.62,17.415-3.545,23.82-10.055a4.674,4.674,0,0,0,1.59-3.57q.015-7.335,0-14.675c-.01-3.825-.59-7.035-5-7.055q-9.215-.045-18.425-.01a12.2,12.2,0,0,0-3.53.36c-4.72,1.65-3.27,8.445,1.96,8.47q7.61.035,15.13.04a.37.37,0,0,1,.37.37v11.49a.465.465,0,0,1-.17.37c-5.6,4.75-13.77,6.4-20.8,5.745-9.835-.92-17.23-6.74-20.2-16.34a29.547,29.547,0,0,1,.95-21.23,23.711,23.711,0,0,1,29.375-12.685,35.2,35.2,0,0,1,9.08,5.045c3.505,2.5,8.51-.58,6.99-4.8-1.52-4.2-9.13-7.86-13.11-8.985-16.56-4.69-34.13,1.625-41.36,17.74-4.48,9.98-4.24,22.86.93,32.545q8.34,15.63,27.425,17.225H534.33a21.89,21.89,0,0,0,10.76-3.015c5.755-3.535,7.295-12,2.785-17.245-3.82-4.44-11.87-6.12-18.48-8.17-2.665-.825-5.995-2.465-5.51-5.495,1-6.24,12.57-4.26,16.22-2.68,2.3,1,5.54,3.145,7.925,1.465,2.565-1.81,1.37-5.3-.995-6.685-7.375-4.315-18.83-5.815-26.63-1.14q-6.325,3.785-5.495,11.29c1.11,10.08,13.51,11.94,21.185,14.505a11.544,11.544,0,0,1,3.355,1.59A4.383,4.383,0,0,1,538,350.165a16.85,16.85,0,0,1-14.515-2.055c-2.205-1.375-5.38-3.85-8.02-1.525-2.3,2.025-.595,5.42,1.575,6.875A27.055,27.055,0,0,0,530.23,358H475.45a25.21,25.21,0,0,0,14.77-5.765c5.61-4.605.29-11.19-4.32-6.765a16.214,16.214,0,0,1-12.925,4.93c-6.76-.545-11.425-4.63-12.165-11.65q-.03-.24.215-.24,14.74-.015,29.47-.055,3.78-.01,3.74-3.7c-.145-11.87-7.56-21.8-19.785-22.5a21.824,21.824,0,0,0-20.56,11.06c-4.43,8.035-3.91,19.255,1.735,26.56q5.73,7.415,16.23,8.125H0V144.715Q1.99,189.1,28.225,223.9c24.255,32.175,63.3,53.445,103.86,55.125,70.94,4.18,134.635-47.245,145.53-117.32a141.692,141.692,0,0,0-2.285-55.47C260.245,45.09,206.865,2.575,144.28,0ZM599.125,207.65v15.6a.221.221,0,0,0,.25.25H641a.25.25,0,0,0,.25-.25V126.625a.25.25,0,0,0-.25-.25H564.375a.25.25,0,0,0-.25.25V161.25a.221.221,0,0,0,.25.25h31a.305.305,0,0,1,.3.355c-2.145,12.71-8.215,24.96-22.265,27.59q-15.9,2.97-26.28-7.4c-14.41-14.415-14.375-43.805-10.515-62.17,3.36-15.975,14.525-30.265,32.63-28.01,11.225,1.4,18.8,9.13,20.26,20.575a.322.322,0,0,0,.355.315h51.02q.275,0,.25-.275c-1.22-14.315-4.635-27.74-15.145-38.21C604.89,53.25,572.375,49.05,544.54,54.825c-30.27,6.285-52.25,27.92-58.925,58.295-9.78,44.52,4.01,107.075,58.81,113.915,19.665,2.455,42.345-1.955,54.405-19.475a.16.16,0,0,1,.295.09ZM398.79,181.75a.165.165,0,0,1-.165-.165V56.79a.165.165,0,0,0-.165-.165H349.415a.165.165,0,0,0-.165.165V223.335a.165.165,0,0,0,.165.165h122.17a.165.165,0,0,0,.165-.165v-41.42a.165.165,0,0,0-.165-.165H398.79ZM500.345,316.78c9.415,5.265,10.39-16.73,10.415-20.955a11.684,11.684,0,0,0-.48-4.07c-1.75-4.36-8.14-2.54-7.955,2.12.285,7.13-.315,11.84-2.855,18.23C498.78,313.835,498.62,315.815,500.345,316.78Zm-141.33,30.69q-.04-26.485-.01-52.965c.01-6.915-9.755-6.73-9.755.12q0,27.54.005,55.085c.005,4.135.68,7.11,5.37,7.125q17.645.045,35.295.035c1.87-.005,3.135-.3,4.31-1.625a4.429,4.429,0,0,0-1.35-6.95,10.649,10.649,0,0,0-4.1-.55q-14.745.035-29.505-.01a.232.232,0,0,1-.26-.265Zm67.47-25.945q.04,15.55.01,31.1c-.015,6.58,9.515,6.83,9.51,0q-.015-15.545,0-31.115a.233.233,0,0,1,.26-.26q4.735,0,9.495-.005c4.28-.005,5.665-5.725,1.91-7.39-2.49-1.11-8.48-.47-11.36-.485a.227.227,0,0,1-.255-.245,64.857,64.857,0,0,1,.075-8.01c.3-4.2,1.72-6.89,6.09-7.3,1.715-.16,4.66.26,6.265-.505a3.952,3.952,0,0,0,.6-6.76,6.027,6.027,0,0,0-3.075-.785c-7.165-.325-14.7,1.15-17.84,8.265-2.085,4.72-1.55,10.05-1.69,15.105a.225.225,0,0,1-.26.25c-2.28-.025-5.87-.375-7.645.535-2.435,1.245-2.42,5.615.1,6.865,1.72.855,5.395.455,7.55.47a.239.239,0,0,1,.265.27Zm-15.43-21.185a5.55,5.55,0,1,0-5.55,5.55,5.55,5.55,0,0,0,5.55-5.55Zm-.8,16.9a4.615,4.615,0,0,0-4.615-4.615h-.27a4.615,4.615,0,0,0-4.615,4.615v35.77a4.615,4.615,0,0,0,4.615,4.615h.27a4.615,4.615,0,0,0,4.615-4.615Z" fill="#fff"/>
    <path id="Path_3519" data-name="Path 3519" d="M158.932,14.841a3.539,3.539,0,0,0-1.275,1.13,46.261,46.261,0,0,1-5.825,6.81.05.05,0,0,0,.015.085q.07.025.145.045.215.05.035.175l-1.79,1.3a.546.546,0,0,0-.225.385,1.863,1.863,0,0,1-.625,1.2.507.507,0,0,0-.18.405l.005.955a.172.172,0,0,0,.21.195q.465-.04.56.22c-3.93-.375-8.51.135-11.66.24a81.52,81.52,0,0,0-10.24,1.025c-51.15,8.22-91.99,49.285-99.265,100.81-.62,4.4-.725,9.6-1.05,14.42l-.08,2.865a1.318,1.318,0,0,0-1.03-.51.64.64,0,0,0-.42.14c-3.975,3.115-6.835,7.22-10.955,10.125q-.08-.345-.6.42C2.882,77.436,78.752,1.571,158.932,14.841Z" transform="translate(-6.732 -6.661)" fill="#e1929c"/>
    <path id="Path_3520" data-name="Path 3520" d="M189.937,16.36a98.31,98.31,0,0,1,28.41,9.365,13.5,13.5,0,0,1-3.12,4.1,14.7,14.7,0,0,0-1.925,2.005c-2.12,2.74-4.62,4.975-6.73,7.94a36.826,36.826,0,0,1-6.79,7.18c-1.4,1.035-2.11,2.63-3.385,3.835-1.765,1.665-3.15,3.49-5.005,5.165-2.21,1.99-3.9,3.87-7.1,6.475-2.79,2.28-4.915,5.2-7.915,7.47-1.03.785-1.9,3.11-3.065,3.285a.947.947,0,0,0-.435.18c-1.525,1.13-2.61,2.525-4.05,3.745a27.939,27.939,0,0,0-2.62,2.485q-4.2,4.7-8.78,9.045a6.033,6.033,0,0,0-1.29,1.845,16.52,16.52,0,0,1-2.58,3.96.586.586,0,0,1-.23.17l-1.96.86A19.717,19.717,0,0,0,144.642,89a28.108,28.108,0,0,0-7.43-3.695,16.437,16.437,0,0,0-11.345,1.065c-10.315,4.49-13.935,15.135-9.65,25.29a21.34,21.34,0,0,0,8.76,11.02,48.771,48.771,0,0,1-5.795,6.57q-1.735,1.64-3.35,3.4c-.46.5-.68,1.255-1.29,1.69-2.685,1.9-5.145,5.04-7.32,7.535-.895,1.025-2.04,1.525-2.97,2.5q-2.925,3.055-5.665,6.27c-.295.345-1.255.585-1.68,1.04a76.383,76.383,0,0,1-7.815,7.765c-1.63,1.3-2.5,3.41-4.345,4.42a.753.753,0,0,0-.335.355c-.555,1.225-.825,2.6-1.795,3.515a11.662,11.662,0,0,1-2.61,1.87c-.495.26-1.24.205-1.765.83a.172.172,0,0,1-.26.03l-.235-.17a.073.073,0,0,0-.062-.011.062.062,0,0,0-.043.041l-.06.2a.035.035,0,1,1-.07-.005q-.08-.37-.31-.445c-11.06-61.38,32.215-118.06,94.28-123.34,5.045-.43,10.8-.33,16.175-.295a.448.448,0,0,0,.45-.445q.02-5.385-.005-10.825c-.015-2.855-1.475-3.69-3.475-5.3a2.236,2.236,0,0,0-1.165.595q.315-.545.155-.655a3.779,3.779,0,0,0-2.63-.54q-.1-.26-.56-.22a.172.172,0,0,1-.21-.195l-.005-.955a.507.507,0,0,1,.18-.405,1.863,1.863,0,0,0,.625-1.2.546.546,0,0,1,.225-.385l1.79-1.3q.18-.125-.035-.175-.075-.02-.145-.045a.05.05,0,0,1-.015-.085,46.262,46.262,0,0,0,5.825-6.81,3.539,3.539,0,0,1,1.275-1.13Z" transform="translate(-37.737 -8.18)" fill="#d87484"/>
    <path id="Path_3521" data-name="Path 3521" d="M220.075,35.09a93.6,93.6,0,0,1,13.7,8.615l2.39,1.875q-1.38,1.4-2.73,2.81-1.41,1.465-2.865,2.875c-3.83,3.705-7.265,7.765-11.145,11.44-2.6,2.46-5.11,5.34-7.815,7.875-3.215,3.015-6.22,6.52-9.66,9.475-1.29,1.105-1.665,2.61-3.87,2.55a.64.64,0,0,0-.455.17,101.583,101.583,0,0,0-8.77,9.08.185.185,0,0,0,.21.3l1.6-.64q.25-.1.07.1c-1.11,1.225-1.755,2.48-3.255,3.33a.257.257,0,0,1-.37-.075.732.732,0,0,0-.89-.295.329.329,0,0,0-.215-.015.964.964,0,0,0-.82-.51q-6.01.06-12.01-.105a1.328,1.328,0,0,0-.585.105,1.044,1.044,0,0,0-.5.35l-.025,30.78-.145-3.2a.676.676,0,0,0-.235-.49,2.245,2.245,0,0,1-.645-.98.87.87,0,0,0-1.665.045l-.52,1.88a.535.535,0,0,1-.3.345,5.764,5.764,0,0,0-2.1,1.635,38.842,38.842,0,0,1-6.51,5.99,3.212,3.212,0,0,0-.88,1.72c-.9,3.29-5.225,6.02-7.38,8.325-3.915,4.19-8.175,8.025-11.98,12.22-.73.8-1.745,1.54-2.53,2.475a45.617,45.617,0,0,1-5.975,6.135,14.262,14.262,0,0,0-1.69,1.575c-1.655,1.81-3.09,3.245-4.66,4.86-.21.22-.64.265-.885.53q-3.42,3.65-6.87,7.275c-1.25,1.315-3.3,2.71-4.61,4.555a.2.2,0,0,1-.135.085,1.085,1.085,0,0,0-.12.025.327.327,0,0,0-.165.1c-2.735,3.165-4.885,4.765-7.075,7.15-.91.985-2.08,1.655-2.96,2.6-3.345,3.6-7.5,6.6-10.53,10.4-.95,1.2-2.115,1.685-2.955,2.6a1.35,1.35,0,0,1-.305.245,2.292,2.292,0,0,0-1.07,1.79,102.811,102.811,0,0,1-8.24-25.635q.23.075.31.445a.035.035,0,0,0,.07.005l.06-.2a.062.062,0,0,1,.043-.041.073.073,0,0,1,.062.011l.235.17a.172.172,0,0,0,.26-.03c.525-.625,1.27-.57,1.765-.83a11.663,11.663,0,0,0,2.61-1.87c.97-.92,1.24-2.29,1.795-3.515a.753.753,0,0,1,.335-.355c1.845-1.01,2.715-3.115,4.345-4.42a76.384,76.384,0,0,0,7.815-7.765c.425-.455,1.385-.7,1.68-1.04q2.74-3.215,5.665-6.27c.93-.975,2.075-1.475,2.97-2.5,2.175-2.495,4.635-5.63,7.32-7.535.61-.435.83-1.19,1.29-1.69q1.615-1.76,3.35-3.4a48.771,48.771,0,0,0,5.795-6.57q9.795,4.97,18.545.56a19.418,19.418,0,0,0,7.85-27.775l1.96-.86a.586.586,0,0,0,.23-.17,16.52,16.52,0,0,0,2.58-3.96,6.033,6.033,0,0,1,1.29-1.845q4.58-4.34,8.78-9.045a27.939,27.939,0,0,1,2.62-2.485c1.44-1.22,2.525-2.615,4.05-3.745a.947.947,0,0,1,.435-.18c1.165-.175,2.035-2.5,3.065-3.285,3-2.27,5.125-5.19,7.915-7.47,3.2-2.6,4.885-4.485,7.1-6.475,1.855-1.675,3.24-3.5,5.005-5.165,1.275-1.205,1.99-2.8,3.385-3.835a36.826,36.826,0,0,0,6.79-7.18c2.11-2.965,4.61-5.2,6.73-7.94a14.7,14.7,0,0,1,1.925-2.005,13.5,13.5,0,0,0,3.12-4.095Z" transform="translate(-39.465 -17.545)" fill="#d5677b"/>
    <path id="Path_3522" data-name="Path 3522" d="M164.285,42.044a3.779,3.779,0,0,1,2.63.54q.16.11-.155.655l-.45,1.215a1,1,0,0,0-1.03-.875q-2.845-.155-8.025.005a117.159,117.159,0,0,0-113.53,115.37,1.084,1.084,0,0,0-1.655-.415c.325-4.82.43-10.015,1.05-14.42,7.275-51.525,48.115-92.59,99.265-100.81a81.52,81.52,0,0,1,10.24-1.025C155.775,42.179,160.355,41.669,164.285,42.044Z" transform="translate(-21.035 -20.954)" fill="#bbb8c0"/>
    <path id="Path_3523" data-name="Path 3523" d="M292.16,43.38c-.945,3.21-.395,8.24-.385,11.67a.965.965,0,0,0,.075.375q.18.415-.285.935a2.061,2.061,0,0,1-1.025-1.31l.005-9.86.45-1.215A2.237,2.237,0,0,1,292.16,43.38Z" transform="translate(-145.27 -21.69)" fill="#30333d"/>
    <path id="Path_3524" data-name="Path 3524" d="M182,43.38c2,1.61,3.46,2.445,3.475,5.3q.025,5.44.005,10.825a.448.448,0,0,1-.45.445c-5.375-.035-11.13-.135-16.175.295-62.065,5.28-105.34,61.96-94.28,123.34a102.811,102.811,0,0,0,8.24,25.635l3.175,6.87a31.65,31.65,0,0,1-3.235-4.93c-21.11-39.81-15.115-86.685,14.615-120.22a105.184,105.184,0,0,1,34.15-24.795c.6-.27,1.125-.105,1.6-.3a109.717,109.717,0,0,1,45.49-8.655,20.474,20.474,0,0,0,2.9-.06q.315-.035.235-.345a.76.76,0,0,0-.34-.425q.465-.52.285-.935a.965.965,0,0,1-.075-.375c-.01-3.43-.56-8.46.385-11.67Z" transform="translate(-35.108 -21.69)" fill="#cb4063"/>
    <path id="Path_3525" data-name="Path 3525" d="M167.956,46.049l-.005,9.86q0,.49-.9.46c-31.9-1.125-61.365,11.01-83.05,34.47-48.7,53.515-30.465,138.15,35.035,167.96a106.017,106.017,0,0,0,148.785-89.68.367.367,0,0,0-.17-.35q-.315-.21-.24-.48a.436.436,0,0,0,.15-.32q1.065-.65,1.64-.34a.445.445,0,0,1,.225.41c-1.825,29.455-14.47,56.74-36.88,75.8-38.715,32.93-93.705,33.86-134.215,3.625a.7.7,0,0,0-.5-.145,5.587,5.587,0,0,0-2.075.6.712.712,0,0,1-.47.055,19.684,19.684,0,0,0-8.23-.22.675.675,0,0,1-.5-.1,2.679,2.679,0,0,0-3.64.34,116,116,0,0,1-37.545-87.435A117.159,117.159,0,0,1,158.9,45.179q5.18-.16,8.025,0A1,1,0,0,1,167.956,46.049Z" transform="translate(-22.681 -22.549)" fill="#fff"/>
    <path id="Path_3526" data-name="Path 3526" d="M454.255,160.207a4.087,4.087,0,0,0-1.915-1.745l-29.44-.025q1.65-9.465,2.215-13.6c3.1-22.785-.89-46.1-12.58-66.09a94.519,94.519,0,0,0-21.525-24.9l-2.39-1.875c.66-.765,1.9-.07,2.91-.04,2.665.075,3.71,1.6,5.92,2.54,2.185.935,3.52,2.64,5.32,3.79a58.358,58.358,0,0,1,6.8,5.06c2.435,2.105,4.41,5.1,6.73,7.63l2.1,2.61c.97,1.205,2.32,2.08,3.25,3.125q5.66,6.385,11.34,12.75a.472.472,0,0,1,.1.51q-.315.84.46.885a.508.508,0,0,1,.4.24q2.815,4.45,5.475,8.94a25.516,25.516,0,0,1,2.2,3.56c1.11,2.775,2.85,4.985,3.9,7.715a28.177,28.177,0,0,1,2.05,6.32,6.2,6.2,0,0,0,.65,2.045c1.68,3.21,1.075,6.035,1.8,8.815,1.115,4.26,1.59,8.4,2.96,12.82,1.25,4.015,1.815,8.205,3.085,12.275.44,1.41-.58,3.25.295,4.33a.493.493,0,0,1,.085.465l-.57,1.82a.305.305,0,0,1-.375.23l-1.245-.19Z" transform="translate(-194.31 -25.802)" fill="#c1004c"/>
    <path id="Path_3527" data-name="Path 3527" d="M343.455,56.07a94.518,94.518,0,0,1,21.525,24.9,5.288,5.288,0,0,0-3.685,2.515,13.782,13.782,0,0,1-1.675,2.04c-2.14,2.07-3.445,5.22-5.865,6.785a.253.253,0,0,0-.125.225v.235a.211.211,0,0,1-.23.235.749.749,0,0,0-.65.345,9.5,9.5,0,0,1-2.48,2.435,15.945,15.945,0,0,0-5.69,5.32q-.025.035.02.045a.123.123,0,0,1,.045.01q.09.03.025.11a15.691,15.691,0,0,1-3.8,2.86,13,13,0,0,0-4.79,5.16c-.99,1.79-2.99,3.09-4.34,4.68-2.35,2.77-5.525,5.055-7.85,7.815-1.07,1.27-2.45,2.22-3.525,3.505-2.3,2.735-5.33,4.3-7.62,7.155a15.172,15.172,0,0,1-3.59,3.235c-1.18.77-1.745,1.8-2.8,2.69-1.985,1.665-3.175,3.455-5.575,4.69a.7.7,0,0,1-.435.07q-1.21-.19-1.35,1.145a.278.278,0,0,1-.129.2.267.267,0,0,1-.236.023.713.713,0,0,1-.46-.72q-.035-.91-.045-1.815,0-.03-.02-.03h-.03a.053.053,0,0,0-.055.05q.015,1.465-.04,2.925a21.65,21.65,0,0,1-.2,4.525.195.195,0,0,1-.365.035l-.14-.32q-.085-18.74-.14-37.495a6.8,6.8,0,0,0-3.52-6.19.4.4,0,0,0-.1-.41.732.732,0,0,1,.89.295.257.257,0,0,0,.37.075c1.5-.85,2.145-2.105,3.255-3.33q.18-.2-.07-.1l-1.6.64a.185.185,0,0,1-.21-.295,101.588,101.588,0,0,1,8.77-9.08.64.64,0,0,1,.455-.17c2.205.06,2.58-1.445,3.87-2.55,3.44-2.955,6.445-6.46,9.66-9.475,2.7-2.535,5.22-5.415,7.815-7.875,3.88-3.675,7.315-7.735,11.145-11.44q1.455-1.41,2.865-2.875,1.35-1.415,2.73-2.81Z" transform="translate(-146.755 -28.035)" fill="#d0566f"/>
    <path id="Path_3528" data-name="Path 3528" d="M206.59,66.72a2.061,2.061,0,0,0,1.025,1.31.76.76,0,0,1,.34.425q.08.31-.235.345a20.474,20.474,0,0,1-2.9.06,109.717,109.717,0,0,0-45.49,8.655c-.475.2-1.005.03-1.6.3a105.184,105.184,0,0,0-34.15,24.795q-.04-.415-.94-.96c21.685-23.46,51.15-35.595,83.05-34.47q.9.03.9-.46Z" transform="translate(-61.32 -33.36)" fill="#645f6b"/>
    <path id="Path_3529" data-name="Path 3529" d="M1081.837,260.113a.16.16,0,0,0-.3-.09c-12.06,17.52-34.74,21.93-54.4,19.475-54.8-6.84-68.59-69.4-58.81-113.915,6.675-30.375,28.655-52.01,58.925-58.295,27.835-5.775,60.35-1.575,81.445,19.44,10.51,10.47,13.925,23.9,15.145,38.21q.025.275-.25.275h-51.02a.322.322,0,0,1-.355-.315c-1.455-11.445-9.035-19.175-20.26-20.575-18.1-2.255-29.27,12.035-32.63,28.01-3.86,18.365-3.9,47.755,10.515,62.17q10.375,10.375,26.28,7.4c14.05-2.63,20.12-14.88,22.265-27.59a.3.3,0,0,0-.3-.355h-31a.221.221,0,0,1-.25-.25V179.088a.25.25,0,0,1,.25-.25h76.625a.25.25,0,0,1,.25.25v96.625a.25.25,0,0,1-.25.25h-41.625a.221.221,0,0,1-.25-.25Z" transform="translate(-482.712 -52.463)" fill="#727980"/>
    <path id="Path_3530" data-name="Path 3530" d="M368.63,105.88c11.69,19.985,15.675,43.3,12.58,66.09q-.565,4.14-2.215,13.6l-56.26.02a1.292,1.292,0,0,0-.475.09l-.325.12.015,13.635-5.73,5.215a.318.318,0,0,0-.04.43q.67.85,0,1.37c-2.12,1.655-4.085,4.12-6.425,5.315a.6.6,0,0,0-.295.34,7.239,7.239,0,0,1-3.1,4.01c-1.26.78-1.685,2.6-3.025,2.735a.753.753,0,0,0-.71.814.851.851,0,0,0,.825.781q.04,0,.14.115a.245.245,0,0,1,.005.325l-.885,1.02q-.22.255-.4-.035l-.545-.92a.414.414,0,0,0-.265-.2q-.26-.065-.35.06-.16.225-.245-.08-.04-.14-.105-.17l.11-46.5.14.32a.195.195,0,0,0,.365-.035,21.65,21.65,0,0,0,.2-4.525q.055-1.46.04-2.925a.053.053,0,0,1,.055-.05h.03q.02,0,.02.03.01.9.045,1.815a.713.713,0,0,0,.46.72.267.267,0,0,0,.236-.023.278.278,0,0,0,.129-.2q.14-1.335,1.35-1.145a.7.7,0,0,0,.435-.07c2.4-1.235,3.59-3.025,5.575-4.69,1.06-.89,1.625-1.92,2.8-2.69a15.172,15.172,0,0,0,3.59-3.235c2.29-2.85,5.315-4.42,7.62-7.155,1.075-1.285,2.455-2.235,3.525-3.505,2.325-2.76,5.5-5.045,7.85-7.815,1.35-1.59,3.35-2.89,4.34-4.68a12.994,12.994,0,0,1,4.79-5.16,15.691,15.691,0,0,0,3.8-2.86q.065-.08-.025-.11a.123.123,0,0,0-.045-.01q-.045-.01-.02-.045a15.945,15.945,0,0,1,5.69-5.32,9.5,9.5,0,0,0,2.48-2.435.749.749,0,0,1,.65-.345.211.211,0,0,0,.23-.235v-.235a.253.253,0,0,1,.125-.225c2.42-1.565,3.725-4.715,5.865-6.785a13.784,13.784,0,0,0,1.675-2.04,5.288,5.288,0,0,1,3.685-2.515Z" transform="translate(-150.405 -52.94)" fill="#cb4063"/>
    <path id="Path_3531" data-name="Path 3531" d="M748.04,238.375h72.795a.165.165,0,0,1,.165.165v41.42a.165.165,0,0,1-.165.165H698.665a.165.165,0,0,1-.165-.165V113.415a.165.165,0,0,1,.165-.165H747.71a.165.165,0,0,1,.165.165V238.21A.165.165,0,0,0,748.04,238.375Z" transform="translate(-349.25 -56.625)" fill="#727980"/>
    <path id="Path_3532" data-name="Path 3532" d="M95.033,136.58q.9.545.94.96c-29.73,33.535-35.725,80.41-14.615,120.22a31.648,31.648,0,0,0,3.235,4.93,98.626,98.626,0,0,0,12.73,16.835c7.255,7.72,16.41,15.43,26.01,19.725l.62.615a2.881,2.881,0,0,0,2.255,1.445,12.063,12.063,0,0,1,2.92,1.465,2.088,2.088,0,0,1,.94,1.765C64.568,274.73,46.333,190.1,95.033,136.58Z" transform="translate(-33.713 -68.29)" fill="#30333d"/>
    <path id="Path_3533" data-name="Path 3533" d="M279.165,153.4l-1.28,1.32-11.155-.06-1.48-1.42a1.044,1.044,0,0,1,.5-.35,1.328,1.328,0,0,1,.585-.1q6,.165,12.01.1a.964.964,0,0,1,.82.51Z" transform="translate(-132.625 -76.394)" fill="#a79ba4"/>
    <path id="Path_3534" data-name="Path 3534" d="M183.618,157.373a21.538,21.538,0,0,1,4.545,6.385l-3.615-4.35a.221.221,0,0,0-.37-.02.754.754,0,0,0-.24.53c-14.31-13.83-36.11,2.39-26.885,20.175a2.635,2.635,0,0,0,.815,2.1.735.735,0,0,1,.155.28,1.411,1.411,0,0,1-.11,1.215l-2.72-3.65c-4.285-10.155-.665-20.8,9.65-25.29a16.437,16.437,0,0,1,11.345-1.065A28.108,28.108,0,0,1,183.618,157.373Zm25.72-3.97,1.48,1.42a.222.222,0,0,0-.205.025.363.363,0,0,0-.2.345q.25,22.54-.265,45.08-.205,8.855.4,38.87c.165,7.97-1.22,16.16-.475,24.4a89.819,89.819,0,0,1,.19,13.61.362.362,0,0,0,.2.315,3.666,3.666,0,0,0-.92,1.275l-.315-.14q-.07-2.07.185-7.045.46-8.92-.185-28.5-.205-6.275.22-22.135-.31-9.19-.245-18.4c.005-.72.21-1.545.22-2.335q.085-8.005-.12-16l.025-30.78Z" transform="translate(-76.713 -76.553)" fill="#bbb8c0"/>
    <path id="Path_3535" data-name="Path 3535" d="M291.8,154.008a.329.329,0,0,1,.215.015.4.4,0,0,1,.1.41,1.085,1.085,0,0,0-.375.69q.105,55,.035,110,0,.155.15.135l-.795,1.08a.74.74,0,0,1-.355.2q-.25.05-.25-.2l-.005-111Z" transform="translate(-145.26 -76.998)" fill="#30333d"/>
    <path id="Path_3536" data-name="Path 3536" d="M293.335,154.87a6.8,6.8,0,0,1,3.52,6.19q.055,18.755.14,37.495l-.11,46.505.18,20.515-3.92.12q-.15.02-.15-.135.07-55-.035-110A1.085,1.085,0,0,1,293.335,154.87Z" transform="translate(-146.48 -77.435)" fill="#af0148"/>
    <path id="Path_3537" data-name="Path 3537" d="M185.36,161.536a16.4,16.4,0,0,1,4.51,9.885c1.6,17.925-21.485,25.59-31.4,10.29-9.225-17.785,12.575-34.005,26.885-20.175Zm26.88-5.1,11.155.06.005,111q0,.255.25.2a.739.739,0,0,0,.355-.2l.45.22a.474.474,0,0,0,.175.045l26.52.185-.005,10.97-38.7.02a.88.88,0,0,0-.28.045l-.27.085a.362.362,0,0,1-.2-.315,89.817,89.817,0,0,0-.19-13.61c-.745-8.235.64-16.425.475-24.4q-.61-30.015-.4-38.87.515-22.54.265-45.08a.363.363,0,0,1,.2-.345A.222.222,0,0,1,212.24,156.441Z" transform="translate(-78.135 -78.171)" fill="#fff"/>
    <path id="Path_3538" data-name="Path 3538" d="M185.385,161.64a19.717,19.717,0,0,1,6.73,6.465,19.418,19.418,0,0,1-7.85,27.775q-8.75,4.41-18.545-.56a21.34,21.34,0,0,1-8.76-11.02l2.72,3.65a18.161,18.161,0,0,0,16.205,5.8,17.646,17.646,0,0,0,15.255-13.635c.825-3.61.635-8.6-1.21-12.09a21.538,21.538,0,0,0-4.545-6.385Z" transform="translate(-78.48 -80.82)" fill="#af0148"/>
    <path id="Path_3539" data-name="Path 3539" d="M191.771,169.95c1.845,3.49,2.035,8.48,1.21,12.09a17.646,17.646,0,0,1-15.255,13.635,18.161,18.161,0,0,1-16.205-5.8,1.411,1.411,0,0,0,.11-1.215.735.735,0,0,0-.155-.28,2.636,2.636,0,0,1-.815-2.1c9.91,15.3,32.995,7.635,31.4-10.29a16.4,16.4,0,0,0-4.51-9.885.754.754,0,0,1,.24-.53.221.221,0,0,1,.37.02Z" transform="translate(-80.321 -82.745)" fill="#30333d"/>
    <path id="Path_3540" data-name="Path 3540" d="M180.3,209.994q.205,7.99.12,16c-.01.79-.215,1.615-.22,2.335q-.065,9.215.245,18.4a8.168,8.168,0,0,0-1.135-3.73.78.78,0,0,0-1.335.005,7.435,7.435,0,0,0-.865,2.215,9.717,9.717,0,0,1-1.54,3.345.347.347,0,0,1-.325.175q-.08,0-.16-.005a.482.482,0,0,0-.345.115,35.778,35.778,0,0,0-4.9,4.4c-3.455,4.545-7.85,8.005-11.175,11.945q-.915,1.085-1.41,1.575a1.529,1.529,0,0,0-.3.435,7.223,7.223,0,0,1-3.1,3.365,1.468,1.468,0,0,0-.355.285l-9.58,10.355a.459.459,0,0,1-.35.15h-.225a.112.112,0,0,0-.125.115q-.015.11-.03.205a.63.63,0,0,1-.11.275c-1.4,2-3.435,3.49-4.91,5.135-1.38,1.54-2.955,2.74-4.26,4.335a8.677,8.677,0,0,1-1.765,1.74c-1.93,1.27-2.66,3.075-4.685,4.465-1.305.9-2.52,2.55-4.025,3.77-2.475,2-4.205,4.06-7.265,6.365a50.99,50.99,0,0,0-4.67,4.63.6.6,0,0,0-.18.415l-.01.785a98.628,98.628,0,0,1-12.73-16.835l-3.175-6.87a2.292,2.292,0,0,1,1.07-1.79,1.351,1.351,0,0,0,.305-.245c.84-.91,2-1.4,2.955-2.6,3.03-3.8,7.185-6.81,10.53-10.4.88-.95,2.05-1.62,2.96-2.605,2.19-2.385,4.34-3.985,7.075-7.15a.327.327,0,0,1,.165-.1,1.077,1.077,0,0,1,.12-.025.2.2,0,0,0,.135-.085c1.31-1.845,3.36-3.24,4.61-4.555q3.45-3.625,6.87-7.275c.245-.265.675-.31.885-.53,1.57-1.615,3-3.05,4.66-4.86a14.263,14.263,0,0,1,1.69-1.575,45.618,45.618,0,0,0,5.975-6.135c.785-.935,1.8-1.67,2.53-2.475,3.805-4.2,8.065-8.03,11.98-12.22,2.155-2.3,6.485-5.035,7.38-8.325a3.212,3.212,0,0,1,.88-1.72,38.841,38.841,0,0,0,6.51-5.99,5.764,5.764,0,0,1,2.1-1.635.535.535,0,0,0,.3-.345l.52-1.88a.87.87,0,0,1,1.665-.045,2.245,2.245,0,0,0,.645.98.676.676,0,0,1,.235.49l.145,3.2Z" transform="translate(-47.705 -102.364)" fill="#d0566f"/>
    <path id="Path_3541" data-name="Path 3541" d="M407.415,212.48a141.693,141.693,0,0,1,2.285,55.47c-10.895,70.075-74.59,121.5-145.53,117.32,3.625-1.555,7.5-2.865,11.465-2.285,1.66.245,7.02.35,8.4-.32a13.932,13.932,0,0,0,1.845-1.065.738.738,0,0,1,.47-.125,14.962,14.962,0,0,0,7.11-1.105.936.936,0,0,1,.6.045.936.936,0,0,0,.47.03c3.66-.685,7.09-.91,10.69-1.97q.285-.08.005-.17l-.26-.08a.065.065,0,0,1,0-.12,16.981,16.981,0,0,1,2.75-.605,57.839,57.839,0,0,0,7.16-2.01c1.125-.365,2.625-1.365,4.36-1.39a.886.886,0,0,0,.475-.14c1.73-1.09,4.37-1.56,5.8-2.925,1.465-1.395,3.4-1.86,4.855-2.76a62.614,62.614,0,0,1,8.4-4.355q.11-.045.155-.005a.206.206,0,0,1,.065.12q.02.08.085.03a28.563,28.563,0,0,0,3.495-2.5c.93-.9,2.135-1.42,3.09-2.205,2.335-1.94,5.53-2.8,7.45-5.03.66-.77,1.43-.925,2.11-1.55a37.073,37.073,0,0,1,2.95-2.45.407.407,0,0,1,.25-.085h.175a.451.451,0,0,0,.365-.15q4.31-4.55,8.52-9.2c3.435-3.8,8.565-8.83,12.48-13.61a.843.843,0,0,0,.19-.44,2.449,2.449,0,0,1,1.375-2.025.888.888,0,0,0,.35-.325c.515-.87,1.215-1.61,1.635-2.505a35.64,35.64,0,0,1,4.075-6.7c2.05-2.66,3.395-5.4,5.17-8.13a2.821,2.821,0,0,0,.445-1.18.984.984,0,0,1,.17-.425,25.426,25.426,0,0,0,4.045-8.7,31.68,31.68,0,0,1,2.055-5.635c1.02-2.3,1.435-4.49,2.82-6.675a5.261,5.261,0,0,0,.76-1.955c.475-2.845,1.595-5.67,2.05-8.31q.435-2.55.93-5.09c.37-1.925.295-4.215.85-6.355a26.017,26.017,0,0,0,.7-3.435c.19-1.645.57-3.23.605-4.85a95.854,95.854,0,0,0,.11-9.955c-.19-2.275.335-4.995.275-6.715-.08-2.43-.865-4.6-1.025-6.75a.14.14,0,0,1,.265-.075l.1.21q.105.225.155-.02l.86-4.47a.488.488,0,0,0-.07-.355,10.308,10.308,0,0,1-1.73-6.06.245.245,0,0,0-.275-.245q-.215.035-.235-.14c-.24-2.37-.885-3.465-.115-5.965a1.081,1.081,0,0,0,.035-.515q-.175-.98.88-1.015Z" transform="translate(-132.085 -106.24)" fill="#990240"/>
    <path id="Path_3542" data-name="Path 3542" d="M400.12,265.27l29.44.025-1.065.93q-.24.355-.425.225-.13-.085-.915.22c-27.335.28-54.66.215-81.99.21q-1.335-.185-1.59-1.145a.277.277,0,0,0-.285-.225q-.1,0-.23-.01l.325-.12a1.293,1.293,0,0,1,.475-.09l56.26-.02Z" transform="translate(-171.53 -132.635)" fill="#a79ba4"/>
    <path id="Path_3543" data-name="Path 3543" d="M370.83,265.32a4.087,4.087,0,0,1,1.915,1.745,4.257,4.257,0,0,0,1.57,1.895,1.086,1.086,0,0,1,.52.7,75.7,75.7,0,0,1,1.09,9.235,1.964,1.964,0,0,1-.12.825c-.52,1.45-.3,3.435-.44,4.98-.43,4.735-.57,9.05-1.865,13.685-.585,2.105-.77,4.33-1.27,6.23a122.572,122.572,0,0,1-73.535,83.3,94.693,94.693,0,0,1-14.675,4.555c-6.75,1.485-10.3,2.41-15.565,2.84a173.981,173.981,0,0,1-19.4.575.373.373,0,0,1-.335-.22.493.493,0,0,0-.33-.25l-2.825-.595a.6.6,0,0,0-.33.025,7.349,7.349,0,0,1-5.7-.1.782.782,0,0,0-.41-.06,1.87,1.87,0,0,1-1.35-.515,6.741,6.741,0,0,0-3.5-1.23c-.955-.1-1.23-.7-2.04-.84a16.4,16.4,0,0,0-5.07-.23,3.217,3.217,0,0,1-1.435-.04q-.275-.09.01-.13l1.015-.135q.11-.015.035-.1l-.79-.9a.205.205,0,0,1,.005-.315l1.29-1.31a.16.16,0,0,0-.12-.275h-.135q-.115,0-.1-.115a.833.833,0,0,1,.2-.37,139.847,139.847,0,0,0,16.4,2.46q4.755.3,16.835-.015a84.221,84.221,0,0,0,10.57-1.2q.39-.06,0-.115a.715.715,0,0,1-.27-.09q4.1-.875,8.21-1.8a117.9,117.9,0,0,0,22.16-7.36,120.833,120.833,0,0,0,22.535-13.375c19.57-15.22,34.43-35.285,41.6-59.14,3.31-11.01,5.365-21.575,5.08-33.19-.045-1.945.4-4.015-.325-6.005a.647.647,0,0,1,.02-.49,1.3,1.3,0,0,0-.2-1.61l1.065-.93Z" transform="translate(-112.8 -132.66)" fill="#990240"/>
    <path id="Path_3544" data-name="Path 3544" d="M343.06,265.73q.135.01.23.01a.277.277,0,0,1,.285.225q.255.96,1.59,1.145-.945-.23-.915.63.17,5.125.14,10.25l-1.1,1.41q-.11-.015-.22-.035l-.015-13.635Z" transform="translate(-171.53 -132.865)" fill="#bbb8c0"/>
    <path id="Path_3545" data-name="Path 3545" d="M399.69,267.18a1.3,1.3,0,0,1,.2,1.61.647.647,0,0,0-.02.49c.725,1.99.28,4.06.325,6.005.285,11.615-1.77,22.18-5.08,33.19-7.165,23.855-22.025,43.92-41.6,59.14a120.831,120.831,0,0,1-22.535,13.375,117.9,117.9,0,0,1-22.16,7.36q-4.11.925-8.21,1.8c-1.325.065-2.54.41-3.87.43a18.331,18.331,0,0,0-3.785.455c-.51.115-1.065-.3-1.635-.27-1.625.085-3.29-.02-4.9.165q-.775.085-.975-.865A116.967,116.967,0,0,0,399.1,278.21q.145-3.1.17-10.8.185.13.425-.225Z" transform="translate(-142.725 -133.59)" fill="#30333d"/>
    <path id="Path_3546" data-name="Path 3546" d="M316.775,267.612q-.025,7.7-.17,10.8A116.967,116.967,0,0,1,202.96,390.271c-30.915.535-59.76-10.02-82.49-31.04a2.679,2.679,0,0,1,3.64-.34.675.675,0,0,0,.5.105,19.684,19.684,0,0,1,8.23.22.713.713,0,0,0,.47-.055,5.587,5.587,0,0,1,2.075-.595.7.7,0,0,1,.5.145c40.51,30.235,95.5,29.3,134.215-3.625,22.41-19.06,35.055-46.345,36.88-75.8a.445.445,0,0,0-.225-.41q-.575-.31-1.64.34,0-.12-.17-.21a.485.485,0,0,0-.245-.055q-16.29-.05-32.6-.035c1.635-.145,5.325.26,6.59-.48a.326.326,0,0,0,.165-.355,1.354,1.354,0,0,1,.755-1.545.3.3,0,0,0,.16-.375,2.01,2.01,0,0,1,1.36-2.7q.1-.04.1.07,0,.065-.005.14-.05.585.175-.01c.24-.64.9-1.98.435-2.58q-.095-.125.055-.165a6.951,6.951,0,0,1,1.475-.4,268.3,268.3,0,0,0,32.555-2.15.2.2,0,0,0,.185-.275.385.385,0,0,0-.25-.265q.785-.3.915-.22Z" transform="translate(-60.235 -133.797)" fill="#b9c4ca"/>
    <path id="Path_3547" data-name="Path 3547" d="M428.344,268.07a.386.386,0,0,1,.25.265.2.2,0,0,1-.185.275,268.292,268.292,0,0,1-32.555,2.15,6.953,6.953,0,0,0-1.475.4q-.15.04-.055.165c.46.6-.2,1.94-.435,2.58q-.225.6-.175.01,0-.075.005-.14,0-.11-.1-.07a2.01,2.01,0,0,0-1.36,2.7.3.3,0,0,1-.16.375,1.354,1.354,0,0,0-.755,1.545.326.326,0,0,1-.165.355c-1.265.74-4.955.335-6.59.48l-39.01.005q.03-5.125-.14-10.25-.03-.86.915-.63c27.33.005,54.655.07,81.99-.21Z" transform="translate(-172.719 -134.035)" fill="#fff"/>
    <path id="Path_3548" data-name="Path 3548" d="M43.645,275.357a116.372,116.372,0,0,0,12.85,55.075l-.195.13a.308.308,0,0,0-.14.3,1.088,1.088,0,0,1-.615,1.02,106.025,106.025,0,0,1-10.6-29.615,15.9,15.9,0,0,0-1.015-3.365q-.38-4.065-1.035-8.085a58.329,58.329,0,0,1-.735-6.48q-.16-3.38-.25-6.535l.08-2.865a1.084,1.084,0,0,1,1.655.415Z" transform="translate(-20.955 -137.357)" fill="#a79ba4"/>
    <path id="Path_3549" data-name="Path 3549" d="M28.9,280.39q.09,3.155.25,6.535a58.328,58.328,0,0,0,.735,6.48q.655,4.02,1.035,8.085c2.685,17.015,9.04,34.07,18.94,48.265a.285.285,0,0,1-.415.38q-27.785-23.31-33.55-59.57.52-.765.6-.42c4.12-2.9,6.98-7.01,10.955-10.125a.64.64,0,0,1,.42-.14,1.318,1.318,0,0,1,1.03.51Z" transform="translate(-7.95 -139.94)" fill="#d87484"/>
    <path id="Path_3550" data-name="Path 3550" d="M196.355,284.626q-.425,15.86-.22,22.135.645,19.58.185,28.5-.255,4.975-.185,7.045a3.187,3.187,0,0,0-2.425,1.755,27.728,27.728,0,0,1-5.8,6.12,28.405,28.405,0,0,0-4.275,5.735.878.878,0,0,1-.365.325c-3.4,1.6-5.94,4.71-8.58,7.255-1.92,1.85-6.665,4.86-6.84,7.635a.256.256,0,0,0,.14.255l.195.105q.415.22-.05.26c-4.855.425-9.945-.095-14.9-.53-9.6-4.3-18.755-12.005-26.01-19.725l.01-.785a.6.6,0,0,1,.18-.415,50.988,50.988,0,0,1,4.67-4.63c3.06-2.3,4.79-4.365,7.265-6.365,1.5-1.22,2.72-2.87,4.025-3.77,2.025-1.39,2.755-3.2,4.685-4.465a8.676,8.676,0,0,0,1.765-1.74c1.305-1.6,2.88-2.8,4.26-4.335,1.475-1.645,3.51-3.135,4.91-5.135a.63.63,0,0,0,.11-.275q.015-.1.03-.205a.112.112,0,0,1,.125-.115h.225a.459.459,0,0,0,.35-.15l9.58-10.355a1.468,1.468,0,0,1,.355-.285,7.223,7.223,0,0,0,3.1-3.365,1.53,1.53,0,0,1,.305-.435q.5-.49,1.41-1.575c3.325-3.94,7.72-7.4,11.175-11.945a35.773,35.773,0,0,1,4.9-4.405.483.483,0,0,1,.345-.115q.08.005.16.005a.347.347,0,0,0,.325-.175,9.718,9.718,0,0,0,1.54-3.345,7.434,7.434,0,0,1,.865-2.215.78.78,0,0,1,1.335-.005,8.167,8.167,0,0,1,1.135,3.73Z" transform="translate(-63.61 -140.261)" fill="#cb4063"/>
    <path id="Path_3551" data-name="Path 3551" d="M344.625,290.242l39.01-.005q16.3-.015,32.595.035a.485.485,0,0,1,.245.055q.165.09.17.21a.436.436,0,0,1-.15.32A1.383,1.383,0,0,0,415.44,292a.69.69,0,0,0-.66.21.151.151,0,0,1-.225.05l-.4-.24a.62.62,0,0,0-.34-.09c-26.935.34-46.74.03-70.125.065l-.16-.345,1.1-1.41Z" transform="translate(-171.765 -145.117)" fill="#645f6b"/>
    <path id="Path_3552" data-name="Path 3552" d="M456.59,291.48q-.075.27.24.48a.366.366,0,0,1,.17.35A105.824,105.824,0,0,1,424.31,361.9q-.105-1.32-.59-1.545a104.736,104.736,0,0,0,30.1-55.2,108.054,108.054,0,0,0,1.715-12.525A1.383,1.383,0,0,1,456.59,291.48Z" transform="translate(-211.86 -145.74)" fill="#bbb8c0"/>
    <path id="Path_3553" data-name="Path 3553" d="M261.165,293q.11.02.22.035l.16.345q2.215,3.92,6.075,3.98,10.39.165,35.72-.095c2.575-.025,5.665.25,8.495.2,6.52-.1,13.08-.025,19.465.085q1.315.02.965,1.29a34.989,34.989,0,0,0-1.1,6.21.4.4,0,0,0,.15.36.825.825,0,0,1,.265.495,104.735,104.735,0,0,1-30.1,55.2c-33.505,31.47-80.62,37.9-121.62,16.965l-.62-.615c4.96.435,10.05.955,14.9.53q.465-.04.05-.26l-.195-.1a.256.256,0,0,1-.14-.255c.175-2.775,4.92-5.785,6.84-7.635,2.64-2.545,5.175-5.655,8.58-7.255a.877.877,0,0,0,.365-.325,28.407,28.407,0,0,1,4.275-5.735,27.727,27.727,0,0,0,5.8-6.12,3.187,3.187,0,0,1,2.425-1.755l.315.14q-.2-.11-.005.085c1.315,2.045,2.935,4.8,5.665,4.77q18.14-.21,36.28-.16a12.467,12.467,0,0,0,2.955-.1.92.92,0,0,0,.715-.83,47.018,47.018,0,0,0-.175-8.725,21.9,21.9,0,0,0-.365-3.945,7.033,7.033,0,0,0-3.275-4.05q.23.015-.225-1.035l-23.825-.05-.18-20.515q.065.03.1.17.085.3.245.08.09-.125.35-.06a.414.414,0,0,1,.265.2l.545.92q.175.29.4.035l.885-1.02a.245.245,0,0,0-.005-.325q-.1-.115-.14-.115a.851.851,0,0,1-.825-.781.753.753,0,0,1,.71-.814c1.34-.135,1.765-1.955,3.025-2.735a7.239,7.239,0,0,0,3.1-4.01.605.605,0,0,1,.3-.34c2.34-1.2,4.3-3.66,6.425-5.315q.67-.52,0-1.37a.318.318,0,0,1,.04-.43Z" transform="translate(-89.62 -146.5)" fill="#c1004c"/>
    <path id="Path_3554" data-name="Path 3554" d="M415.6,293.7a108.058,108.058,0,0,1-1.715,12.525.826.826,0,0,0-.265-.495.4.4,0,0,1-.15-.36,34.992,34.992,0,0,1,1.1-6.21q.35-1.27-.965-1.29c-6.385-.11-12.945-.185-19.465-.085-2.83.045-5.92-.23-8.495-.205q-25.33.26-35.72.1-3.86-.06-6.075-3.98c23.385-.035,43.19.275,70.125-.065a.62.62,0,0,1,.34.09l.4.24a.151.151,0,0,0,.225-.05.69.69,0,0,1,.66-.21Z" transform="translate(-171.925 -146.815)" fill="#990240"/>
    <path id="Path_3555" data-name="Path 3555" d="M296.455,376.28l23.825.05-1.395,1.6-26.52-.185a.473.473,0,0,1-.175-.045l-.45-.22.795-1.08,3.92-.12Z" transform="translate(-145.87 -188.14)" fill="#a79ba4"/>
    <path id="Path_3556" data-name="Path 3556" d="M347.42,376.38q.455,1.05.225,1.035l-.04,13.2a4.757,4.757,0,0,1-1.585-1.665l.005-10.97,1.4-1.6Z" transform="translate(-173.01 -188.19)" fill="#30333d"/>
    <path id="Path_3557" data-name="Path 3557" d="M307.47,378.45a7.033,7.033,0,0,1,3.275,4.05,21.9,21.9,0,0,1,.365,3.945,47.016,47.016,0,0,1,.175,8.725.92.92,0,0,1-.715.83,12.468,12.468,0,0,1-2.955.1q-18.14-.05-36.28.16c-2.73.035-4.35-2.725-5.665-4.77,1.14.065,2.3.245,3.385.245q19.055-.02,38.375-.09Z" transform="translate(-132.835 -189.225)" fill="#990240"/>
    <path id="Path_3558" data-name="Path 3558" d="M70.13,386.15a115.772,115.772,0,0,0,24.695,32.36c22.73,21.02,51.575,31.575,82.49,31.04q.2.95.975.865c1.61-.185,3.275-.08,4.9-.165.57-.03,1.125.385,1.635.27a18.328,18.328,0,0,1,3.785-.455c1.33-.02,2.545-.365,3.87-.43a.714.714,0,0,0,.27.09q.39.055,0,.115a84.221,84.221,0,0,1-10.57,1.2q-12.08.315-16.835.015a139.847,139.847,0,0,1-16.4-2.46c-34.24-7.045-63.57-30.35-79.765-60.985a1.088,1.088,0,0,0,.615-1.02.308.308,0,0,1,.14-.3Zm137.47,7.685a4.757,4.757,0,0,0,1.585,1.665q-19.32.07-38.375.09c-1.08,0-2.245-.18-3.385-.245q-.2-.2.005-.085a3.665,3.665,0,0,1,.92-1.275l.27-.085a.88.88,0,0,1,.28-.045l38.7-.02Z" transform="translate(-34.59 -193.075)" fill="#645f6b"/>
    <path id="Path_3559" data-name="Path 3559" d="M302.1,429.22q.485.225.59,1.545A105.6,105.6,0,0,1,186.6,450.86a2.088,2.088,0,0,0-.94-1.765,12.063,12.063,0,0,0-2.92-1.465,2.881,2.881,0,0,1-2.255-1.445C221.48,467.115,268.595,460.69,302.1,429.22Z" transform="translate(-90.24 -214.61)" fill="#a79ba4"/>
    <path id="Path_3560" data-name="Path 3560" d="M965.583,646.979h-4.97q-19.085-1.595-27.425-17.225c-5.17-9.685-5.41-22.565-.93-32.545,7.23-16.115,24.8-22.43,41.36-17.74,3.98,1.125,11.59,4.79,13.11,8.985,1.52,4.215-3.485,7.295-6.99,4.795a35.207,35.207,0,0,0-9.08-5.045,23.711,23.711,0,0,0-29.375,12.685,29.547,29.547,0,0,0-.95,21.23c2.965,9.6,10.36,15.42,20.2,16.34,7.03.66,15.2-.995,20.8-5.745a.465.465,0,0,0,.17-.37v-11.49a.37.37,0,0,0-.37-.37q-7.52-.005-15.13-.04c-5.23-.025-6.68-6.82-1.96-8.47a12.2,12.2,0,0,1,3.53-.36q9.21-.035,18.425.01c4.41.02,4.99,3.23,5,7.055q.015,7.34,0,14.675a4.674,4.674,0,0,1-1.59,3.57c-6.405,6.51-14.825,9.435-23.82,10.055Zm-115.99-41.22c-1.725-.965-1.565-2.945-.875-4.675,2.54-6.39,3.14-11.1,2.855-18.23-.185-4.66,6.2-6.48,7.955-2.12a11.682,11.682,0,0,1,.48,4.07C859.983,589.029,859.008,611.024,849.593,605.759Zm-141.07,30.955q14.76.045,29.505.01a10.65,10.65,0,0,1,4.1.55,4.429,4.429,0,0,1,1.35,6.95c-1.175,1.33-2.44,1.62-4.31,1.625q-17.65.01-35.3-.035c-4.69-.015-5.365-2.99-5.37-7.125q-.01-27.545-.005-55.085c0-6.85,9.765-7.035,9.755-.12q-.03,26.48.01,52.965a.232.232,0,0,0,.26.265Zm436.725-54.455V642.5c-.505,5.345-7.665,5.65-8.99.4a27.216,27.216,0,0,1-.165-3.685q-.03-.4-.265-.075a18.459,18.459,0,0,1-13.88,7.84h-3.235c-27.125-2.96-24.725-47.42,2.9-45.635a17.438,17.438,0,0,1,13.93,7.84.115.115,0,0,0,.21-.065q0-12.845.005-25.765A4.792,4.792,0,0,1,1145.248,582.259Zm-23.014,56.95c7.437.039,13.5-6.695,13.544-15.04s-5.949-15.141-13.385-15.18-13.5,6.695-13.544,15.04,5.949,15.14,13.385,15.179ZM775.468,610.234c-2.155-.015-5.83.385-7.55-.47-2.515-1.25-2.53-5.62-.095-6.865,1.775-.91,5.365-.56,7.645-.535a.225.225,0,0,0,.26-.25c.14-5.055-.395-10.385,1.69-15.105,3.145-7.115,10.675-8.59,17.84-8.265a6.028,6.028,0,0,1,3.075.785,3.952,3.952,0,0,1-.6,6.76c-1.605.765-4.55.345-6.265.505-4.37.41-5.795,3.1-6.09,7.3a64.863,64.863,0,0,0-.075,8.01.227.227,0,0,0,.255.245c2.88.015,8.87-.625,11.36.485,3.755,1.665,2.37,7.385-1.91,7.39q-4.76,0-9.495.005a.233.233,0,0,0-.26.26q-.015,15.57,0,31.115c.005,6.83-9.525,6.58-9.51,0q.03-15.55-.01-31.1a.239.239,0,0,0-.265-.27Z" transform="translate(-349.248 -288.979)" fill="#727980"/>
    <circle id="Ellipse_13" data-name="Ellipse 13" cx="5.55" cy="5.55" r="5.55" transform="translate(399.955 294.79)" fill="#727980"/>
    <path id="Path_3561" data-name="Path 3561" d="M926.382,670.162h-3.6q-10.5-.71-16.23-8.125c-5.645-7.305-6.165-18.525-1.735-26.56a21.824,21.824,0,0,1,20.56-11.06c12.225.7,19.64,10.63,19.785,22.5q.04,3.69-3.74,3.7-14.73.04-29.47.055-.245,0-.215.24c.74,7.02,5.405,11.1,12.165,11.65a16.213,16.213,0,0,0,12.925-4.93c4.61-4.425,9.93,2.16,4.32,6.765A25.211,25.211,0,0,1,926.382,670.162Zm9.835-27.455c-2.115-14.575-22.52-13.785-24.265-.055q-.03.26.23.26h23.86q.2,0,.175-.2Zm49.045,27.455h-4.1a27.056,27.056,0,0,1-13.185-4.54c-2.17-1.455-3.875-4.85-1.575-6.875,2.64-2.325,5.815.15,8.02,1.525a16.85,16.85,0,0,0,14.515,2.055,4.383,4.383,0,0,0,1.445-7.745,11.544,11.544,0,0,0-3.355-1.59c-7.675-2.565-20.075-4.425-21.185-14.505q-.83-7.5,5.495-11.29c7.8-4.675,19.255-3.175,26.63,1.14,2.365,1.38,3.56,4.875.995,6.685-2.385,1.68-5.62-.465-7.925-1.465-3.65-1.58-15.22-3.56-16.22,2.68-.485,3.03,2.845,4.67,5.51,5.495,6.61,2.05,14.66,3.73,18.48,8.17,4.51,5.245,2.97,13.71-2.785,17.245a21.89,21.89,0,0,1-10.76,3.015Zm138.885,0h-3.88q-17.465-2.18-20.625-19.495a20.482,20.482,0,0,1-.005-6.445c1.635-11.815,10.415-19.8,22.47-19.875C1151.572,624.167,1153.782,667.457,1124.147,670.162ZM1109.3,650.527c1.905,14.18,21.535,15.8,25.64,2.385,2.41-7.885-.37-18.385-9.51-20.105C1113.6,630.577,1107.912,640.127,1109.3,650.527Z" transform="translate(-450.932 -312.162)" fill="#727980"/>
    <path id="Path_3562" data-name="Path 3562" d="M1423.8,670.2h-4.23q-15.155-1.6-19.74-15.49c-3.465-10.5,1.145-23.345,11.42-28.115a25.469,25.469,0,0,1,22.515.895c10.715,6.07,13.78,20.845,7.91,31.475Q1436.22,668.842,1423.8,670.2Zm-10.61-11.1a13.552,13.552,0,0,0,16.965.1c6.265-5.2,6.415-16.35,1.405-22.3-3.745-4.445-10.43-5.57-15.725-3.17C1406.63,637.892,1405.855,653.192,1413.19,659.1Z" transform="translate(-699.345 -312.197)" fill="#727980"/>
    <rect id="Rectangle_19" data-name="Rectangle 19" width="9.5" height="45" rx="4.75" transform="translate(400.75 312.625)" fill="#727980"/>
    <path id="Path_3563" data-name="Path 3563" d="M922.037,650.391c1.745-13.73,22.15-14.52,24.265.055q.03.205-.175.205h-23.86q-.26,0-.23-.26Z" transform="translate(-461.017 -319.901)" fill="#fff"/>
    <ellipse id="Ellipse_14" data-name="Ellipse 14" cx="15.11" cy="13.465" rx="15.11" ry="13.465" transform="matrix(-0.005, 1, -1, -0.005, 786.609, 320.081)" fill="#fff"/>
    <path id="Path_3564" data-name="Path 3564" d="M1372.009,667.2c-7.335-5.91-6.56-21.21,2.645-25.38,5.295-2.4,11.98-1.275,15.725,3.17,5.01,5.955,4.86,17.11-1.405,22.3A13.552,13.552,0,0,1,1372.009,667.2Zm-29.835-6.155c-4.1,13.415-23.735,11.8-25.64-2.385-1.39-10.4,4.3-19.95,16.13-17.72C1341.8,642.656,1344.584,653.156,1342.174,661.041Zm111.99,12.77v4.48h-23.3a18.46,18.46,0,0,0,13.88-7.84q.235-.32.265.075a27.218,27.218,0,0,0,.165,3.685C1446.5,679.461,1453.659,679.156,1454.164,673.811Z" transform="translate(-658.164 -320.291)" fill="#fff"/>
  </g>
</svg>
