<svg xmlns="http://www.w3.org/2000/svg" width="340.895" height="95.064" viewBox="0 0 340.895 95.064">
  <g id="Dacor" transform="translate(-866.834 -514.292)">
    <path id="Path_3" data-name="Path 3" d="M175.023,107.19c2.784,0,4.282,2.141,3.641,4.925l-3,16.058a5.593,5.593,0,0,1-5.567,4.067H142.907a4.021,4.021,0,0,1-3.854-4.925l3.212-17.341c.428-1.713,1.285-2.784,4.067-2.784l-5.138-15.63c-4.067,0-11.348,2.141-12.846,9.207l-5.995,32.33c-1.285,6.851,2.356,14.774,10.277,14.774h43.463c5.568,0,11.99-1.713,13.489-10.064l6.21-34.043c1.285-6.636-3.426-12.2-10.279-12.2h-44.32l5.138,15.63Z" transform="translate(962.051 461.485)" fill="#1a1818" fill-rule="evenodd"/>
    <path id="Path_4" data-name="Path 4" d="M149.634,107.19H110.024c-2.784,0-3.641,1.071-4.069,2.784l-3.211,17.341a4.02,4.02,0,0,0,3.854,4.925h38.325l-2.784,15.63H96.322c-7.923,0-11.561-7.923-10.277-14.774l5.995-32.33c1.5-7.066,8.779-9.207,12.846-9.207h47.745Z" transform="translate(932.202 461.485)" fill="#1a1818" fill-rule="evenodd"/>
    <path id="Path_5" data-name="Path 5" d="M27.066,124.675c-2.782,0-3.641,1.071-4.069,2.784L19.787,144.8a4.02,4.02,0,0,0,3.854,4.925h34.9l4.5-25.051,3-15.63L73.1,70.292H88.514l-6.849,38.753h8.564l-3,15.63H78.665L72.67,157.433c-.855,4.71-5.352,7.923-8.777,7.923H13.364c-7.923,0-11.561-7.923-10.277-14.774l5.995-32.33c1.5-7.066,8.779-9.207,12.846-9.207H66.034l-3,15.63Z" transform="translate(864 444)" fill="#1a1818" fill-rule="evenodd"/>
    <path id="Path_6" data-name="Path 6" d="M188.74,96.271l3.641-3.426c1.926-1.285,4.067-1.285,6.208-1.285h14.131l-3,15.627h-15.2c-4.069,0-9.422,1.93-10.492,7.5l-6.21,33.186H162.19l10.279-56.309H186.6Z" transform="translate(995.01 461.486)" fill="#1a1818" fill-rule="evenodd"/>
    <path id="Path_7" data-name="Path 7" d="M116.535,106.334c1.285-6.851-2.356-14.774-10.277-14.774H62.795L60.01,107.19H98.548c3.856,0,1.715,4.5-.855,4.5H61.08c-4.067,0-11.346,2.141-12.846,9.205l-2.141,12.2c-1.285,6.851,2.356,14.774,10.277,14.774H97.694c4.067,0,11.346-2.141,12.846-9.207l-14.559-6.423h-31.9c-2.356,0-2.784-4.925,1.285-4.925H97.051l-1.07,4.925,14.559,6.423Z" transform="translate(899.356 461.485)" fill="#1a1818" fill-rule="evenodd"/>
  </g>
</svg>
