<svg id="Electrolux" xmlns="http://www.w3.org/2000/svg" xmlns:xlink="http://www.w3.org/1999/xlink" width="408.534" height="93.795" viewBox="0 0 408.534 93.795">
  <defs>
    <clipPath id="clip-path">
      <rect id="Rectangle_1" data-name="Rectangle 1" width="408.534" height="93.795" fill="none"/>
    </clipPath>
  </defs>
  <g id="Group_3" data-name="Group 3" clip-path="url(#clip-path)">
    <path id="Path_8" data-name="Path 8" d="M0,93.795H93.789V0H0ZM60.112,7.165h0a41.888,41.888,0,0,1,0,79.451ZM46.878,5.041h0a47.116,47.116,0,0,1,8.843.927c0,21.25-20.55,38.737-41.761,38.737l-8.869-.013C6.544,22.908,24.568,5.041,46.878,5.041M13.967,49.129h0c21.206,0,41.75,17.468,41.75,38.7a47.2,47.2,0,0,1-8.839.944C24.561,88.743,5.927,70.818,5.084,49.131h8.884Z" fill="#121441" fill-rule="evenodd"/>
    <path id="Path_9" data-name="Path 9" d="M71.457,44.5V38.594H90.971V31.054H71.453V20.08H92.216V12.563H63.465v31.6c0,7.986,3.4,13.45,11.388,14.575a2.139,2.139,0,0,0,.463.07h.146a22.4,22.4,0,0,0,2.528.153H92.77v-7.51H78.055c-2.537,0-6.6-1.252-6.6-6.947" transform="translate(53.726 10.635)" fill="#121441" fill-rule="evenodd"/>
    <path id="Path_10" data-name="Path 10" d="M82.41,34.494V58.977H90.4V12.557H82.41Z" transform="translate(69.763 10.63)" fill="#121441" fill-rule="evenodd"/>
    <path id="Path_11" data-name="Path 11" d="M107.244,18.943c-10.1,0-17.66,6.958-17.66,17.8v.27c0,10.57,7.292,17.393,17.862,17.393a18.245,18.245,0,0,0,14.181-6.022L116.811,43.7a11.626,11.626,0,0,1-9.1,3.881c-5.953,0-9.9-3.479-10.169-8.83h26.225c.135-1.339.135-2.809.135-2.809,0-9.434-6.625-17-16.659-17m-9.5,14.183h0c.334-4.081,4.483-7.358,9.5-7.358,4.683,0,8.5,3.346,8.5,7.358Z" transform="translate(75.836 16.036)" fill="#121441" fill-rule="evenodd"/>
    <path id="Path_12" data-name="Path 12" d="M128.733,26.163a11.3,11.3,0,0,1,8.562,3.68l4.952-5.152a17.726,17.726,0,0,0-13.513-5.82c-10.169,0-18.331,7.56-18.331,17.862S118.566,54.6,128.735,54.6a17.727,17.727,0,0,0,13.513-5.82L137.3,43.624a11.293,11.293,0,0,1-8.562,3.678,10.22,10.22,0,0,1-10.37-10.57,10.221,10.221,0,0,1,10.37-10.57" transform="translate(93.461 15.975)" fill="#121441" fill-rule="evenodd"/>
    <path id="Path_13" data-name="Path 13" d="M138.334,44.52h-.009V32.669h7.27V25.408h-7.259V12.558h-7.994V44.994l.024,0c.227,7.541,3.654,12.678,11.365,13.762a2.27,2.27,0,0,0,.462.072h.148a22.818,22.818,0,0,0,2.528.151h.844l.031-7.508h-.809c-2.541,0-6.6-1.256-6.6-6.95" transform="translate(110.34 10.631)" fill="#121441" fill-rule="evenodd"/>
    <path id="Path_14" data-name="Path 14" d="M150.17,24.815V19.824h-7.927V53.39h7.927V35.739c0-5.527,3.529-8.991,9.054-8.991a15.976,15.976,0,0,1,3.333.334V19.357a17.088,17.088,0,0,0-2.4-.2c-4.8,0-8.393,2.2-9.99,5.656" transform="translate(120.414 16.219)" fill="#121441" fill-rule="evenodd"/>
    <path id="Path_15" data-name="Path 15" d="M172.224,18.978c-10.193,0-18.318,7.724-18.318,17.782s8.125,17.784,18.318,17.784c10.121,0,18.314-7.731,18.314-17.784s-8.191-17.782-18.314-17.782m0,28.306h0A10.267,10.267,0,0,1,161.835,36.76a10.389,10.389,0,1,1,20.777,0,10.307,10.307,0,0,1-10.389,10.523" transform="translate(130.288 16.066)" fill="#121441" fill-rule="evenodd"/>
    <path id="Path_16" data-name="Path 16" d="M176.406,33.692V58.977h8V12.557h-8Z" transform="translate(149.335 10.63)" fill="#121441" fill-rule="evenodd"/>
    <path id="Path_17" data-name="Path 17" d="M206.758,39.03c0,5.327-3.128,7.595-7.329,7.595S192.1,44.355,192.1,39.1V19.519h-8.058V39.766c0,9.591,6.993,14.187,15.319,14.187,8.393,0,15.448-4.661,15.448-14.386V19.521h-8.055Z" transform="translate(155.802 16.524)" fill="#121441" fill-rule="evenodd"/>
    <path id="Path_18" data-name="Path 18" d="M229.259,42.351,224.22,35.3l6.241-8.5,5.344-7.281h-8.723l-7.261,10.054-7.327-10.054h-8.657l4.964,6.79,6.625,9.061-6.943,9.667-5.78,8.047H211.3l8.524-11.855,8.524,11.855h8.592Z" transform="translate(171.597 16.524)" fill="#121441" fill-rule="evenodd"/>
  </g>
</svg>
