<svg xmlns="http://www.w3.org/2000/svg" xmlns:xlink="http://www.w3.org/1999/xlink" width="599.962" height="208.521" viewBox="0 0 599.962 208.521">
  <defs>
    <linearGradient id="linear-gradient" x1="-0.745" y1="1.369" x2="-0.705" y2="1.369" gradientUnits="objectBoundingBox">
      <stop offset="0" stop-color="#0891b4"/>
      <stop offset="0.41" stop-color="#0891b4"/>
      <stop offset="0.45" stop-color="#168eb0"/>
      <stop offset="0.52" stop-color="#3d87a6"/>
      <stop offset="0.6" stop-color="#6d7d9a"/>
      <stop offset="0.63" stop-color="#787b95"/>
      <stop offset="0.68" stop-color="#957488"/>
      <stop offset="0.74" stop-color="#c46a73"/>
      <stop offset="0.78" stop-color="#e46365"/>
      <stop offset="0.81" stop-color="#e66365"/>
      <stop offset="0.97" stop-color="#ec6464"/>
      <stop offset="1" stop-color="#ec6464"/>
    </linearGradient>
    <linearGradient id="linear-gradient-2" x1="-1.597" y1="-0.488" x2="-1.547" y2="-0.488" xlink:href="#linear-gradient"/>
    <linearGradient id="linear-gradient-3" x1="-0.374" y1="0.51" x2="-0.349" y2="0.51" xlink:href="#linear-gradient"/>
    <linearGradient id="linear-gradient-4" x1="0.5" x2="0.5" y2="1" gradientUnits="objectBoundingBox">
      <stop offset="0" stop-color="#e0601d"/>
      <stop offset="1" stop-color="#0891b4"/>
    </linearGradient>
  </defs>
  <g id="Eelica" transform="translate(-741 -717)">
    <path id="Path_3014" data-name="Path 3014" d="M39.7,289.8a1.636,1.636,0,0,0,2,1.2,1.612,1.612,0,0,0,.7-.4h0q9.3-4.8,18.9-9A121.336,121.336,0,0,0,91,263.3a48.324,48.324,0,0,0,9.5-10.7,12.359,12.359,0,0,0,1.5-12.3c-.2-.6-.5-1.2-.7-1.8a22.038,22.038,0,0,0-8-8.6,1.929,1.929,0,0,0-1-.3h-.5a3.552,3.552,0,0,0-.9.4,215,215,0,0,1-18.2,14.9,201.982,201.982,0,0,1-25.9,15.9l-1,.5a19.113,19.113,0,0,0-8,24.1A21.65,21.65,0,0,0,39.7,289.8Z" transform="translate(713.662 495.417)" fill="url(#linear-gradient)"/>
    <path id="Path_3015" data-name="Path 3015" d="M115,339.4h-.3c-.5,0-.7.5-.3,1a7.364,7.364,0,0,1,1.4,8,13.975,13.975,0,0,1-6.3,8,75.282,75.282,0,0,1-11,5.5A167.293,167.293,0,0,0,83,369a28.815,28.815,0,0,0-6.7,4.9,13.1,13.1,0,0,0-.6,18.5l1,1a1.151,1.151,0,0,0,1.7.1l.1-.1a117.432,117.432,0,0,1,26.3-15.9,111.644,111.644,0,0,0,14.5-7.7,12.844,12.844,0,0,0,6.4-10.2A20.462,20.462,0,0,0,115,339.4Z" transform="translate(713.662 495.417)" fill="url(#linear-gradient-2)"/>
    <path id="Path_3016" data-name="Path 3016" d="M114.7,257a1.854,1.854,0,0,0-.7-.2,1.11,1.11,0,0,0-1.1,1.1.909.909,0,0,0,.4.8,16.955,16.955,0,0,1,2.9,16.5,28.526,28.526,0,0,1-12.9,16A144.79,144.79,0,0,1,81,302.3a283.744,283.744,0,0,0-31.6,14.8A63.781,63.781,0,0,0,35.7,327a26.807,26.807,0,0,0-1.1,37.8,17.969,17.969,0,0,0,2,1.9,2.389,2.389,0,0,0,3.4.2c.1-.1.2-.1.2-.2A234.724,234.724,0,0,1,94,334.5a202.1,202.1,0,0,0,29.4-15.7A28.636,28.636,0,0,0,136.3,298,41.218,41.218,0,0,0,114.7,257Z" transform="translate(713.662 495.417)" fill="url(#linear-gradient-3)"/>
    <path id="Path_3017" data-name="Path 3017" d="M45.7,261.5l1-.5a210.283,210.283,0,0,0,26-15.9A200.529,200.529,0,0,0,91,230.3a1.268,1.268,0,0,1,.9-.4h.5a1.689,1.689,0,0,1,1,.3,21.844,21.844,0,0,1,7.9,8.6,13.354,13.354,0,0,1,.7,1.8,12.153,12.153,0,0,1-1.5,12.3A48.323,48.323,0,0,1,91,263.6,118.734,118.734,0,0,1,61.3,282c-6.4,2.7-12.7,5.8-18.9,9h0a1.694,1.694,0,0,1-2.3-.1,1.612,1.612,0,0,1-.4-.7c-.7-1.4-1.4-2.7-2-4.2A19.162,19.162,0,0,1,45.7,261.5Zm80,98a12.7,12.7,0,0,1-6.4,10.2,91.633,91.633,0,0,1-14.5,7.7,112.407,112.407,0,0,0-26.4,15.9,1.151,1.151,0,0,1-1.7.1l-.1-.1a13.133,13.133,0,0,1-1.4-18.5,4.74,4.74,0,0,1,1-1A29.808,29.808,0,0,1,83,369a145.325,145.325,0,0,1,15.5-7.2,75.282,75.282,0,0,0,11-5.5,13.975,13.975,0,0,0,6.3-8,7.364,7.364,0,0,0-1.4-8,.59.59,0,0,1,.3-1h.3A20.065,20.065,0,0,1,125.7,359.5Zm-2.2-40.7a207.407,207.407,0,0,1-29.4,15.7,235.747,235.747,0,0,0-53.9,32.3,2.389,2.389,0,0,1-3.4.2c-.1-.1-.2-.1-.2-.2a26.655,26.655,0,0,1-2.7-37.7c.6-.7,1.2-1.3,1.9-2a63.78,63.78,0,0,1,13.7-9.9,283.739,283.739,0,0,1,31.6-14.8,154.415,154.415,0,0,0,22.3-11.1,28.051,28.051,0,0,0,12.9-16,17,17,0,0,0-2.9-16.5,1.007,1.007,0,0,1-.1-1.5,1.234,1.234,0,0,1,.8-.4,1.445,1.445,0,0,1,.7.2,41.06,41.06,0,0,1,21.6,41A29.453,29.453,0,0,1,123.5,318.8Z" transform="translate(713.662 495.417)" fill="url(#linear-gradient-4)"/>
    <path id="Path_3018" data-name="Path 3018" d="M289,301.4c-1.8-21.1-13.9-39.6-37.1-39.6-20.2,0-35.5,16.8-37.8,39.6Zm-34.4,67.1c-31.9,0-58-24.5-58-60.4v-.5c0-33.5,23.6-60.5,55.7-60.5,34.4,0,53.9,28.1,53.9,58.8a8.024,8.024,0,0,1-8,8H214.1c2.5,25.2,20.2,39.3,40.9,39.3a47.691,47.691,0,0,0,33.5-13.5,7.46,7.46,0,0,1,10.6.4,7.2,7.2,0,0,1-.7,10.6,58.87,58.87,0,0,1-43.8,17.5m72.2-137.5a8.662,8.662,0,0,1,17.3-.9V358.3a8.481,8.481,0,0,1-8.1,8.8h-.4a8.622,8.622,0,0,1-8.8-8.5V230.7Zm39.9,26.6a8.662,8.662,0,1,1,17.3-.9v102a8.481,8.481,0,0,1-8.1,8.8h-.4a8.621,8.621,0,0,1-8.7-8.6V257.3Zm36.6,51v-.5A60.395,60.395,0,0,1,505.7,264a8.034,8.034,0,0,1,2.7,6,8.28,8.28,0,0,1-8.3,8.3h0a8.929,8.929,0,0,1-5.6-2c-8.3-7.6-17.7-13.9-31.7-13.9-23.6,0-41.6,20-41.6,44.9v.5c0,25.2,18.4,45.2,42.8,45.2,13.4,0,23.8-6.1,32.4-14.2a6.765,6.765,0,0,1,4.9-2.2,8.119,8.119,0,0,1,7.9,7.9,7.492,7.492,0,0,1-2.2,5.3,58.231,58.231,0,0,1-43.8,18.7,59.706,59.706,0,0,1-59.6-59.7v-.5m207.3,14.9V311.9a119.84,119.84,0,0,0-34.2-4.9c-21.8,0-33.9,9.4-33.9,24.1v.5c0,14.6,13.4,23.1,29.2,23.1,21.3,0,38.9-13.1,38.9-31.5m-85.6,9v-.5c0-24.5,20.2-37.4,49.7-37.4a126.6,126.6,0,0,1,35.7,4.9V295c0-20.9-12.8-31.7-34.6-31.7a72.434,72.434,0,0,0-30.1,6.5,11.433,11.433,0,0,1-3.2.7,7.731,7.731,0,0,1-7.8-7.4,8.028,8.028,0,0,1,4.7-7.2,92.151,92.151,0,0,1,38-7.9c16.4,0,29,4.3,37.4,12.8,7.9,7.9,11.9,19.1,11.9,33.9v63.6a8.1,8.1,0,0,1-7.8,8.5h-.5a8.027,8.027,0,0,1-8.3-7.7v-11a50.681,50.681,0,0,1-42,20c-21.6,0-43.4-12.4-43.4-36.2M406.5,421.5a5.974,5.974,0,0,0,6.3,5.4h.3c4.8,0,8.7-3,8.7-7.2v-2.5a22.451,22.451,0,0,0-7.7-1.1c-4.8-.2-7.6,2-7.6,5.4m-.4-13.6-1.1-3.3a20.719,20.719,0,0,1,9.5-2.2c7.1,0,11.1,3.7,11.1,10.7v16.4h-3.7v-4a11.246,11.246,0,0,1-9.4,4.6c-4.9,0-9.8-2.7-9.8-8.4s4.5-8.7,11.2-8.7a30.873,30.873,0,0,1,8,1.1v-.9c0-4.8-2.9-7.3-7.8-7.3a15.6,15.6,0,0,0-8,2m28.6,21.6h-3.8V402.8h3.9v7a11.343,11.343,0,0,1,10.7-7.5v4.3h-.3c-5.7,0-10.4,4.2-10.4,12.3Zm13.8-26.8h3.9v26.7h-3.9Zm-.2-10.3h4.4v4.4h-4.4Zm12.1,29.1c0,3.4,3,5.3,6.6,5.3,4.8,0,8.7-3,8.7-7.2v-2.5A22.451,22.451,0,0,0,468,416c-4.9-.1-7.6,2.1-7.6,5.5m-.5-13.6-1.2-3.3a21.017,21.017,0,0,1,9.5-2.2c7.1,0,11.1,3.7,11.1,10.7v16.4h-3.7v-4a11.246,11.246,0,0,1-9.4,4.6c-4.9,0-9.8-2.7-9.8-8.4s4.6-8.7,11.2-8.7a30.873,30.873,0,0,1,8,1.1v-.9c0-4.8-2.9-7.3-7.8-7.3a17.242,17.242,0,0,0-8,2m40.8,21.6h-3.9V402.8h3.9v4.7a9.85,9.85,0,0,1,9-5.3c6.3,0,10,4.4,10,10.7v16.6h-3.9V413.9c0-5-2.7-8-7.2-8a7.876,7.876,0,0,0-7.9,7.7v15.9Zm42.7-26.8h3.8v26.7h-3.8v-4.6a9.85,9.85,0,0,1-9,5.3c-6.3,0-10-4.4-10-10.7V402.6h3.9v15.7c0,5,2.7,8,7.2,8a7.9,7.9,0,0,0,7.9-7.8V402.7Zm21.5,2.9a9.731,9.731,0,0,0-9.6,9.9v.5a9.959,9.959,0,0,0,9.4,10.5h.2a9.731,9.731,0,0,0,9.6-9.9v-.5a10.04,10.04,0,0,0-9.5-10.5h-.1m0,24.5a13.679,13.679,0,0,1-13.7-13.5v-.4a13.6,13.6,0,1,1,13.5,13.9m35.7-27.4h4.2l-11.4,27h-3.4l-11.3-27h4.3l8.8,22.2Zm7.9,18.8c0,3.4,3,5.3,6.6,5.3,4.8,0,8.7-3,8.7-7.2v-2.5a22.451,22.451,0,0,0-7.7-1.1c-4.8-.1-7.6,2.1-7.6,5.5m-.4-13.6-1.1-3.3a20.719,20.719,0,0,1,9.5-2.2c7.1,0,11.1,3.7,11.1,10.7v16.4h-3.7v-4a11.3,11.3,0,0,1-9.5,4.6c-4.9,0-9.8-2.7-9.8-8.4s4.5-8.7,11.2-8.7a30.873,30.873,0,0,1,8,1.1v-.9c0-4.8-2.9-7.3-7.8-7.3a17.242,17.242,0,0,0-8,2" transform="translate(713.662 495.417)" fill="#7d7068"/>
  </g>
</svg>
