<svg xmlns="http://www.w3.org/2000/svg" width="723.451" height="45.204" viewBox="0 0 723.451 45.204">
  <g id="Fisher-Paykel" transform="translate(0 -0.048)">
    <path id="Path_19" data-name="Path 19" d="M0,43.956V.27H30.734V9.878H11.386v8.971H29.195v9.608H11.386v15.5Z" transform="translate(0 0.367)"/>
    <path id="Path_20" data-name="Path 20" d="M31.063,43.956H19.73V.27H31.063Z" transform="translate(32.635 0.367)"/>
    <path id="Path_21" data-name="Path 21" d="M32.392,30.522a28.133,28.133,0,0,0,14.783,4.99c3.344,0,6.476-.8,6.476-3.716,0-2.044-1.486-2.84-3.689-3.477l-6.609-1.858C36,24.258,32.18,20.755,32.18,13.854,32.18,5.52,39.505.053,48.9.053A27.523,27.523,0,0,1,62.41,3.317V13.934A23.887,23.887,0,0,0,49.14,9.608c-3.4,0-5.812.982-5.812,3.4,0,1.778,1.194,2.495,3.477,3.211l6.609,1.991c7.962,2.495,11.6,6.264,11.6,12.819,0,9.4-8.467,14.226-17.862,14.226a31.132,31.132,0,0,1-14.783-3.689Z" transform="translate(53.229 0)"/>
    <path id="Path_22" data-name="Path 22" d="M92.153.27V43.956H80.767V26.466H64.179v17.49H52.66V.27H64.179V16.858H80.9V.27Z" transform="translate(87.104 0.367)"/>
    <path id="Path_23" data-name="Path 23" d="M107.9.27V9.878H88.179v6.98h18.154v9.608H88.179v7.962h19.853v9.608H76.66V.27Z" transform="translate(126.802 0.367)"/>
    <path id="Path_24" data-name="Path 24" d="M97.25.27h18.579c9.74,0,17.145,5.308,17.145,15.075a13.934,13.934,0,0,1-9.528,13.8l11.519,14.81h-13.27L111.37,30.447h-2.84V43.956H97.25Zm11.386,20.516h6.529c4.114,0,6.768-2.15,6.768-5.494s-2.654-5.467-6.768-5.467h-6.476Z" transform="translate(160.86 0.367)"/>
    <path id="Path_25" data-name="Path 25" d="M155.216,40.32a18.021,18.021,0,0,1-12.1,4.353c-9.236,0-16.933-6.051-16.933-15.925a18,18,0,0,1,7.83-14.465l-4.353-5.308V.27h29.195V9.878H143.272l11.811,15.075,2.654-4.114h11.811l-8.413,12.1,8.679,11.014H157.949Zm-5.972-7.378-9.183-11.333a8.493,8.493,0,0,0-3.742,6.98,6.609,6.609,0,0,0,6.821,6.688,8.44,8.44,0,0,0,6.1-2.336Z" transform="translate(208.713 0.367)"/>
    <path id="Path_26" data-name="Path 26" d="M169.686,43.956H158.3V.27h18.579c9.74,0,17.145,5.308,17.145,15.075s-7.4,15.1-17.145,15.1h-7.193Zm0-23.117h6.4c4.14,0,6.768-2.15,6.768-5.494s-2.654-5.467-6.768-5.467h-6.476Z" transform="translate(261.842 0.367)"/>
    <path id="Path_27" data-name="Path 27" d="M207.849,35.914h-17.49l-3.132,7.962H176L193.782.27h10.829l17.782,43.686H210.928Zm-13.722-9.608h9.953l-4.963-12.793Z" transform="translate(291.12 0.367)"/>
    <path id="Path_28" data-name="Path 28" d="M212.828,43.956V27.023L196.32.27h12.819l9.741,16.853L228.62.27h12.1L224.214,27.023V43.956Z" transform="translate(324.731 0.367)"/>
    <path id="Path_29" data-name="Path 29" d="M230.5,18.849,244.456.27h13.27L241.59,21.184l16.774,22.772H244.855L230.5,24.4V43.956H219.11V.27H230.5Z" transform="translate(362.427 0.367)"/>
    <path id="Path_30" data-name="Path 30" d="M271.555.27V9.878H251.676v6.98H269.83v9.608H251.676v7.962h19.879v9.608H240.29V.27Z" transform="translate(397.461 0.367)"/>
    <path id="Path_31" data-name="Path 31" d="M260.89.27h11.386V34.348h19.64v9.608H260.89Z" transform="translate(431.535 0.367)"/>
  </g>
</svg>
