<svg id="Sharp" xmlns="http://www.w3.org/2000/svg" width="589.282" height="101.455" viewBox="0 0 589.282 101.455">
  <g id="Group_1506" data-name="Group 1506" transform="translate(1.802 9.005)">
    <path id="Path_4431" data-name="Path 4431" d="M83.184,84.978c-11.76-1.354-23.893-2.3-35.249-5.237a7.405,7.405,0,0,1-1.983-.759c-2.068-1.27-3.042-3.15-1.153-5.254a9.563,9.563,0,0,1,6.248-3.167c21.4-2.445,42.643,2.415,63.13,8.037a.167.167,0,0,0,.2-.1c2.355-5.93,5.685-11.356,7.4-17.543a.079.079,0,0,0-.051-.1c-18.637-6.248-38.284-7.792-57.871-7.585q-1.667.019-3.375.162c-7.785.658-15.627,1.351-23.253,3.121-8.252,1.916-15.79,5.693-21.4,12.159-3.384,3.9-4.4,10.271-3.9,15.24.851,8.348,7.262,12.408,14.329,15.2a24.4,24.4,0,0,0,3.225,1A212.968,212.968,0,0,0,53,104.244c11.7,1.476,23.429,2.793,34.983,5.216a16.467,16.467,0,0,1,3.252.893c1.657.849,3.1,2.974,2.623,4.924a4.086,4.086,0,0,1-1.037,1.752c-3.558,3.867-10.151,4.283-14.926,4.1A182.1,182.1,0,0,1,20.49,109.117a.107.107,0,0,0-.127.042A150.882,150.882,0,0,0,10.84,126.88a3.719,3.719,0,0,0-.161,1.7.119.119,0,0,0,.083.112c18.884,6.162,38.975,8.715,58.764,9.3,1.97.057,4.342.166,6.3.076q5.176-.235,12.513-.847c11.272-.94,23.578-3.192,32.119-10.832a21.9,21.9,0,0,0,6.425-21.635,12.711,12.711,0,0,0-1.118-2.866c-4.993-9.263-14.98-11.963-24.618-13.933-6.277-1.283-12.115-2.3-17.964-2.978m361.684-1.133c-.614,3.34-3.25,5.2-6.212,6.552-6.447,2.952-13.766,3.243-20.714,2.65q-5.3-.453-10.551-1.336a.157.157,0,0,0-.15.063l-5.658,7.736a.2.2,0,0,0,.005.243,1.907,1.907,0,0,0,.183.183q18.825,17.2,37.646,34.4a.565.565,0,0,0,.411.134c13.176-.186,26.3.073,39.53-.178q.386-.007.1-.265l-30.318-27.361a.239.239,0,0,1-.079-.171l-.022-.788a.285.285,0,0,1,.208-.284c10.487-2.858,22.895-6.2,28-17.041a9.948,9.948,0,0,0,.8-2.445A22.723,22.723,0,0,0,469.156,63.5a14.2,14.2,0,0,0-2.2-1.305q-2.875-1.409-5.771-2.775a14.44,14.44,0,0,0-2.164-.795A131.373,131.373,0,0,0,427.7,54.051a226.32,226.32,0,0,0-56.943,5.96.106.106,0,0,0-.083.1q-.25,36.412-.47,72.824a2.32,2.32,0,0,0,.392,1.38c.2.293,17.618.142,19.038.125q4.048-.049,8.329-.487a.1.1,0,0,0,.085-.095l.473-60.814c0-.4-.066-.6.2-.954.384-.514.795-1.187,1.417-1.354a69.055,69.055,0,0,1,35.78-.086,16.721,16.721,0,0,1,2.94,1.03,11.594,11.594,0,0,1,6.008,12.161m68.987,24.471q3.2.465,6.417.857c18.517,2.256,38.191,1.043,55.589-6.224a34.9,34.9,0,0,0,14.5-11.091c3.279-4.374,5.137-10.183,3.46-15.539-1.977-6.324-8.734-11.461-14.621-13.928-15.8-6.62-33.066-8.686-50.086-8.4a288.662,288.662,0,0,0-31.236,2.6,54.922,54.922,0,0,0-12.535,2.9.115.115,0,0,0-.076.108v74.769a.079.079,0,0,0,.079.079c9.219.02,18.414.524,27.607-.166a.189.189,0,0,0,.174-.184c.2-8.573-.112-16.919.634-25.712a.079.079,0,0,1,.09-.073M162.5,100.742a.2.2,0,0,1,.174-.1q22.347,0,44.684,0a1.074,1.074,0,0,1,.746.36.221.221,0,0,1,.066.145q.029.451.034,1.268.027,6.53.178,31.41a.1.1,0,0,0,.086.095q.411.047,1.522.059,20.284.22,26.885.274c.68.007,1-.362,1-1.05q-.117-38.216-.289-76.417a.062.062,0,0,0-.061-.061c-9.183-.294-18.353-.144-27.535-.188-.5,0-1.606.012-1.606.614q0,12.437,0,24.873,0,.578-.029,1.273c-.03.739.166,2.1-.952,2.207a27.192,27.192,0,0,1-2.734,0H162.7a.283.283,0,0,1-.157-.047,1.47,1.47,0,0,1-.69-1.305q-.007-13.411-.008-26.82c0-.509-.2-1.08-.759-1.08q-13.776,0-27.6,0a.376.376,0,0,0-.413.35,5.846,5.846,0,0,0-.066.959c-.012,23.46-.14,46.921-.122,70.381,0,1.549-.078,3.926-.024,5.895a.1.1,0,0,0,.086.091q.458.041,1.588.052,12.787.144,25.575.274a3.594,3.594,0,0,0,1.393-.489.137.137,0,0,0,.076-.123q.122-14.7.267-29.39a6.158,6.158,0,0,1,.656-3.515M321.59,117.154c3.892,5.4,6.846,11.385,10.315,17.051a.15.15,0,0,0,.13.073q17.737-.18,35.477-.33a.214.214,0,0,0,.172-.088.218.218,0,0,0,.033-.191,4.726,4.726,0,0,0-.49-1.079q-23.5-37.961-46.972-75.939a.194.194,0,0,0-.129-.086,8.362,8.362,0,0,0-1.118-.047q-15.856-.534-31.715.2a.139.139,0,0,0-.112.064l-46.51,75.176a7.174,7.174,0,0,0-.94,2.222.07.07,0,0,0,.014.058.067.067,0,0,0,.053.025q11.089-.159,22.176-.289a1.631,1.631,0,0,0,.4-.054.238.238,0,0,0,.134-.1l10.976-16.5a.158.158,0,0,1,.132-.071l47.805-.189a.207.207,0,0,1,.167.086" transform="translate(-10.658 -53.255)" fill="none" stroke="#f7999c" stroke-width="2"/>
    <path id="Path_4432" data-name="Path 4432" d="M1902.371,162c-.651-3.16-4.332-6.06-7.092-7.068-7.521-2.751-15.663-3.389-23.521-2.88q-7.934.512-15.725,1.748a.2.2,0,0,0-.167.193q-.112,8.681-.243,17.2-.03,1.989-.014,3.022a.983.983,0,0,0,.9.971l11.27,1.747a21.68,21.68,0,0,0,2.714.249q3.82.108,7.64.211c8.028.215,17.161-.4,22.8-7.054,1.774-2.092,1.973-5.761,1.441-8.341m-262.663-2.274c-4.477,6.972-8.87,13.9-13.294,20.854a3.906,3.906,0,0,0-.546,1.9.074.074,0,0,0,.018.056.07.07,0,0,0,.053.024h27.384a.051.051,0,0,0,.045-.026.055.055,0,0,0,0-.053,249.872,249.872,0,0,0-13.549-22.755.068.068,0,0,0-.112,0" transform="translate(-1352.751 -135.214)" fill="none" stroke="#f7999c" stroke-width="2"/>
  </g>
  <path id="Path_4433" data-name="Path 4433" d="M0,0H589.282V101.455H0ZM74.327,40.727c-11.76-1.354-23.893-2.3-35.249-5.237a7.4,7.4,0,0,1-1.983-.759c-2.068-1.27-3.042-3.15-1.153-5.254a9.563,9.563,0,0,1,6.248-3.167c21.4-2.445,42.643,2.415,63.13,8.037a.167.167,0,0,0,.2-.1c2.355-5.93,5.685-11.356,7.4-17.543a.079.079,0,0,0-.051-.1C94.229,10.36,74.583,8.816,55,9.023q-1.667.019-3.375.162c-7.785.658-15.627,1.351-23.253,3.121C20.115,14.222,12.577,18,6.968,24.466c-3.384,3.9-4.4,10.271-3.9,15.24.851,8.348,7.262,12.408,14.329,15.2a24.4,24.4,0,0,0,3.225,1,212.966,212.966,0,0,0,23.524,4.087c11.7,1.476,23.429,2.793,34.983,5.216a16.467,16.467,0,0,1,3.252.893c1.657.849,3.1,2.974,2.623,4.924a4.086,4.086,0,0,1-1.037,1.752c-3.558,3.867-10.151,4.283-14.926,4.1A182.1,182.1,0,0,1,11.633,64.867a.107.107,0,0,0-.127.042A150.882,150.882,0,0,0,1.983,82.63a3.719,3.719,0,0,0-.161,1.7.119.119,0,0,0,.083.112c18.884,6.162,38.975,8.715,58.764,9.3,1.97.057,4.342.166,6.3.076q5.176-.235,12.513-.847c11.272-.94,23.578-3.192,32.119-10.832A21.9,21.9,0,0,0,118.027,60.5a12.711,12.711,0,0,0-1.118-2.866c-4.993-9.263-14.98-11.963-24.618-13.933-6.277-1.283-12.115-2.3-17.964-2.978Zm361.684-1.133c-.614,3.34-3.25,5.2-6.212,6.552-6.447,2.952-13.766,3.243-20.714,2.65q-5.3-.453-10.551-1.336a.157.157,0,0,0-.15.063l-5.658,7.736a.2.2,0,0,0,.005.243,1.907,1.907,0,0,0,.183.183q18.825,17.2,37.646,34.4a.565.565,0,0,0,.411.134c13.176-.186,26.3.073,39.53-.178q.386-.007.1-.265L440.281,62.413a.239.239,0,0,1-.079-.171l-.022-.788a.285.285,0,0,1,.208-.284c10.487-2.858,22.895-6.2,28-17.041a9.948,9.948,0,0,0,.8-2.445A22.723,22.723,0,0,0,460.3,19.249a14.2,14.2,0,0,0-2.2-1.305q-2.875-1.409-5.771-2.775a14.44,14.44,0,0,0-2.164-.795A131.373,131.373,0,0,0,418.849,9.8a226.32,226.32,0,0,0-56.943,5.96.106.106,0,0,0-.083.1q-.25,36.412-.47,72.824a2.32,2.32,0,0,0,.392,1.38c.2.293,17.618.142,19.038.125q4.048-.049,8.329-.487a.1.1,0,0,0,.085-.095L389.67,28.8c0-.4-.066-.6.2-.954.384-.514.795-1.187,1.417-1.354a69.055,69.055,0,0,1,35.78-.086,16.721,16.721,0,0,1,2.94,1.03,11.594,11.594,0,0,1,6.008,12.161ZM505,64.065q3.2.465,6.417.857C529.933,67.178,549.607,65.966,567,58.7a34.9,34.9,0,0,0,14.5-11.091c3.279-4.374,5.137-10.183,3.46-15.539-1.977-6.324-8.734-11.461-14.621-13.928-15.8-6.62-33.066-8.686-50.086-8.4a288.662,288.662,0,0,0-31.236,2.6,54.922,54.922,0,0,0-12.535,2.9.115.115,0,0,0-.076.108V90.12a.079.079,0,0,0,.079.079c9.219.02,18.414.524,27.607-.166a.189.189,0,0,0,.174-.184c.2-8.573-.112-16.919.634-25.712a.079.079,0,0,1,.09-.073ZM153.645,56.492a.2.2,0,0,1,.174-.1q22.347,0,44.684,0a1.074,1.074,0,0,1,.746.36.221.221,0,0,1,.066.145q.029.451.034,1.268.027,6.53.178,31.41a.1.1,0,0,0,.086.095q.411.047,1.522.059,20.284.22,26.885.274c.68.007,1-.362,1-1.05q-.117-38.216-.289-76.417a.062.062,0,0,0-.061-.061c-9.183-.294-18.353-.144-27.535-.188-.5,0-1.606.012-1.606.614q0,12.437,0,24.873,0,.578-.029,1.273c-.03.739.166,2.1-.952,2.207a27.192,27.192,0,0,1-2.734,0h-41.97a.283.283,0,0,1-.157-.047,1.47,1.47,0,0,1-.69-1.305q-.007-13.411-.008-26.82c0-.509-.2-1.08-.759-1.08q-13.776,0-27.6,0a.376.376,0,0,0-.413.35,5.846,5.846,0,0,0-.066.959c-.012,23.46-.14,46.921-.122,70.381,0,1.549-.078,3.926-.024,5.895a.1.1,0,0,0,.086.091q.458.041,1.588.052,12.787.144,25.575.274a3.594,3.594,0,0,0,1.393-.489.137.137,0,0,0,.076-.123q.122-14.7.267-29.39a6.158,6.158,0,0,1,.656-3.515ZM312.734,72.9c3.892,5.4,6.846,11.385,10.315,17.051a.15.15,0,0,0,.13.073q17.737-.18,35.477-.33a.214.214,0,0,0,.172-.088.218.218,0,0,0,.033-.191,4.725,4.725,0,0,0-.49-1.079Q334.87,50.379,311.4,12.4a.194.194,0,0,0-.129-.086,8.362,8.362,0,0,0-1.118-.047q-15.856-.534-31.715.2a.139.139,0,0,0-.112.064l-46.51,75.176a7.174,7.174,0,0,0-.94,2.222.07.07,0,0,0,.014.058.067.067,0,0,0,.053.025q11.089-.159,22.176-.289a1.631,1.631,0,0,0,.4-.054.238.238,0,0,0,.134-.1l10.976-16.5a.158.158,0,0,1,.132-.071l47.805-.189a.207.207,0,0,1,.167.086Z" fill="#fff"/>
  <path id="Path_4434" data-name="Path 4434" d="M47.935,79.741c11.356,2.934,23.488,3.882,35.249,5.237,5.849.673,11.688,1.694,17.964,2.978,9.638,1.97,19.625,4.67,24.618,13.933a12.711,12.711,0,0,1,1.118,2.866,21.9,21.9,0,0,1-6.425,21.635c-8.541,7.64-20.847,9.892-32.119,10.832q-7.337.612-12.513.847c-1.958.09-4.33-.019-6.3-.076-19.789-.582-39.88-3.135-58.764-9.3a.119.119,0,0,1-.083-.112,3.719,3.719,0,0,1,.161-1.7,150.882,150.882,0,0,1,9.523-17.721.107.107,0,0,1,.127-.042A182.1,182.1,0,0,0,77.9,121.124c4.775.188,11.368-.228,14.926-4.1a4.086,4.086,0,0,0,1.037-1.752c.475-1.95-.966-4.075-2.623-4.924a16.467,16.467,0,0,0-3.252-.893c-11.554-2.423-23.28-3.74-34.983-5.216a212.964,212.964,0,0,1-23.524-4.087,24.4,24.4,0,0,1-3.225-1c-7.066-2.8-13.478-6.855-14.329-15.2-.506-4.97.516-11.338,3.9-15.24,5.609-6.466,13.147-10.244,21.4-12.159,7.626-1.77,15.468-2.464,23.253-3.121q1.708-.144,3.375-.162c19.587-.206,39.234,1.338,57.871,7.585a.079.079,0,0,1,.051.1c-1.711,6.187-5.041,11.613-7.4,17.543a.167.167,0,0,1-.2.1c-20.487-5.622-41.727-10.482-63.13-8.037A9.563,9.563,0,0,0,44.8,73.728c-1.889,2.1-.915,3.984,1.153,5.254A7.4,7.4,0,0,0,47.935,79.741ZM438.655,90.4c2.962-1.356,5.6-3.213,6.212-6.552a11.594,11.594,0,0,0-6.008-12.161,16.721,16.721,0,0,0-2.94-1.03,69.055,69.055,0,0,0-35.78.086c-.622.167-1.033.84-1.417,1.354-.262.35-.193.555-.2.954l-.473,60.814a.1.1,0,0,1-.085.095q-4.281.438-8.329.487c-1.42.017-18.835.167-19.038-.125a2.32,2.32,0,0,1-.392-1.38q.22-36.412.47-72.824a.106.106,0,0,1,.083-.1,226.32,226.32,0,0,1,56.943-5.96,131.372,131.372,0,0,1,31.314,4.574,14.441,14.441,0,0,1,2.164.795q2.9,1.366,5.771,2.775a14.194,14.194,0,0,1,2.2,1.305,22.724,22.724,0,0,1,8.891,22.435,9.946,9.946,0,0,1-.8,2.445c-5.1,10.84-17.511,14.183-28,17.041a.285.285,0,0,0-.208.284l.022.788a.239.239,0,0,0,.079.171l30.318,27.361q.287.259-.1.265c-13.226.25-26.355-.008-39.53.178a.565.565,0,0,1-.411-.134q-18.822-17.2-37.646-34.4a1.9,1.9,0,0,1-.183-.183.2.2,0,0,1-.005-.243l5.658-7.736a.157.157,0,0,1,.15-.063q5.255.883,10.551,1.336c6.948.594,14.266.3,20.714-2.65Zm75.11,17.991c-.746,8.793-.429,17.139-.634,25.712a.189.189,0,0,1-.174.184c-9.193.69-18.389.186-27.607.166a.079.079,0,0,1-.079-.079V59.6a.115.115,0,0,1,.076-.108,54.924,54.924,0,0,1,12.535-2.9,288.662,288.662,0,0,1,31.236-2.6c17.021-.284,34.287,1.782,50.086,8.4,5.888,2.467,12.645,7.6,14.621,13.928,1.677,5.357-.181,11.165-3.46,15.539a34.9,34.9,0,0,1-14.5,11.091c-17.4,7.268-37.072,8.48-55.589,6.224q-3.213-.392-6.417-.857a.079.079,0,0,0-.09.073Zm46.514-28.346c-.651-3.16-4.332-6.06-7.092-7.068-7.521-2.751-15.663-3.389-23.521-2.88q-7.934.512-15.725,1.748a.2.2,0,0,0-.167.193q-.112,8.681-.243,17.2-.03,1.989-.014,3.022a.983.983,0,0,0,.9.971l11.27,1.747a21.682,21.682,0,0,0,2.714.249q3.82.108,7.64.211c8.028.215,17.161-.4,22.8-7.054C560.612,86.292,560.811,82.622,560.279,80.042ZM162.5,100.742a6.158,6.158,0,0,0-.656,3.515q-.145,14.692-.267,29.39a.137.137,0,0,1-.076.123,3.594,3.594,0,0,1-1.393.489q-12.788-.13-25.575-.274-1.13-.012-1.588-.052a.1.1,0,0,1-.086-.091c-.054-1.968.024-4.346.024-5.895-.019-23.46.11-46.921.122-70.381a5.846,5.846,0,0,1,.066-.959.376.376,0,0,1,.413-.35q13.822,0,27.6,0c.561,0,.759.572.759,1.08q0,13.409.008,26.82a1.47,1.47,0,0,0,.69,1.305.283.283,0,0,0,.157.047h41.97a27.192,27.192,0,0,0,2.734,0c1.118-.112.922-1.468.952-2.207q.029-.695.029-1.273.007-12.437,0-24.873c0-.6,1.111-.615,1.606-.614,9.182.044,18.351-.107,27.535.188a.062.062,0,0,1,.061.061q.172,38.2.289,76.417c0,.688-.32,1.057-1,1.05q-6.6-.054-26.885-.274-1.111-.012-1.522-.059a.1.1,0,0,1-.086-.095q-.15-24.88-.178-31.41-.005-.817-.034-1.268A.221.221,0,0,0,208.1,101a1.074,1.074,0,0,0-.746-.36q-22.337,0-44.684,0a.2.2,0,0,0-.174.1ZM321.59,117.154a.207.207,0,0,0-.167-.086l-47.805.189a.158.158,0,0,0-.132.071l-10.976,16.5a.238.238,0,0,1-.134.1,1.631,1.631,0,0,1-.4.054q-11.087.13-22.176.289a.067.067,0,0,1-.053-.025.07.07,0,0,1-.014-.058,7.174,7.174,0,0,1,.94-2.222l46.51-75.176a.139.139,0,0,1,.112-.064q15.859-.737,31.715-.2a8.361,8.361,0,0,1,1.118.047.194.194,0,0,1,.129.086q23.472,37.978,46.972,75.939a4.723,4.723,0,0,1,.49,1.079.217.217,0,0,1-.033.191.214.214,0,0,1-.172.088q-17.737.127-35.477.33a.15.15,0,0,1-.13-.073c-3.468-5.666-6.422-11.652-10.315-17.051ZM297.616,77.768c-4.478,6.972-8.87,13.9-13.294,20.854a3.906,3.906,0,0,0-.546,1.9.074.074,0,0,0,.018.056.07.07,0,0,0,.053.024h27.384a.051.051,0,0,0,.045-.026.055.055,0,0,0,0-.053,249.858,249.858,0,0,0-13.549-22.755.068.068,0,0,0-.112,0Z" transform="translate(-8.856 -44.25)" fill="#ee3238"/>
  <path id="Path_4435" data-name="Path 4435" d="M1895.279,154.933c2.76,1.008,6.441,3.908,7.092,7.068.533,2.58.333,6.25-1.441,8.341-5.638,6.65-14.77,7.269-22.8,7.054q-3.82-.1-7.64-.211a21.678,21.678,0,0,1-2.714-.249l-11.27-1.747a.983.983,0,0,1-.9-.971q-.017-1.033.013-3.022.132-8.522.244-17.2a.2.2,0,0,1,.167-.193q7.792-1.236,15.726-1.748c7.858-.509,16,.129,23.521,2.88ZM1626.415,180.58c4.423-6.956,8.816-13.882,13.294-20.854a.068.068,0,0,1,.112,0,249.872,249.872,0,0,1,13.549,22.755.055.055,0,0,1,0,.053.051.051,0,0,1-.045.026h-27.384a.07.07,0,0,1-.053-.024.074.074,0,0,1-.018-.056A3.906,3.906,0,0,1,1626.415,180.58Z" transform="translate(-1350.948 -126.209)" fill="#fff"/>
</svg>
